<svg width="32" height="32" viewBox="0 0 32 32" fill="none" xmlns="http://www.w3.org/2000/svg">
<g opacity="0.8">
<rect width="32" height="32" fill="white" fill-opacity="0"/>
<path d="M22.3575 23C20.3569 23 11.4172 23 11.4172 23L7.65611 24.85C7.65611 24.85 7.35273 25 6.90819 25C6.40663 25 6 24.5921 6 24.0891C6 24.0158 6 23.848 6 23.7854C6 23.7854 6 17.0255 6 18.9255V11.6514C6 9.63486 7.62181 8 9.6224 8H22.3575C24.3581 8 26 9.63486 26 11.6514C26 11.6514 26 16.9089 26 18.9255C26 20.9422 24.3581 23 22.3575 23ZM24 11.6421C24 10.6366 23.355 10 22.3512 10H9.62854C8.62475 10 8 10.6366 8 11.6421V17.5359C8.0181 18.5983 8 22.5708 8 22.5708L10.8243 21C12.4429 21.0149 22.3512 21 22.3512 21C23.3549 21 24 19.9312 24 18.9256C24 17.92 24 12.6477 24 11.6421Z" fill="white"/>
</g>
</svg>
