<svg xmlns="http://www.w3.org/2000/svg" viewBox="0 0 80 80"><defs><style>.cls-1{fill-opacity:0.3;}.cls-2{fill:#fff;}</style></defs><title>Asset 1</title><g id="Layer_2" data-name="Layer 2"><g id="Layer_1-2" data-name="Layer 1"><path id="Path" class="cls-1" d="M0,40A40,40,0,1,1,40,80,40,40,0,0,1,0,40Z"/><path id="Rectangle-11" class="cls-2" d="M2,40A38,38,0,1,0,40,2,38,38,0,0,0,2,40ZM0,40A40,40,0,1,1,40,80,40,40,0,0,1,0,40Z"/><path id="play" class="cls-2" d="M55.2,37.73a1.19,1.19,0,0,1,0,2.16L33.1,54c-.93.6-1.69.19-1.69-.92V24.52c0-1.11.76-1.51,1.69-.92Z"/></g></g></svg>