<svg width="32" height="32" viewBox="0 0 32 32" fill="none" xmlns="http://www.w3.org/2000/svg">
<g opacity="0.8">
<rect width="32" height="32" fill="white" fill-opacity="0"/>
<path fill-rule="evenodd" clip-rule="evenodd" d="M20.1971 18.176C20.8941 18.176 21.3511 17.836 21.4801 17.197H23.0741C22.9331 18.645 21.8791 19.576 20.1971 19.576C18.1811 19.576 17.0391 18.358 17.0391 16.19C17.0391 14.045 18.1761 12.832 20.1971 12.832C21.9081 12.832 22.9331 13.781 23.0741 15.252H21.4801C21.3631 14.637 20.9241 14.233 20.1971 14.233C19.2771 14.233 18.7611 14.918 18.7611 16.19C18.7611 17.479 19.2831 18.176 20.1971 18.176ZM13.2567 18.176C13.9537 18.176 14.4107 17.836 14.5397 17.197H16.1337C15.9927 18.645 14.9377 19.576 13.2567 19.576C11.2407 19.576 10.0977 18.358 10.0977 16.19C10.0977 14.045 11.2347 12.832 13.2567 12.832C14.9677 12.832 15.9927 13.781 16.1337 15.252H14.5397C14.4227 14.637 13.9827 14.233 13.2567 14.233C12.3367 14.233 11.8207 14.918 11.8207 16.19C11.8207 17.479 12.3427 18.176 13.2567 18.176ZM6 8C5.447 8 5 8.447 5 9V23C5 23.553 5.447 24 6 24H27C27.552 24 28 23.553 28 23V9C28 8.447 27.552 8 27 8H6Z" fill="white"/>
</g>
</svg>
