<svg width="32" height="32" viewBox="0 0 32 32" fill="none" xmlns="http://www.w3.org/2000/svg">
<rect width="32" height="32" fill="black" fill-opacity="0"/>
<rect width="18" height="18" fill="black" fill-opacity="0" transform="translate(7 7)"/>
<path fill-rule="evenodd" clip-rule="evenodd" d="M16 11C13.2386 11 11 13.2386 11 16C11 18.7614 13.2386 21 16 21C18.7614 21 21 18.7614 21 16C21 13.2386 18.7614 11 16 11ZM9 16C9 12.134 12.134 9 16 9C19.866 9 23 12.134 23 16C23 19.866 19.866 23 16 23C12.134 23 9 19.866 9 16Z" fill="white"/>
<path fill-rule="evenodd" clip-rule="evenodd" d="M16 7C16.5523 7 17 7.44772 17 8V10C17 10.5523 16.5523 11 16 11C15.4477 11 15 10.5523 15 10V8C15 7.44772 15.4477 7 16 7Z" fill="white"/>
<path fill-rule="evenodd" clip-rule="evenodd" d="M16 21C16.5523 21 17 21.4477 17 22V24C17 24.5523 16.5523 25 16 25C15.4477 25 15 24.5523 15 24V22C15 21.4477 15.4477 21 16 21Z" fill="white"/>
<path fill-rule="evenodd" clip-rule="evenodd" d="M25 16C25 16.5523 24.5523 17 24 17H22C21.4477 17 21 16.5523 21 16C21 15.4477 21.4477 15 22 15H24C24.5523 15 25 15.4477 25 16Z" fill="white"/>
<path fill-rule="evenodd" clip-rule="evenodd" d="M11 16C11 16.5523 10.5523 17 10 17H8C7.44772 17 7 16.5523 7 16C7 15.4477 7.44772 15 8 15H10C10.5523 15 11 15.4477 11 16Z" fill="white"/>
<path fill-rule="evenodd" clip-rule="evenodd" d="M22.3634 9.63679C22.7539 10.0273 22.7539 10.6605 22.3634 11.051L20.9491 12.4652C20.5586 12.8557 19.9255 12.8557 19.5349 12.4652C19.1444 12.0747 19.1444 11.4415 19.5349 11.051L20.9491 9.63679C21.3397 9.24627 21.9728 9.24627 22.3634 9.63679Z" fill="white"/>
<path fill-rule="evenodd" clip-rule="evenodd" d="M12.4649 19.5352C12.8554 19.9258 12.8554 20.5589 12.4649 20.9494L11.0507 22.3637C10.6602 22.7542 10.027 22.7542 9.63649 22.3637C9.24597 21.9731 9.24597 21.34 9.63649 20.9494L11.0507 19.5352C11.4412 19.1447 12.0744 19.1447 12.4649 19.5352Z" fill="white"/>
<path fill-rule="evenodd" clip-rule="evenodd" d="M22.3632 22.3634C21.9727 22.7539 21.3395 22.7539 20.949 22.3634L19.5348 20.9491C19.1443 20.5586 19.1443 19.9255 19.5348 19.5349C19.9253 19.1444 20.5585 19.1444 20.949 19.5349L22.3632 20.9491C22.7537 21.3397 22.7537 21.9728 22.3632 22.3634Z" fill="white"/>
<path fill-rule="evenodd" clip-rule="evenodd" d="M12.4648 12.4649C12.0742 12.8554 11.4411 12.8554 11.0506 12.4649L9.63634 11.0507C9.24582 10.6602 9.24582 10.027 9.63634 9.63649C10.0269 9.24597 10.66 9.24597 11.0506 9.63649L12.4648 11.0507C12.8553 11.4412 12.8553 12.0744 12.4648 12.4649Z" fill="white"/>
</svg>
