<svg width="32" height="32" viewBox="0 0 32 32" fill="none" xmlns="http://www.w3.org/2000/svg">
<path fill-rule="evenodd" clip-rule="evenodd" d="M23.9999 7.88889C24.5521 7.88889 24.9999 8.3366 24.9999 8.88889V13.3333C24.9999 13.8856 24.5521 14.3333 23.9999 14.3333H19.5554C19.0031 14.3333 18.5554 13.8856 18.5554 13.3333C18.5554 12.781 19.0031 12.3333 19.5554 12.3333H22.9999V8.88889C22.9999 8.3366 23.4476 7.88889 23.9999 7.88889Z" fill="white"/>
<path fill-rule="evenodd" clip-rule="evenodd" d="M16 9C12.8898 9 9.88226 11.0067 8.94295 13.6664C8.75903 14.1871 8.18777 14.4602 7.66701 14.2763C7.14625 14.0923 6.87319 13.5211 7.05711 13.0003C8.31157 9.44837 12.1449 7 16 7C19.8551 7 23.6885 9.44837 24.9429 13.0003C25.1269 13.5211 24.8538 14.0923 24.333 14.2763C23.8123 14.4602 23.241 14.1871 23.0571 13.6664C22.1178 11.0067 19.1103 9 16 9Z" fill="white"/>
<path fill-rule="evenodd" clip-rule="evenodd" d="M7 18.6667C7 18.1144 7.44772 17.6667 8 17.6667H12.4444C12.9967 17.6667 13.4444 18.1144 13.4444 18.6667C13.4444 19.2189 12.9967 19.6667 12.4444 19.6667H9V23.1111C9 23.6634 8.55228 24.1111 8 24.1111C7.44772 24.1111 7 23.6634 7 23.1111V18.6667Z" fill="white"/>
<path fill-rule="evenodd" clip-rule="evenodd" d="M7.66701 17.7237C8.18777 17.5398 8.75903 17.8129 8.94295 18.3336C9.88226 20.9932 12.8898 23 16 23C19.1103 23 22.1178 20.9932 23.0571 18.3336C23.241 17.8129 23.8123 17.5398 24.333 17.7237C24.8538 17.9077 25.1269 18.4789 24.9429 18.9997C23.6885 22.5516 19.8551 25 16 25C12.1449 25 8.31157 22.5516 7.05711 18.9997C6.87319 18.4789 7.14625 17.9077 7.66701 17.7237Z" fill="white"/>
</svg>
