<svg width="32" height="32" viewBox="0 0 32 32" fill="none" xmlns="http://www.w3.org/2000/svg">
  <rect width="32" height="32" fill="black" fill-opacity="0"/>
  <rect width="15.5" height="18" fill="black" fill-opacity="0" transform="translate(6 7)"/>
  <path fill-rule="evenodd" clip-rule="evenodd" d="M15.4179 7.0915C15.7727 7.25469 16 7.60948 16 8.00001V24C16 24.3905 15.7727 24.7453 15.4179 24.9085C15.0631 25.0717 14.6457 25.0134 14.3492 24.7593L10.6301 21.5714H7C6.44772 21.5714 6 21.1237 6 20.5714V11.4286C6 10.8763 6.44772 10.4286 7 10.4286H10.6301L14.3492 7.24076C14.6457 6.9866 15.0631 6.92832 15.4179 7.0915ZM14 10.1742L11.6508 12.1878C11.4695 12.3432 11.2387 12.4286 11 12.4286H8V19.5714H11C11.2387 19.5714 11.4695 19.6568 11.6508 19.8122L14 21.8258V10.1742Z" fill="white"/>
  <rect width="2.50025" height="7.5005" fill="black" fill-opacity="0" transform="translate(19 12.25)"/>
  <path fill-rule="evenodd" clip-rule="evenodd" d="M19.5983 12.3346C20.104 12.1126 20.6939 12.3426 20.9159 12.8483C21.3204 13.7699 21.5003 14.9114 21.5003 16.0003C21.5003 17.0891 21.3204 18.2306 20.9159 19.1522C20.6939 19.6579 20.104 19.8879 19.5983 19.6659C19.0926 19.4439 18.8626 18.854 19.0846 18.3483C19.3467 17.7511 19.5003 16.902 19.5003 16.0003C19.5003 15.0985 19.3467 14.2494 19.0846 13.6522C18.8626 13.1465 19.0926 12.5566 19.5983 12.3346Z" fill="white"/>
</svg>
