<svg width="32" height="32" viewBox="0 0 32 32" fill="none" xmlns="http://www.w3.org/2000/svg">
<rect width="32" height="32" fill="black" fill-opacity="0"/>
<rect width="20" height="18" fill="black" fill-opacity="0" transform="translate(6 7)"/>
<path fill-rule="evenodd" clip-rule="evenodd" d="M15.4179 7.0915C15.7727 7.25469 16 7.60948 16 8.00001V24C16 24.3905 15.7727 24.7453 15.4179 24.9085C15.0631 25.0717 14.6457 25.0134 14.3492 24.7593L10.6301 21.5714H7C6.44772 21.5714 6 21.1237 6 20.5714V11.4286C6 10.8763 6.44772 10.4286 7 10.4286H10.6301L14.3492 7.24076C14.6457 6.9866 15.0631 6.92832 15.4179 7.0915ZM14 10.1742L11.6508 12.1878C11.4695 12.3432 11.2387 12.4286 11 12.4286H8V19.5714H11C11.2387 19.5714 11.4695 19.6568 11.6508 19.8122L14 21.8258V10.1742Z" fill="white"/>
<path fill-rule="evenodd" clip-rule="evenodd" d="M19.2929 12.7929C19.6834 12.4024 20.3166 12.4024 20.7071 12.7929L22.5 14.5858L24.2929 12.7929C24.6834 12.4024 25.3166 12.4024 25.7071 12.7929C26.0976 13.1834 26.0976 13.8166 25.7071 14.2071L23.9142 16L25.7071 17.7929C26.0976 18.1834 26.0976 18.8166 25.7071 19.2071C25.3166 19.5976 24.6834 19.5976 24.2929 19.2071L22.5 17.4142L20.7071 19.2071C20.3166 19.5976 19.6834 19.5976 19.2929 19.2071C18.9024 18.8166 18.9024 18.1834 19.2929 17.7929L21.0858 16L19.2929 14.2071C18.9024 13.8166 18.9024 13.1834 19.2929 12.7929Z" fill="white"/>
</svg>
