<svg width="5" height="10" viewBox="0 0 5 9" fill="none" xmlns="http://www.w3.org/2000/svg">
<path fill-rule="evenodd" clip-rule="evenodd" d="M4.62953 9C4.53471 9 4.43989 8.96499 4.36763 8.89453L0.108501 4.75453C0.0389784 4.68695 0 4.59544 0 4.49994C0 4.40445 0.0389784 4.31294 0.108501 4.24536L4.36763 0.105356C4.51237 -0.0351186 4.7467 -0.0351186 4.89144 0.105356C5.03619 0.246052 5.03619 0.474046 4.89144 0.61452L0.894223 4.49994L4.89144 8.38537C5.03619 8.52584 5.03619 8.75406 4.89144 8.89453C4.81918 8.96499 4.72436 9 4.62953 9Z" fill="#000000"/>
<path d="M4.62953 9C4.53471 9 4.43989 8.96499 4.36763 8.89453L0.108501 4.75453C0.0389784 4.68695 0 4.59544 0 4.49994C0 4.40445 0.0389784 4.31294 0.108501 4.24536L4.36763 0.105356C4.51237 -0.0351186 4.7467 -0.0351186 4.89144 0.105356C5.03619 0.246052 5.03619 0.474046 4.89144 0.61452L0.894223 4.49994L4.89144 8.38537C5.03619 8.52584 5.03619 8.75406 4.89144 8.89453C4.81918 8.96499 4.72436 9 4.62953 9" stroke="#000000" stroke-width="0.5"/>
</svg>
