<svg fill="none" height="21" viewBox="0 0 12 21" width="12" xmlns="http://www.w3.org/2000/svg"><path d="m-.688882 17.3876c-.400338.3805-.416448 1.0134-.035992 1.4138.380459.4003 1.013419.4164 1.413756.036zm10.218292-8.33135.68889.72487c.1986-.18878.3111-.45082.3111-.72487s-.1125-.53609-.3111-.72487zm-8.840528-9.781124c-.400337-.380456-1.033297-.364346-1.413756.035992-.380456.400337-.364346 1.033297.035992 1.413756zm0 19.562274 9.529418-9.05628-1.37777-1.44974-9.529412 9.05622zm9.529418-10.50602-9.529418-9.056254-1.377764 1.449748 9.529412 9.056246z" fill="#000" transform="translate(1.23584 1.38135)"/></svg>
