<svg width="24" height="24" viewBox="0 0 24 24" fill="none" xmlns="http://www.w3.org/2000/svg">
<path fill-rule="evenodd" clip-rule="evenodd" d="M9.64755 12.3716C9.85653 12.7292 9.73602 13.1886 9.37839 13.3976C7.80787 14.3153 6.75 16.0315 6.75 18C6.75 18.4142 6.41421 18.75 6 18.75C5.58579 18.75 5.25 18.4142 5.25 18C5.25 15.4818 6.60533 13.2806 8.62161 12.1024C8.97925 11.8935 9.43858 12.014 9.64755 12.3716ZM14.3524 12.3716C14.5614 12.014 15.0208 11.8935 15.3784 12.1024C17.3947 13.2806 18.75 15.4818 18.75 18C18.75 18.4142 18.4142 18.75 18 18.75C17.5858 18.75 17.25 18.4142 17.25 18C17.25 16.0315 16.1921 14.3153 14.6216 13.3976C14.264 13.1886 14.1435 12.7292 14.3524 12.3716Z" fill="black"/>
<path fill-rule="evenodd" clip-rule="evenodd" d="M12 6.75C10.3431 6.75 9 8.09315 9 9.75C9 11.4069 10.3431 12.75 12 12.75C13.6569 12.75 15 11.4069 15 9.75C15 8.09315 13.6569 6.75 12 6.75ZM7.5 9.75C7.5 7.26472 9.51472 5.25 12 5.25C14.4853 5.25 16.5 7.26472 16.5 9.75C16.5 12.2353 14.4853 14.25 12 14.25C9.51472 14.25 7.5 12.2353 7.5 9.75Z" fill="black"/>
</svg>
