<svg width="24" height="24" viewBox="0 0 24 24" fill="none" xmlns="http://www.w3.org/2000/svg">
<path d="M12 11.2C11.5582 11.2 11.2 10.8418 11.2 10.4C11.2 9.95817 11.5582 9.6 12 9.6C12.4418 9.6 12.8 9.95817 12.8 10.4C12.8 10.8418 12.4418 11.2 12 11.2Z" fill="black"/>
<path d="M8 10.4C8 10.8418 8.35817 11.2 8.8 11.2C9.24183 11.2 9.6 10.8418 9.6 10.4C9.6 9.95817 9.24183 9.6 8.8 9.6C8.35817 9.6 8 9.95817 8 10.4Z" fill="black"/>
<path d="M12 14.4C11.5582 14.4 11.2 14.0418 11.2 13.6C11.2 13.1582 11.5582 12.8 12 12.8C12.4418 12.8 12.8 13.1582 12.8 13.6C12.8 14.0418 12.4418 14.4 12 14.4Z" fill="black"/>
<path d="M8 13.6C8 14.0418 8.35817 14.4 8.8 14.4C9.24183 14.4 9.6 14.0418 9.6 13.6C9.6 13.1582 9.24183 12.8 8.8 12.8C8.35817 12.8 8 13.1582 8 13.6Z" fill="black"/>
<path d="M15.2 11.2C14.7582 11.2 14.4 10.8418 14.4 10.4C14.4 9.95817 14.7582 9.6 15.2 9.6C15.6418 9.6 16 9.95817 16 10.4C16 10.8418 15.6418 11.2 15.2 11.2Z" fill="black"/>
<path fill-rule="evenodd" clip-rule="evenodd" d="M8.8 4C9.24183 4 9.6 4.35817 9.6 4.8V5.6H14.4V4.8C14.4 4.35817 14.7582 4 15.2 4C15.6418 4 16 4.35817 16 4.8V5.6H17.6C18.9255 5.6 20 6.67452 20 8V17.6C20 18.9255 18.9255 20 17.6 20H6.4C5.07452 20 4 18.9255 4 17.6V8C4 6.67452 5.07452 5.6 6.4 5.6H8V4.8C8 4.35817 8.35817 4 8.8 4ZM6.4 7.2C5.95817 7.2 5.6 7.55817 5.6 8V17.6C5.6 18.0418 5.95817 18.4 6.4 18.4H17.6C18.0418 18.4 18.4 18.0418 18.4 17.6V8C18.4 7.55817 18.0418 7.2 17.6 7.2H6.4Z" fill="black"/>
</svg>
