<svg width="24" height="24" viewBox="0 0 24 24" fill="none" xmlns="http://www.w3.org/2000/svg">
<path fill-rule="evenodd" clip-rule="evenodd" d="M12 7.125C9.00986 7.125 6.75 9.24649 6.75 11.6739C6.75 12.9128 7.32452 14.0539 8.29092 14.8906C8.54369 15.1094 8.62107 15.4692 8.48063 15.7726L8.03432 16.7369L9.56048 15.9681C9.73825 15.8785 9.94433 15.8633 10.1333 15.9258C10.712 16.1171 11.3405 16.2228 12 16.2228C14.9901 16.2228 17.25 14.1008 17.25 11.6739C17.25 9.24649 14.9901 7.125 12 7.125ZM5.25 11.6739C5.25 8.24839 8.36196 5.625 12 5.625C15.638 5.625 18.75 8.24839 18.75 11.6739C18.75 15.0988 15.6381 17.7228 12 17.7228C11.2925 17.7228 10.6093 17.6249 9.96647 17.4431L6.78717 19.0448C6.50221 19.1884 6.15762 19.1359 5.92828 18.9141C5.69895 18.6922 5.63508 18.3496 5.7691 18.06L6.89334 15.6309C5.87917 14.5803 5.25 13.1998 5.25 11.6739Z" fill="black"/>
</svg>
