<svg width="52" height="52" viewBox="0 0 52 52" fill="none" xmlns="http://www.w3.org/2000/svg">
<path fill-rule="evenodd" clip-rule="evenodd" d="M26 50C39.2548 50 50 39.2548 50 26C50 12.7452 39.2548 2 26 2C12.7452 2 2 12.7452 2 26C2 39.2548 12.7452 50 26 50Z" stroke="#000" stroke-width="3"/>
<path fill-rule="evenodd" clip-rule="evenodd" d="M35.6127 17.4259L21.9487 32.1498L16.2922 27.3352C15.7686 26.8883 14.9174 26.8883 14.3937 27.3352C13.8688 27.7831 13.8688 28.5065 14.3937 28.95L21.1069 34.664C21.3593 34.8789 21.7017 35 22.0562 35C22.4482 35 22.8389 34.8503 23.1007 34.5749L37.7019 18.8613C38.1678 18.3699 38.0778 17.6499 37.5005 17.2556C36.9232 16.8557 36.0773 16.9345 35.6127 17.4259Z" fill="#000" stroke="#000"/>
</svg>
