<svg width="68" height="68" viewBox="0 0 68 68" fill="none" xmlns="http://www.w3.org/2000/svg">
<path fill-rule="evenodd" clip-rule="evenodd" d="M34 66C51.6731 66 66 51.6731 66 34C66 25.1634 62.4183 17.1634 56.6274 11.3726C53.6799 8.42502 50.1599 6.04981 46.2487 4.42796C44.3341 3.63407 42.3258 3.02069 40.245 2.60905C39.2257 2.40741 38.189 2.25418 37.1375 2.15185C36.1052 2.0514 35.0586 2 34 2C32.9414 2 31.8948 2.0514 30.8625 2.15185C29.811 2.25418 28.7743 2.40741 27.755 2.60905C25.6742 3.02069 23.6659 3.63407 21.7513 4.42796C17.8401 6.04981 14.3201 8.42502 11.3726 11.3726C5.58172 17.1634 2 25.1634 2 34C2 51.6731 16.3269 66 34 66Z" stroke="#000" stroke-width="2.81319"/>
<path d="M24.0093 33.3601L31.7159 40.5985L45.3415 26.1216" stroke="#000" stroke-width="3.51648" stroke-linecap="round" stroke-linejoin="round"/>
</svg>
