<svg width="24" height="24" viewBox="0 0 24 24" fill="none" xmlns="http://www.w3.org/2000/svg">
<path fill-rule="evenodd" clip-rule="evenodd" d="M12 8.25C9.92893 8.25 8.25 9.92893 8.25 12C8.25 14.0711 9.92893 15.75 12 15.75C14.0711 15.75 15.75 14.0711 15.75 12C15.75 9.92893 14.0711 8.25 12 8.25ZM6.75 12C6.75 9.10051 9.10051 6.75 12 6.75C14.8995 6.75 17.25 9.10051 17.25 12C17.25 14.8995 14.8995 17.25 12 17.25C9.10051 17.25 6.75 14.8995 6.75 12Z" fill="black"/>
<path fill-rule="evenodd" clip-rule="evenodd" d="M12 5.25C12.4142 5.25 12.75 5.58579 12.75 6V7.5C12.75 7.91421 12.4142 8.25 12 8.25C11.5858 8.25 11.25 7.91421 11.25 7.5V6C11.25 5.58579 11.5858 5.25 12 5.25Z" fill="black"/>
<path fill-rule="evenodd" clip-rule="evenodd" d="M12 15.75C12.4142 15.75 12.75 16.0858 12.75 16.5V18C12.75 18.4142 12.4142 18.75 12 18.75C11.5858 18.75 11.25 18.4142 11.25 18V16.5C11.25 16.0858 11.5858 15.75 12 15.75Z" fill="black"/>
<path fill-rule="evenodd" clip-rule="evenodd" d="M18.7498 12C18.7498 12.4142 18.414 12.75 17.9998 12.75H16.4998C16.0855 12.75 15.7498 12.4142 15.7498 12C15.7498 11.5858 16.0855 11.25 16.4998 11.25H17.9998C18.414 11.25 18.7498 11.5858 18.7498 12Z" fill="black"/>
<path fill-rule="evenodd" clip-rule="evenodd" d="M8.24976 12C8.24976 12.4142 7.91397 12.75 7.49976 12.75H5.99976C5.58554 12.75 5.24976 12.4142 5.24976 12C5.24976 11.5858 5.58554 11.25 5.99976 11.25H7.49976C7.91397 11.25 8.24976 11.5858 8.24976 12Z" fill="black"/>
<path fill-rule="evenodd" clip-rule="evenodd" d="M16.7728 7.22703C17.0657 7.51992 17.0657 7.9948 16.7728 8.28769L15.7121 9.34835C15.4192 9.64124 14.9443 9.64124 14.6514 9.34835C14.3585 9.05546 14.3585 8.58058 14.6514 8.28769L15.7121 7.22703C16.005 6.93414 16.4799 6.93414 16.7728 7.22703Z" fill="black"/>
<path fill-rule="evenodd" clip-rule="evenodd" d="M9.3482 14.6517C9.64109 14.9445 9.64109 15.4194 9.3482 15.7123L8.28754 16.773C7.99465 17.0659 7.51977 17.0659 7.22688 16.773C6.93399 16.4801 6.93399 16.0052 7.22688 15.7123L8.28754 14.6517C8.58043 14.3588 9.05531 14.3588 9.3482 14.6517Z" fill="black"/>
<path fill-rule="evenodd" clip-rule="evenodd" d="M16.7726 16.773C16.4798 17.0659 16.0049 17.0659 15.712 16.773L14.6513 15.7123C14.3584 15.4194 14.3584 14.9445 14.6513 14.6517C14.9442 14.3588 15.4191 14.3588 15.712 14.6517L16.7726 15.7123C17.0655 16.0052 17.0655 16.4801 16.7726 16.773Z" fill="black"/>
<path fill-rule="evenodd" clip-rule="evenodd" d="M9.34821 9.34834C9.05532 9.64123 8.58044 9.64123 8.28755 9.34834L7.22689 8.28768C6.934 7.99479 6.934 7.51991 7.22689 7.22702C7.51978 6.93412 7.99466 6.93412 8.28755 7.22702L9.34821 8.28768C9.6411 8.58057 9.6411 9.05545 9.34821 9.34834Z" fill="black"/>
</svg>
