<svg width="24" height="24" viewBox="0 0 24 24" fill="none" xmlns="http://www.w3.org/2000/svg">
<path fill-rule="evenodd" clip-rule="evenodd" d="M9.25012 5.5C8.83591 5.5 8.50012 5.83579 8.50012 6.25V16.75C8.50012 17.1642 8.83591 17.5 9.25012 17.5H15.2501C15.6643 17.5 16.0001 17.1642 16.0001 16.75V10.75H13.0001C12.1717 10.75 11.5001 10.0784 11.5001 9.25V5.5H9.25012ZM13.0001 6.17195V9.25H15.9992C15.9898 9.05481 15.9045 8.87042 15.7606 8.73675L13.0001 6.17195ZM7.00012 6.25C7.00012 5.00736 8.00748 4 9.25012 4H11.9823C12.5504 4 13.0975 4.21494 13.5138 4.60166L16.7816 7.63786C17.2398 8.06356 17.5001 8.66077 17.5001 9.2862V16.75C17.5001 17.9926 16.4928 19 15.2501 19H9.25012C8.00748 19 7.00012 17.9926 7.00012 16.75V6.25Z" fill="black"/>
</svg>
