<svg width="24" height="24" viewBox="0 0 24 24" fill="none" xmlns="http://www.w3.org/2000/svg">
<path fill-rule="evenodd" clip-rule="evenodd" d="M6 15C6.41421 15 6.75 15.3358 6.75 15.75V16.5C6.75 16.9142 7.08579 17.25 7.5 17.25H16.5C16.9142 17.25 17.25 16.9142 17.25 16.5V15.75C17.25 15.3358 17.5858 15 18 15C18.4142 15 18.75 15.3358 18.75 15.75V16.5C18.75 17.7426 17.7426 18.75 16.5 18.75H7.5C6.25736 18.75 5.25 17.7426 5.25 16.5V15.75C5.25 15.3358 5.58579 15 6 15Z" fill="black"/>
<path fill-rule="evenodd" clip-rule="evenodd" d="M8.46967 10.7197C8.76256 10.4268 9.23744 10.4268 9.53033 10.7197L12 13.1893L14.4697 10.7197C14.7626 10.4268 15.2374 10.4268 15.5303 10.7197C15.8232 11.0126 15.8232 11.4874 15.5303 11.7803L12.5303 14.7803C12.2374 15.0732 11.7626 15.0732 11.4697 14.7803L8.46967 11.7803C8.17678 11.4874 8.17678 11.0126 8.46967 10.7197Z" fill="black"/>
<path fill-rule="evenodd" clip-rule="evenodd" d="M12 5.25C12.4142 5.25 12.75 5.58579 12.75 6V13.875C12.75 14.2892 12.4142 14.625 12 14.625C11.5858 14.625 11.25 14.2892 11.25 13.875V6C11.25 5.58579 11.5858 5.25 12 5.25Z" fill="black"/>
</svg>
