<svg width="24" height="24" viewBox="0 0 24 24" fill="none" xmlns="http://www.w3.org/2000/svg">
<path d="M20.896 2H3.096C2.80459 2.00211 2.52583 2.11936 2.32052 2.32617C2.11521 2.53298 1.99999 2.81258 2 3.104V20.904C2.00211 21.1954 2.11936 21.4742 2.32617 21.6795C2.53298 21.8848 2.81258 22 3.104 22H12.684V14.266H10.084V11.238H12.684V9.012C12.684 6.43 14.262 5.012 16.566 5.012C17.3436 5.00869 18.1208 5.04875 18.894 5.132V7.84H17.294C16.044 7.84 15.802 8.44 15.802 9.31V11.238H18.8L18.4 14.266H15.8V22H20.896C21.1888 22 21.4696 21.8837 21.6766 21.6766C21.8837 21.4696 22 21.1888 22 20.896V3.096C21.9979 2.80459 21.8806 2.52583 21.6738 2.32052C21.467 2.11521 21.1874 1.99999 20.896 2V2Z" fill="black"/>
</svg>
