<svg width="24" height="24" viewBox="0 0 24 24" fill="none" xmlns="http://www.w3.org/2000/svg">
<path d="M19.1168 4H4.8768C4.64367 4.00169 4.42067 4.09549 4.25642 4.26094C4.09217 4.42638 3.99999 4.65007 4 4.8832V19.1232C4.00169 19.3563 4.09549 19.5793 4.26094 19.7436C4.42638 19.9078 4.65007 20 4.8832 20H12.5472V13.8128H10.4672V11.3904H12.5472V9.6096C12.5472 7.544 13.8096 6.4096 15.6528 6.4096C16.2749 6.40695 16.8967 6.439 17.5152 6.5056V8.672H16.2352C15.2352 8.672 15.0416 9.152 15.0416 9.848V11.3904H17.44L17.12 13.8128H15.04V20H19.1168C19.351 20 19.5757 19.9069 19.7413 19.7413C19.9069 19.5757 20 19.351 20 19.1168V4.8768C19.9983 4.64367 19.9045 4.42067 19.7391 4.25642C19.5736 4.09217 19.3499 3.99999 19.1168 4V4Z" fill="black"/>
</svg>
