<svg width="24" height="24" viewBox="0 0 24 24" fill="none" xmlns="http://www.w3.org/2000/svg">
<path fill-rule="evenodd" clip-rule="evenodd" d="M5.25 7.875C5.25 7.46079 5.58579 7.125 6 7.125H12C12.4142 7.125 12.75 7.46079 12.75 7.875C12.75 8.28921 12.4142 8.625 12 8.625H6C5.58579 8.625 5.25 8.28921 5.25 7.875Z" fill="black"/>
<path fill-rule="evenodd" clip-rule="evenodd" d="M15.375 7.875C15.375 7.46079 15.7108 7.125 16.125 7.125H18C18.4142 7.125 18.75 7.46079 18.75 7.875C18.75 8.28921 18.4142 8.625 18 8.625H16.125C15.7108 8.625 15.375 8.28921 15.375 7.875Z" fill="black"/>
<path fill-rule="evenodd" clip-rule="evenodd" d="M13.875 6.75C13.2537 6.75 12.75 7.25368 12.75 7.875C12.75 8.49632 13.2537 9 13.875 9C14.4963 9 15 8.49632 15 7.875C15 7.25368 14.4963 6.75 13.875 6.75ZM11.25 7.875C11.25 6.42525 12.4253 5.25 13.875 5.25C15.3247 5.25 16.5 6.42525 16.5 7.875C16.5 9.32475 15.3247 10.5 13.875 10.5C12.4253 10.5 11.25 9.32475 11.25 7.875Z" fill="black"/>
<path fill-rule="evenodd" clip-rule="evenodd" d="M11.25 16.125C11.25 15.7108 11.5858 15.375 12 15.375H18C18.4142 15.375 18.75 15.7108 18.75 16.125C18.75 16.5392 18.4142 16.875 18 16.875H12C11.5858 16.875 11.25 16.5392 11.25 16.125Z" fill="black"/>
<path fill-rule="evenodd" clip-rule="evenodd" d="M5.25 16.125C5.25 15.7108 5.58579 15.375 6 15.375H7.875C8.28921 15.375 8.625 15.7108 8.625 16.125C8.625 16.5392 8.28921 16.875 7.875 16.875H6C5.58579 16.875 5.25 16.5392 5.25 16.125Z" fill="black"/>
<path fill-rule="evenodd" clip-rule="evenodd" d="M10.125 15C10.7463 15 11.25 15.5037 11.25 16.125C11.25 16.7463 10.7463 17.25 10.125 17.25C9.50368 17.25 9 16.7463 9 16.125C9 15.5037 9.50368 15 10.125 15ZM12.75 16.125C12.75 14.6753 11.5747 13.5 10.125 13.5C8.67525 13.5 7.5 14.6753 7.5 16.125C7.5 17.5747 8.67525 18.75 10.125 18.75C11.5747 18.75 12.75 17.5747 12.75 16.125Z" fill="black"/>
</svg>
