<svg width="24" height="24" viewBox="0 0 24 24" fill="none" xmlns="http://www.w3.org/2000/svg">
<path fill-rule="evenodd" clip-rule="evenodd" d="M14.25 6C14.6642 6 15 6.33579 15 6.75V8.99976H18.75C19.1642 8.99976 19.5 9.33554 19.5 9.74976C19.5 10.164 19.1642 10.4998 18.75 10.4998H14.25C13.8358 10.4998 13.5 10.164 13.5 9.74976V6.75C13.5 6.33579 13.8358 6 14.25 6Z" fill="black"/>
<path fill-rule="evenodd" clip-rule="evenodd" d="M13.5 14.25C13.5 13.8358 13.8358 13.5 14.25 13.5H18.75C19.1642 13.5 19.5 13.8358 19.5 14.25C19.5 14.6642 19.1642 15 18.75 15H15V17.25C15 17.6642 14.6642 18 14.25 18C13.8358 18 13.5 17.6642 13.5 17.25V14.25Z" fill="black"/>
<path fill-rule="evenodd" clip-rule="evenodd" d="M4.5 14.25C4.5 13.8358 4.83579 13.5 5.25 13.5H9.74996C10.1642 13.5 10.5 13.8358 10.5 14.25V17.25C10.5 17.6642 10.1642 18 9.74996 18C9.33574 18 8.99996 17.6642 8.99996 17.25V15H5.25C4.83579 15 4.5 14.6642 4.5 14.25Z" fill="black"/>
<path fill-rule="evenodd" clip-rule="evenodd" d="M9.75011 6C10.1643 6 10.5001 6.33579 10.5001 6.75V9.75014C10.5001 10.1644 10.1643 10.5001 9.75011 10.5001H5.25C4.83579 10.5001 4.5 10.1644 4.5 9.75014C4.5 9.33593 4.83579 9.00014 5.25 9.00014H9.00011V6.75C9.00011 6.33579 9.3359 6 9.75011 6Z" fill="black"/>
</svg>
