<svg width="24" height="24" viewBox="0 0 24 24" fill="none" xmlns="http://www.w3.org/2000/svg">
<path fill-rule="evenodd" clip-rule="evenodd" d="M5.25 13.5C5.66421 13.5 6 13.8358 6 14.25V16.4998H9.75C10.1642 16.4998 10.5 16.8355 10.5 17.2498C10.5 17.664 10.1642 17.9998 9.75 17.9998H5.25C4.83579 17.9998 4.5 17.664 4.5 17.2498V14.25C4.5 13.8358 4.83579 13.5 5.25 13.5Z" fill="black"/>
<path fill-rule="evenodd" clip-rule="evenodd" d="M4.5 6.75C4.5 6.33579 4.83579 6 5.25 6H9.75C10.1642 6 10.5 6.33579 10.5 6.75C10.5 7.16421 10.1642 7.5 9.75 7.5H6V9.75C6 10.1642 5.66421 10.5 5.25 10.5C4.83579 10.5 4.5 10.1642 4.5 9.75V6.75Z" fill="black"/>
<path fill-rule="evenodd" clip-rule="evenodd" d="M13.5 6.75C13.5 6.33579 13.8358 6 14.25 6H18.75C19.1642 6 19.5 6.33579 19.5 6.75V9.75C19.5 10.1642 19.1642 10.5 18.75 10.5C18.3357 10.5 18 10.1642 18 9.75V7.5H14.25C13.8358 7.5 13.5 7.16421 13.5 6.75Z" fill="black"/>
<path fill-rule="evenodd" clip-rule="evenodd" d="M18.7501 13.5C19.1643 13.5 19.5001 13.8358 19.5001 14.25V17.2501C19.5001 17.6644 19.1643 18.0001 18.7501 18.0001H14.25C13.8358 18.0001 13.5 17.6644 13.5 17.2501C13.5 16.8359 13.8358 16.5001 14.25 16.5001H18.0001V14.25C18.0001 13.8358 18.3359 13.5 18.7501 13.5Z" fill="black"/>
</svg>
