<svg width="24" height="24" viewBox="0 0 24 24" fill="none" xmlns="http://www.w3.org/2000/svg">
<g clip-path="url(#clip0)">
<path d="M4.00312 12.0907C3.90356 9.46941 6.19954 7.04706 8.82342 7.01564C10.1607 6.90157 11.4618 7.4209 12.4739 8.26791C12.0587 8.72438 11.6363 9.17557 11.1851 9.59798C10.2941 9.05668 9.22143 8.64416 8.18014 9.01052C6.50063 9.48875 5.48352 11.4718 6.10504 13.1148C6.61975 14.8308 8.70694 15.7725 10.3427 15.0517C11.1897 14.7484 11.7482 13.9669 11.9932 13.1271C11.0225 13.1078 10.0515 13.1199 9.08078 13.093C9.07836 12.5155 9.07594 11.9401 9.07836 11.3625C10.6972 11.3601 12.3185 11.3553 13.9398 11.3698C14.0393 12.7849 13.8305 14.2994 12.9106 15.4352C11.6508 17.0564 9.32341 17.5323 7.43006 16.8962C5.42066 16.2362 3.95939 14.2119 4.00312 12.0907Z" fill="#000"/>
<path d="M17.0946 9.90625C17.5752 9.90625 18.0556 9.90625 18.5385 9.90625C18.5411 10.3893 18.5457 10.8748 18.5484 11.3576C19.0312 11.3625 19.5167 11.3649 19.9997 11.3673C19.9997 11.8504 19.9997 12.3308 19.9997 12.8139C19.5169 12.8163 19.0314 12.8187 18.5484 12.8211C18.5435 13.3066 18.5411 13.7894 18.5385 14.2749C18.0556 14.2725 17.5723 14.2749 17.0919 14.2749C17.0873 13.7894 17.0873 13.3066 17.0822 12.8235C16.5994 12.8185 16.1139 12.8163 15.6309 12.8136C15.6309 12.3306 15.6309 11.8501 15.6309 11.3671C16.1139 11.3647 16.597 11.3623 17.0822 11.3574C17.0847 10.8748 17.0895 10.3893 17.0946 9.90625Z" fill="#000"/>
</g>
<defs>
<clipPath id="clip0">
<rect width="24" height="24" fill="#000"/>
</clipPath>
</defs>
</svg>
