<svg width="24" height="24" viewBox="0 0 24 24" fill="none" xmlns="http://www.w3.org/2000/svg">
<g clip-path="url(#clip0)">
<path d="M12 23.999C18.6274 23.999 24 18.6264 24 11.999C24 5.37161 18.6274 -0.000976562 12 -0.000976562C5.37258 -0.000976562 0 5.37161 0 11.999C0 18.6264 5.37258 23.999 12 23.999Z" fill="transparent"/>
<path d="M4.00312 12.0914C3.95939 14.2127 5.42044 16.237 7.43028 16.8972C9.32341 17.5332 11.651 17.0574 12.9108 15.4362C13.8305 14.3001 14.0395 12.7857 13.94 11.3708C12.3187 11.3563 10.6974 11.3611 9.07858 11.3635C9.07594 11.9411 9.07858 12.5165 9.081 13.094C10.0517 13.1208 11.0227 13.1085 11.9934 13.1281C11.7484 13.9678 11.1902 14.7494 10.3429 15.0526C8.70716 15.7735 6.61997 14.8318 6.10526 13.1158C5.48396 11.4725 6.50107 9.48951 8.18036 9.0115C9.22165 8.64514 10.2944 9.05765 11.1853 9.59896C11.6367 9.17655 12.0592 8.72514 12.4741 8.26888C11.4618 7.42188 10.161 6.90255 8.82364 7.01661C6.19976 7.04782 3.90356 9.47017 4.00312 12.0914Z" fill="transparent"/>
<path d="M17.0946 9.90625C17.0897 10.3893 17.0847 10.8748 17.0822 11.3576C16.5968 11.3625 16.1139 11.3649 15.6309 11.3673C15.6309 11.8504 15.6309 12.3308 15.6309 12.8139C16.1139 12.8163 16.5994 12.8187 17.0822 12.8237C17.0871 13.3068 17.0871 13.7897 17.0919 14.2751C17.5726 14.2751 18.0556 14.2727 18.5385 14.2751C18.5411 13.7897 18.5433 13.3068 18.5484 12.8213C19.0312 12.8189 19.5167 12.8165 19.9997 12.8141C19.9997 12.331 19.9997 11.8506 19.9997 11.3675C19.5169 11.3651 19.0314 11.3627 18.5484 11.3579C18.5457 10.8748 18.5411 10.3893 18.5385 9.90647C18.0556 9.90625 17.575 9.90625 17.0946 9.90625Z" fill="transparent"/>
<path d="M4.00312 12.0907C3.90356 9.46941 6.19954 7.04706 8.82342 7.01564C10.1607 6.90157 11.4618 7.4209 12.4739 8.26791C12.0587 8.72438 11.6363 9.17557 11.1851 9.59798C10.2941 9.05668 9.22143 8.64416 8.18014 9.01052C6.50063 9.48875 5.48352 11.4718 6.10504 13.1148C6.61975 14.8308 8.70694 15.7725 10.3427 15.0517C11.1897 14.7484 11.7482 13.9669 11.9932 13.1271C11.0225 13.1078 10.0515 13.1199 9.08078 13.093C9.07836 12.5155 9.07594 11.9401 9.07836 11.3625C10.6972 11.3601 12.3185 11.3553 13.9398 11.3698C14.0393 12.7849 13.8305 14.2994 12.9106 15.4352C11.6508 17.0564 9.32341 17.5323 7.43006 16.8962C5.42066 16.2362 3.95939 14.2119 4.00312 12.0907Z" fill="#000"/>
<path d="M17.0946 9.90625C17.5752 9.90625 18.0556 9.90625 18.5385 9.90625C18.5411 10.3893 18.5457 10.8748 18.5484 11.3576C19.0312 11.3625 19.5167 11.3649 19.9997 11.3673C19.9997 11.8504 19.9997 12.3308 19.9997 12.8139C19.5169 12.8163 19.0314 12.8187 18.5484 12.8211C18.5435 13.3066 18.5411 13.7894 18.5385 14.2749C18.0556 14.2725 17.5723 14.2749 17.0919 14.2749C17.0873 13.7894 17.0873 13.3066 17.0822 12.8235C16.5994 12.8185 16.1139 12.8163 15.6309 12.8136C15.6309 12.3306 15.6309 11.8501 15.6309 11.3671C16.1139 11.3647 16.597 11.3623 17.0822 11.3574C17.0847 10.8748 17.0895 10.3893 17.0946 9.90625Z" fill="#000"/>
</g>
<defs>
<clipPath id="clip0">
<rect width="24" height="24" fill="#000"/>
</clipPath>
</defs>
</svg>
