<svg width="24" height="24" viewBox="0 0 24 24" fill="none" xmlns="http://www.w3.org/2000/svg">
<path d="M19.2814 14.7448C18.9065 16.0102 18.2503 17.1819 17.2661 18.0723C16.3288 18.9159 15.204 19.4783 13.9855 19.7595C12.6264 20.0876 11.2204 20.0876 9.9081 19.7127C8.87704 19.4315 7.84598 18.9159 7.00238 18.2598C6.11192 17.5568 5.36206 16.6195 4.84653 15.5884C4.0498 13.9949 3.81546 12.1672 4.14353 10.4331C4.28413 9.7301 4.51846 9.07397 4.84653 8.41784C5.78385 6.59005 7.42418 5.13719 9.39257 4.43419C11.1266 3.82493 13.0482 3.87179 14.7822 4.48106C15.7195 4.80912 16.61 5.37152 17.3599 6.07452C17.1255 6.35571 16.8443 6.59005 16.5631 6.87124C16.0945 7.33991 15.5789 7.85544 15.1103 8.3241C14.6416 7.85544 14.0323 7.52738 13.3762 7.29304C12.6264 7.05871 11.7828 7.01184 11.0329 7.19931C10.1424 7.38678 9.29884 7.85544 8.64271 8.51157C8.12718 9.0271 7.70538 9.68323 7.47105 10.3862C7.14298 11.3704 7.14298 12.4952 7.47105 13.4794C7.79911 14.4636 8.45524 15.3541 9.29884 15.9165C9.81437 16.2914 10.4236 16.5726 11.0798 16.6663C11.689 16.8069 12.3452 16.7601 13.0013 16.6663C13.6106 16.5726 14.2198 16.3383 14.7822 15.9633C15.6258 15.4009 16.2351 14.5105 16.3757 13.4794C14.9228 13.4794 13.47 13.4794 12.0171 13.4794C12.0171 12.4484 12.0171 11.4173 12.0171 10.3862C14.501 10.3862 17.0318 10.3862 19.5157 10.3862C19.7501 11.886 19.6563 13.3388 19.2814 14.7448Z" fill="black"/>
</svg>
