<svg width="24" height="24" viewBox="0 0 24 24" fill="none" xmlns="http://www.w3.org/2000/svg">
<path fill-rule="evenodd" clip-rule="evenodd" d="M5.25 6.75C5.25 6.33579 5.58579 6 6 6H18C18.4142 6 18.75 6.33579 18.75 6.75C18.75 7.16421 18.4142 7.5 18 7.5H6C5.58579 7.5 5.25 7.16421 5.25 6.75ZM5.25 12C5.25 11.5858 5.58579 11.25 6 11.25H18C18.4142 11.25 18.75 11.5858 18.75 12C18.75 12.4142 18.4142 12.75 18 12.75H6C5.58579 12.75 5.25 12.4142 5.25 12ZM5.25 17.25C5.25 16.8358 5.58579 16.5 6 16.5H18C18.4142 16.5 18.75 16.8358 18.75 17.25C18.75 17.6642 18.4142 18 18 18H6C5.58579 18 5.25 17.6642 5.25 17.25Z" fill="black"/>
</svg>
