<svg width="24" height="24" viewBox="0 0 24 24" fill="none" xmlns="http://www.w3.org/2000/svg">
<path d="M12 5.77441C8.69154 5.77441 6 8.46596 6 11.7744C6 15.0829 8.69154 17.7744 12 17.7744C15.3085 17.7744 18 15.0829 18 11.7744C18 8.46596 15.3085 5.77441 12 5.77441ZM12.617 15.1259H11.2803V13.8783H12.617V15.1259ZM13.4854 11.7422C13.0909 12.0358 12.6692 12.2743 12.5868 12.8151V13.1639H11.3489V12.7513C11.4037 11.9532 11.7797 11.5958 12.1465 11.3115C12.5041 11.0274 12.8159 10.8166 12.8159 10.3212C12.8159 9.76169 12.5226 9.49586 12.0367 9.49586C11.3767 9.49586 11.1015 10.0368 11.0921 10.688H9.74413C9.7718 9.37677 10.6337 8.42307 11.9723 8.42307C13.7054 8.42307 14.2559 9.48681 14.2559 10.1925C14.2559 11.0822 13.8799 11.4399 13.4854 11.7422Z" fill="black"/>
</svg>
