<svg width="24" height="25" viewBox="0 0 24 25" fill="none" xmlns="http://www.w3.org/2000/svg">
<path fill-rule="evenodd" clip-rule="evenodd" d="M12 6.84878C8.99312 6.84878 6.55556 9.26665 6.55556 12.2492C6.55556 15.2318 8.99312 17.6497 12 17.6497C15.0069 17.6497 17.4444 15.2318 17.4444 12.2492C17.4444 9.26665 15.0069 6.84878 12 6.84878ZM5 12.2492C5 8.41448 8.13401 5.30579 12 5.30579C15.866 5.30579 19 8.41448 19 12.2492C19 16.084 15.866 19.1927 12 19.1927C8.13401 19.1927 5 16.084 5 12.2492Z" fill="black"/>
<path fill-rule="evenodd" clip-rule="evenodd" d="M12.0001 11.8773C12.4143 11.8773 12.7501 12.2104 12.7501 12.6212V14.4811C12.7501 14.8919 12.4143 15.225 12.0001 15.225C11.5859 15.225 11.2501 14.8919 11.2501 14.4811V12.6212C11.2501 12.2104 11.5859 11.8773 12.0001 11.8773Z" fill="black"/>
<path d="M12.7501 10.0174C12.7501 10.4283 12.4143 10.7614 12.0001 10.7614C11.5859 10.7614 11.2501 10.4283 11.2501 10.0174C11.2501 9.60657 11.5859 9.2735 12.0001 9.2735C12.4143 9.2735 12.7501 9.60657 12.7501 10.0174Z" fill="black"/>
</svg>
