<svg width="24" height="24" viewBox="0 0 24 24" fill="none" xmlns="http://www.w3.org/2000/svg">
<path fill-rule="evenodd" clip-rule="evenodd" d="M12 4C9.82733 4 9.5549 4.00921 8.70161 4.04814C7.8501 4.08698 7.26855 4.22223 6.7597 4.42001C6.23363 4.62442 5.78748 4.89797 5.34271 5.34271C4.89797 5.78748 4.62442 6.23363 4.42001 6.7597C4.22223 7.26855 4.08698 7.8501 4.04814 8.70161C4.00921 9.5549 4 9.82733 4 12C4 14.1727 4.00921 14.4451 4.04814 15.2984C4.08698 16.1499 4.22223 16.7314 4.42001 17.2403C4.62442 17.7664 4.89797 18.2125 5.34271 18.6573C5.78748 19.102 6.23363 19.3756 6.7597 19.58C7.26855 19.7778 7.8501 19.913 8.70161 19.9519C9.5549 19.9908 9.82733 20 12 20C14.1727 20 14.4451 19.9908 15.2984 19.9519C16.1499 19.913 16.7314 19.7778 17.2403 19.58C17.7664 19.3756 18.2125 19.102 18.6573 18.6573C19.102 18.2125 19.3756 17.7664 19.58 17.2403C19.7778 16.7314 19.913 16.1499 19.9519 15.2984C19.9908 14.4451 20 14.1727 20 12C20 9.82733 19.9908 9.5549 19.9519 8.70161C19.913 7.8501 19.7778 7.26855 19.58 6.7597C19.3756 6.23363 19.102 5.78748 18.6573 5.34271C18.2125 4.89797 17.7664 4.62442 17.2403 4.42001C16.7314 4.22223 16.1499 4.08698 15.2984 4.04814C14.4451 4.00921 14.1727 4 12 4ZM11.9995 5.44163C14.1355 5.44163 14.3886 5.44979 15.2321 5.48828C16.0121 5.52385 16.4357 5.65417 16.7176 5.76373C17.0911 5.90886 17.3575 6.08221 17.6375 6.36218C17.9174 6.64211 18.0908 6.9086 18.2359 7.28202C18.3455 7.56392 18.4758 7.98751 18.5114 8.76751C18.5499 9.61107 18.558 9.86411 18.558 12.0002C18.558 14.1363 18.5499 14.3893 18.5114 15.2329C18.4758 16.0129 18.3455 16.4365 18.2359 16.7184C18.0908 17.0918 17.9174 17.3583 17.6375 17.6382C17.3575 17.9182 17.0911 18.0915 16.7176 18.2367C16.4357 18.3462 16.0121 18.4765 15.2321 18.5121C14.3887 18.5506 14.1357 18.5588 11.9995 18.5588C9.86322 18.5588 9.61025 18.5506 8.76677 18.5121C7.98678 18.4765 7.56319 18.3462 7.28129 18.2367C6.90787 18.0915 6.64137 17.9182 6.36144 17.6382C6.08151 17.3583 5.90813 17.0918 5.763 16.7184C5.65344 16.4365 5.52312 16.0129 5.48755 15.2329C5.44906 14.3893 5.4409 14.1363 5.4409 12.0002C5.4409 9.86411 5.44906 9.61107 5.48755 8.76751C5.52312 7.98751 5.65344 7.56392 5.763 7.28202C5.90813 6.9086 6.08148 6.64211 6.36144 6.36218C6.64137 6.08221 6.90787 5.90886 7.28129 5.76373C7.56319 5.65417 7.98678 5.52385 8.76677 5.48828C9.61034 5.44979 9.86337 5.44163 11.9995 5.44163Z" fill="black"/>
<path fill-rule="evenodd" clip-rule="evenodd" d="M16.27 8.68941C16.8002 8.68941 17.23 8.25963 17.23 7.72943C17.23 7.19923 16.8002 6.76941 16.27 6.76941C15.7398 6.76941 15.31 7.19923 15.31 7.72943C15.31 8.25963 15.7398 8.68941 16.27 8.68941ZM9.3325 11.9996C9.3325 13.4724 10.5264 14.6663 11.9992 14.6663C13.4719 14.6663 14.6658 13.4724 14.6658 11.9996C14.6658 10.5268 13.4719 9.33294 11.9992 9.33294C10.5264 9.33294 9.3325 10.5268 9.3325 11.9996ZM7.8916 11.9998C7.8916 9.7309 9.73085 7.89165 11.9997 7.89165C14.2686 7.89165 16.1078 9.7309 16.1078 11.9998C16.1078 14.2686 14.2686 16.1079 11.9997 16.1079C9.73085 16.1079 7.8916 14.2686 7.8916 11.9998Z" fill="black"/>
</svg>
