<svg width="50" height="50" viewBox="0 0 50 50" fill="none" xmlns="http://www.w3.org/2000/svg">
<path fill-rule="evenodd" clip-rule="evenodd" d="M32.5174 14.7144H18.3285C16.3206 14.7144 14.7144 16.3206 14.7144 18.3285V32.6512C14.7144 34.6591 16.3206 36.2654 18.3285 36.2654H32.6512C34.6591 36.2654 36.2654 34.6591 36.2654 32.6512V18.3285C36.1315 16.3206 34.5252 14.7144 32.5174 14.7144ZM21.5413 24.085H29.305C29.4389 24.4866 29.5727 25.022 29.5727 25.4236C29.5727 27.6991 27.6987 29.4393 25.557 29.4393C23.2815 29.4393 21.5413 27.5653 21.5413 25.4236C21.4075 25.022 21.4075 24.4866 21.5413 24.085ZM33.4545 24.085V32.1164C33.4545 32.7857 32.7852 33.455 32.1159 33.455H18.7302C17.927 33.455 17.3916 32.7857 17.3916 32.1164V24.085H19.5333C19.3995 24.4866 19.3995 25.022 19.3995 25.4236C19.3995 28.77 22.0766 31.4471 25.423 31.4471C28.7695 31.4471 31.4466 28.77 31.4466 25.4236C31.4466 25.022 31.4466 24.4866 31.3128 24.085H33.4545ZM33.4545 19.4003C33.4545 19.8018 33.1868 20.0695 32.7852 20.0695H31.4466C31.0451 20.0695 30.7773 19.8018 30.7773 19.4003V18.0617C30.7773 17.6601 31.0451 17.3924 31.4466 17.3924H32.7852C33.1868 17.3924 33.4545 17.6601 33.4545 18.0617V19.4003Z" fill="#000000"/>
</svg>
