<svg width="50" height="50" viewBox="0 0 50 50" fill="none" xmlns="http://www.w3.org/2000/svg">
<path fill-rule="evenodd" clip-rule="evenodd" d="M32.5174 14.7143H18.3285C16.3206 14.7143 14.7144 16.3206 14.7144 18.3284V32.6512C14.7144 34.659 16.3206 36.2653 18.3285 36.2653H32.6512C34.6591 36.2653 36.2654 34.659 36.2654 32.6512V18.3284C36.1315 16.3206 34.5252 14.7143 32.5174 14.7143ZM21.5413 24.0849H29.305C29.4389 24.4865 29.5727 25.0219 29.5727 25.4235C29.5727 27.6991 27.6987 29.4392 25.557 29.4392C23.2815 29.4392 21.5413 27.5652 21.5413 25.4235C21.4075 25.0219 21.4075 24.4865 21.5413 24.0849ZM33.4545 24.0849V32.1164C33.4545 32.7856 32.7852 33.4549 32.1159 33.4549H18.7302C17.927 33.4549 17.3916 32.7856 17.3916 32.1164V24.0849H19.5333C19.3995 24.4865 19.3995 25.0219 19.3995 25.4235C19.3995 28.7699 22.0766 31.4471 25.423 31.4471C28.7695 31.4471 31.4466 28.7699 31.4466 25.4235C31.4466 25.0219 31.4466 24.4865 31.3128 24.0849H33.4545ZM33.4545 19.4002C33.4545 19.8017 33.1868 20.0695 32.7852 20.0695H31.4466C31.0451 20.0695 30.7773 19.8017 30.7773 19.4002V18.0616C30.7773 17.66 31.0451 17.3923 31.4466 17.3923H32.7852C33.1868 17.3923 33.4545 17.66 33.4545 18.0616V19.4002Z" fill="#000"/>
</svg>
