<svg width="24" height="24" viewBox="0 0 24 24" fill="none" xmlns="http://www.w3.org/2000/svg">
<path fill-rule="evenodd" clip-rule="evenodd" d="M9.15976 5.42857C8.82099 5.42857 8.50888 5.69689 8.50888 6.07143V6.5C8.50888 6.89449 8.16448 7.21429 7.73965 7.21429C7.31481 7.21429 6.97041 6.89449 6.97041 6.5V6.07143C6.97041 4.94691 7.92992 4 9.15976 4H19.8107C21.0405 4 22 4.94691 22 6.07143V12.1786C22 13.3031 21.0405 14.25 19.8107 14.25H19.3077C18.8829 14.25 18.5385 13.9302 18.5385 13.5357C18.5385 13.1412 18.8829 12.8214 19.3077 12.8214H19.8107C20.1494 12.8214 20.4615 12.5531 20.4615 12.1786V6.07143C20.4615 5.69689 20.1494 5.42857 19.8107 5.42857H9.15976ZM2 10.8214C2 9.69691 2.95951 8.75 4.18935 8.75H14.8402C16.0701 8.75 17.0296 9.69691 17.0296 10.8214V16.9286C17.0296 18.0531 16.0701 19 14.8402 19H4.18935C2.95951 19 2 18.0531 2 16.9286V10.8214ZM4.18935 10.1786C3.85057 10.1786 3.53846 10.4469 3.53846 10.8214V16.9286C3.53846 17.3031 3.85057 17.5714 4.18935 17.5714H14.8402C15.179 17.5714 15.4911 17.3031 15.4911 16.9286V10.8214C15.4911 10.4469 15.179 10.1786 14.8402 10.1786H4.18935Z" fill="black"/>
</svg>
