<svg width="24" height="24" viewBox="0 0 24 24" fill="none" xmlns="http://www.w3.org/2000/svg">
<path d="M5.18412 13.7588H5.18414H8.10437V13.7588L8.11173 13.7588L9.0073 13.75L9.74994 13.7427V13V11.5225V10.5108C9.74994 10.2691 9.94215 10.0821 10.1841 10.0821H11.1052H13.4605H14.2044L14.2104 9.33815L14.2113 9.23464H14.2113V9.22854V8.55471H14.2113L14.2113 8.54791L14.208 8.18945L14.208 8.18853L14.2055 6.17786C14.2055 6.17783 14.2055 6.17781 14.2055 6.17778C14.2053 5.93759 14.397 5.75 14.6397 5.75H18.8157C19.0577 5.75 19.2499 5.93702 19.2499 6.17871V8.18945V14.8438V17.8213C19.2499 18.063 19.0577 18.25 18.8157 18.25H15.8947H13.4605H10.5394H8.1052H5.18415C4.94215 18.25 4.74994 18.063 4.74994 17.8213V14.1875C4.74994 13.9458 4.94215 13.7588 5.18412 13.7588Z" stroke="black" stroke-width="1.5"/>
</svg>
