<svg width="24" height="24" viewBox="0 0 24 24" fill="none" xmlns="http://www.w3.org/2000/svg">
<path d="M5.64039 18.3595C4.29782 17.0169 4.29782 14.8343 5.64039 13.4917L8.78089 10.3512L7.28915 8.85947L4.14865 12C1.9817 14.1669 1.9817 17.6843 4.14865 19.8512C6.3156 22.0182 9.83296 22.0182 11.9999 19.8512L15.1404 16.7107L13.6487 15.219L10.5082 18.3595C9.16561 19.7021 6.98295 19.7021 5.64039 18.3595ZM9.64453 15.9256L15.9255 9.64459L14.3553 8.07434L8.07428 14.3554L9.64453 15.9256ZM11.9999 4.14871L8.85941 7.28922L10.3511 8.78096L13.4917 5.64045C14.8342 4.29788 17.0169 4.29788 18.3594 5.64045C19.702 6.98302 19.702 9.16567 18.3594 10.5082L15.2189 13.6487L16.7107 15.1405L19.8512 12C22.0181 9.83302 22.0181 6.31566 19.8512 4.14871C17.6842 1.98176 14.1669 1.98176 11.9999 4.14871Z" fill="black"/>
</svg>
