<svg width="24" height="24" viewBox="0 0 24 24" fill="none" xmlns="http://www.w3.org/2000/svg">
<path d="M4 17.2C4 16.5373 4.53726 16 5.2 16C5.86274 16 6.4 16.5373 6.4 17.2C6.4 17.8627 5.86274 18.4 5.2 18.4C4.53726 18.4 4 17.8627 4 17.2Z" fill="black"/>
<path d="M4 11.92C4 11.2572 4.53726 10.72 5.2 10.72C5.86274 10.72 6.4 11.2572 6.4 11.92C6.4 12.5827 5.86274 13.12 5.2 13.12C4.53726 13.12 4 12.5827 4 11.92Z" fill="black"/>
<path fill-rule="evenodd" clip-rule="evenodd" d="M4 6.79998C4 6.13723 4.53726 5.59998 5.2 5.59998C5.86274 5.59998 6.4 6.13723 6.4 6.79998C6.4 7.46272 5.86274 7.99998 5.2 7.99998C4.53726 7.99998 4 7.46272 4 6.79998Z" fill="black"/>
<path fill-rule="evenodd" clip-rule="evenodd" d="M9.59998 17.2C9.59998 16.7582 9.95815 16.4 10.4 16.4L19.2 16.4C19.6418 16.4 20 16.7582 20 17.2C20 17.6419 19.6418 18 19.2 18L10.4 18C9.95815 18 9.59998 17.6419 9.59998 17.2Z" fill="black"/>
<path fill-rule="evenodd" clip-rule="evenodd" d="M9.59998 6.8C9.59998 6.35817 9.95815 6 10.4 6L19.2 6C19.6418 6 20 6.35817 20 6.8C20 7.24183 19.6418 7.6 19.2 7.6L10.4 7.6C9.95815 7.6 9.59998 7.24183 9.59998 6.8Z" fill="black"/>
<path fill-rule="evenodd" clip-rule="evenodd" d="M9.59998 12C9.59998 11.5582 9.95815 11.2 10.4 11.2L19.2 11.2C19.6418 11.2 20 11.5582 20 12C20 12.4418 19.6418 12.8 19.2 12.8L10.4 12.8C9.95815 12.8 9.59998 12.4418 9.59998 12Z" fill="black"/>
</svg>
