<svg fill="none" height="14" viewBox="0 0 12 14" width="12" xmlns="http://www.w3.org/2000/svg"><g fill="#000"><path d="m.75 13v-6h5.25 5.25v6z"/><g clip-rule="evenodd" fill-rule="evenodd"><path d="m0 7c0-.41421.335786-.75.75-.75h10.5c.4142 0 .75.33579.75.75v6c0 .4142-.3358.75-.75.75h-10.5c-.414214 0-.75-.3358-.75-.75zm1.5.75v4.5h9v-4.5z"/><path d="m6 1.75c-1.61199 0-3 1.40874-3 3.25v1.25h-1.5v-1.25c0-2.57702 1.96986-4.75 4.5-4.75s4.5 2.17298 4.5 4.75v1.25h-1.5v-1.25c0-1.84126-1.38801-3.25-3-3.25z"/></g></g></svg>
