<svg width="110" height="15" viewBox="0 0 110 15" fill="none" xmlns="http://www.w3.org/2000/svg">
<g clip-path="url(#clip0)">
<path d="M13.048 3.619L9.121 14.695H8.064L3.891 3.619L2.861 12.159C2.835 12.317 2.817 12.546 2.817 12.652C2.817 13.683 3.266 13.894 4.78 13.973V14.695H0V13.973C1.179 13.911 1.576 13.683 1.699 12.758L3.002 2.457C3.143 1.339 2.606 1.013 1.241 0.925V0.229H5.916C5.96 0.679 6.057 1.031 6.224 1.488L9.596 10.477L12.722 1.461C12.889 1.012 13.012 0.678 13.048 0.228H17.643V0.924C16.314 1.012 15.777 1.338 15.927 2.456L17.186 12.757C17.309 13.726 17.741 13.911 18.885 13.972V14.694H12.203V13.972C13.629 13.893 14.122 13.682 14.122 12.651C14.122 12.528 14.104 12.317 14.087 12.158L13.048 3.619ZM27.953 12.405C27.953 13.109 28.12 13.559 28.64 13.559C28.948 13.559 29.239 13.462 29.467 13.357L29.59 13.806C28.991 14.51 28.208 14.906 27.257 14.906C26.113 14.906 25.391 14.219 25.188 13.083C24.527 13.955 23.453 14.862 21.939 14.862C20.284 14.862 19.192 13.85 19.192 12.194C19.192 10.442 20.451 9.693 22.001 9.139L25.126 8.004V6.26C25.126 5.063 24.729 4.218 23.673 4.218C22.705 4.218 22.124 4.464 21.816 4.896C22.459 5.046 22.828 5.556 22.828 6.199C22.828 7.089 22.212 7.67 21.261 7.67C20.372 7.67 19.809 7.089 19.809 6.182C19.809 4.448 21.587 3.576 23.903 3.576C26.527 3.576 27.953 4.527 27.953 6.966V12.405ZM25.127 12.59V8.76L23.348 9.464C22.477 9.816 21.922 10.274 21.922 11.427C21.922 12.51 22.415 13.249 23.533 13.249C24.132 13.25 24.546 13.022 25.127 12.59ZM29.925 13.894L29.793 11.041H30.559C31.017 12.837 32.047 14.184 33.64 14.184C34.759 14.184 35.586 13.665 35.586 12.528C35.586 11.41 34.838 10.979 33.209 10.398C31.016 9.632 29.881 8.76 29.881 6.858C29.881 4.772 31.448 3.574 33.702 3.574C35.049 3.574 36.185 3.909 37.074 4.464V6.965H36.37C36.018 5.494 35.173 4.28 33.702 4.28C32.654 4.28 32.029 4.896 32.029 5.812C32.029 6.736 32.672 7.195 34.265 7.793C36.493 8.559 37.795 9.404 37.795 11.429C37.795 13.622 36.167 14.907 33.622 14.907C32.047 14.906 30.77 14.492 29.925 13.894ZM42.243 3.76H44.937V4.693H42.243V11.551C42.243 12.792 42.718 13.33 43.695 13.33C44.25 13.33 44.708 13.144 45.219 12.775L45.492 13.127C44.832 14.157 43.792 14.906 42.287 14.906C40.614 14.906 39.373 14.017 39.373 11.701V4.693H38.088V4.253C39.514 3.592 40.711 2.457 41.601 1.092H42.244L42.243 3.76ZM54.736 7.871V8.346H48.01C47.931 11.225 49.401 12.959 51.426 12.959C52.834 12.959 53.759 12.343 54.508 11.269L54.816 11.454C54.297 13.497 52.791 14.905 50.431 14.905C47.438 14.905 45.431 12.695 45.431 9.525C45.431 6.012 47.703 3.573 50.52 3.573C53.283 3.575 54.736 5.397 54.736 7.871ZM48.071 7.607H52.165C52.165 5.644 51.654 4.323 50.307 4.323C48.943 4.323 48.221 5.705 48.071 7.607ZM75.549 1.242L75.593 4.544H74.783C74.308 2.167 73.093 0.89 71.085 0.89C68.25 0.89 66.947 3.716 66.947 7.238C66.947 11.076 68.461 14.017 71.27 14.017C73.216 14.017 74.536 12.793 75.241 9.799H76.086L75.76 13.682C74.563 14.448 72.943 14.905 71.006 14.905C66.515 14.905 63.743 12.096 63.743 7.835C63.743 3.02 66.948 0 71.006 0C72.846 0 74.369 0.449 75.549 1.242ZM80.761 13.11C80.761 13.832 81.069 13.956 82.046 14.017V14.695H76.605V14.017C77.556 13.955 77.89 13.832 77.89 13.11V2.105L76.65 1.462V1.031L80.304 0.036H80.762L80.761 13.11ZM88.341 12.581V8.761L86.563 9.465C85.717 9.791 85.154 10.267 85.154 11.428C85.154 12.502 85.656 13.25 86.748 13.25C87.347 13.25 87.76 13.022 88.341 12.581ZM93.149 13.894L93.026 11.041H93.792C94.241 12.837 95.28 14.184 96.865 14.184C97.983 14.184 98.837 13.665 98.837 12.528C98.837 11.41 98.071 10.979 96.433 10.398C94.241 9.632 93.105 8.76 93.105 6.858C93.105 4.772 94.672 3.574 96.952 3.574C98.272 3.574 99.408 3.909 100.298 4.464V6.965H99.594C99.251 5.494 98.396 4.28 96.953 4.28C95.879 4.28 95.253 4.896 95.253 5.812C95.253 6.736 95.896 7.195 97.49 7.793C99.726 8.559 101.047 9.404 101.047 11.429C101.047 13.622 99.392 14.907 96.848 14.907C95.279 14.906 93.994 14.492 93.149 13.894ZM102.103 13.894L101.997 11.041H102.763C103.212 12.837 104.268 14.184 105.844 14.184C106.953 14.184 107.807 13.665 107.807 12.528C107.807 11.41 107.024 10.979 105.43 10.398C103.211 9.632 102.076 8.76 102.076 6.858C102.076 4.772 103.652 3.574 105.923 3.574C107.243 3.574 108.379 3.909 109.277 4.464V6.965H108.573C108.238 5.494 107.366 4.28 105.923 4.28C104.848 4.28 104.25 4.896 104.25 5.812C104.25 6.736 104.866 7.195 106.46 7.793C108.715 8.558 110 9.403 110 11.428C110 13.621 108.363 14.906 105.818 14.906C104.268 14.906 102.965 14.492 102.103 13.894ZM91.185 12.405C91.185 13.109 91.343 13.559 91.863 13.559C92.171 13.559 92.462 13.462 92.691 13.357L92.814 13.806C92.215 14.51 91.431 14.906 90.481 14.906C89.346 14.906 88.614 14.219 88.412 13.083C87.752 13.955 86.678 14.862 85.163 14.862C83.508 14.862 82.416 13.85 82.416 12.194C82.416 10.442 83.675 9.693 85.225 9.139L88.351 8.004V6.26C88.351 5.063 87.955 4.218 86.907 4.218C85.93 4.218 85.348 4.464 85.04 4.896C85.683 5.046 86.053 5.556 86.053 6.199C86.053 7.089 85.436 7.67 84.486 7.67C83.597 7.67 83.034 7.089 83.034 6.182C83.034 4.448 84.812 3.576 87.128 3.576C89.761 3.576 91.187 4.527 91.187 6.966V12.405H91.185ZM60.212 4.94C60.212 5.952 60.811 6.595 61.718 6.595C62.713 6.595 63.338 5.952 63.338 5.046C63.338 4.113 62.775 3.575 61.974 3.575C60.856 3.575 60.134 4.359 59.324 6.639L59.403 3.575H58.928L55.23 4.694V5.08L56.471 5.828V13.109C56.471 13.831 56.136 13.955 55.186 14.016V14.694H61.059V14.016C59.8 13.91 59.324 13.787 59.324 12.959V7.651C59.782 6.365 60.504 5.476 61.701 4.772L60.212 4.94Z" fill="#000"/>
</g>
<defs>
<clipPath id="clip0">
<rect width="110" height="14.907" fill="white"/>
</clipPath>
</defs>
</svg>
