<svg width="24" height="25" viewBox="0 0 24 25" fill="none" xmlns="http://www.w3.org/2000/svg">
<path fill-rule="evenodd" clip-rule="evenodd" d="M11.998 16.983L10.1532 17.3795L10.2965 17.6553L11.9999 17.2899L13.7034 17.6553L13.8467 17.3795L11.998 16.983Z" fill="white"/>
<path fill-rule="evenodd" clip-rule="evenodd" d="M3.84894 16.9147L7.44123 15.0108L7.49518 14.6303L3.91374 16.5287L3.84894 16.9147Z" fill="white"/>
<path fill-rule="evenodd" clip-rule="evenodd" d="M12.0004 19.2569L11.1557 19.3072L11.3035 19.5923L12.0004 19.5506L12.6973 19.5923L12.8451 19.3072L12.0004 19.2569Z" fill="white"/>
<path fill-rule="evenodd" clip-rule="evenodd" d="M3.94397 16.3454L7.56148 14.1605L7.6183 13.7608L4.01228 15.9386L3.94397 16.3454Z" fill="white"/>
<path fill-rule="evenodd" clip-rule="evenodd" d="M10.4883 18.0246L10.633 18.3027L11.9999 18.0833L13.3672 18.3027L13.5118 18.0246L12.0018 17.7822L10.4883 18.0246Z" fill="white"/>
<mask id="mask0" mask-type="alpha" maskUnits="userSpaceOnUse" x="11" y="19" width="2" height="2">
<path fill-rule="evenodd" clip-rule="evenodd" d="M11.4874 19.9449H12.5125V20.2065H11.4874V19.9449Z" fill="white"/>
</mask>
<g mask="url(#mask0)">
<path fill-rule="evenodd" clip-rule="evenodd" d="M11.4874 19.9449C11.5583 20.0672 11.6783 20.2065 12.0007 20.2065C12.3232 20.2065 12.4416 20.0672 12.5125 19.9449H11.4874Z" fill="white"/>
</g>
<path fill-rule="evenodd" clip-rule="evenodd" d="M12.002 18.5386L10.8228 18.6667L10.9686 18.948L12.0001 18.8359L13.0318 18.948L13.1777 18.6667L12.002 18.5386Z" fill="white"/>
<path fill-rule="evenodd" clip-rule="evenodd" d="M3.76178 17.4344L7.33013 15.7925L7.38184 15.429L3.82339 17.0664L3.76178 17.4344Z" fill="white"/>
<path fill-rule="evenodd" clip-rule="evenodd" d="M3.84207 19.8778H6.3892C6.59 19.8778 6.75185 19.7276 6.79079 19.5671L3.54199 19.7609C3.61669 19.8342 3.72172 19.8778 3.84207 19.8778Z" fill="white"/>
<path fill-rule="evenodd" clip-rule="evenodd" d="M6.97274 4.71662C6.94592 4.66249 6.89485 4.61861 6.83866 4.58273L5.59877 6.47319L5.46246 7.28805L7.05191 4.86428L6.97274 4.71662Z" fill="white"/>
<path fill-rule="evenodd" clip-rule="evenodd" d="M3.68182 17.91L7.22751 16.5135L7.27731 16.165L3.7412 17.5574L3.68182 17.91Z" fill="white"/>
<mask id="mask1" mask-type="alpha" maskUnits="userSpaceOnUse" x="3" y="19" width="4" height="1">
<path fill-rule="evenodd" clip-rule="evenodd" d="M3.42847 19.0981H6.86086V19.757H3.42847V19.0981Z" fill="white"/>
</mask>
<g mask="url(#mask1)">
<path fill-rule="evenodd" clip-rule="evenodd" d="M3.53737 19.757L6.81809 19.3998L6.86087 19.0981L3.42851 19.4716C3.42692 19.5885 3.46746 19.6865 3.53737 19.757Z" fill="white"/>
</g>
<path fill-rule="evenodd" clip-rule="evenodd" d="M3.60931 18.3462L7.13329 17.1793L7.18117 16.8433L3.66614 18.0067L3.60931 18.3462Z" fill="white"/>
<path fill-rule="evenodd" clip-rule="evenodd" d="M3.43233 19.4012C3.42914 19.4211 3.42978 19.4393 3.42914 19.4582L6.88863 18.9031L6.93236 18.5947L3.47447 19.1498L3.43233 19.4012Z" fill="white"/>
<path fill-rule="evenodd" clip-rule="evenodd" d="M3.54199 18.748L7.04586 17.7973L7.09215 17.4722L3.5969 18.4203L3.54199 18.748Z" fill="white"/>
<path fill-rule="evenodd" clip-rule="evenodd" d="M3.47992 19.1177L6.96463 18.3704L7.00932 18.0542L3.53323 18.7999L3.47992 19.1177Z" fill="white"/>
<path fill-rule="evenodd" clip-rule="evenodd" d="M8.61758 7.78952L4.68882 11.9048L4.59369 12.4731L8.77815 8.08965L8.61758 7.78952Z" fill="white"/>
<path fill-rule="evenodd" clip-rule="evenodd" d="M8.18171 6.97586L4.87481 10.7936L4.77106 11.4115L8.34643 7.28368L8.18171 6.97586Z" fill="white"/>
<path fill-rule="evenodd" clip-rule="evenodd" d="M9.05235 8.60248L4.52312 12.8933L4.43469 13.4202L9.20973 8.89652L9.05235 8.60248Z" fill="white"/>
<path fill-rule="evenodd" clip-rule="evenodd" d="M7.74606 6.16177L5.0856 9.53846L4.9726 10.2124L7.91525 6.4776L7.74606 6.16177Z" fill="white"/>
<path fill-rule="evenodd" clip-rule="evenodd" d="M9.48741 9.41452L4.37495 13.7778L4.29291 14.2675L9.6416 9.7028L9.48741 9.41452Z" fill="white"/>
<mask id="mask2" mask-type="alpha" maskUnits="userSpaceOnUse" x="5" y="4" width="2" height="2">
<path fill-rule="evenodd" clip-rule="evenodd" d="M5.7644 4.5H6.35466V5.48475H5.7644V4.5Z" fill="white"/>
</mask>
<g mask="url(#mask2)">
<path fill-rule="evenodd" clip-rule="evenodd" d="M6.26017 4.49966C6.08746 4.49966 5.89305 4.65149 5.87135 4.84624L5.7644 5.48461L6.35466 4.49966H6.26017Z" fill="white"/>
</g>
<path fill-rule="evenodd" clip-rule="evenodd" d="M7.30958 5.34604L5.32429 8.10998L5.20074 8.84893L7.48324 5.67083L7.30958 5.34604Z" fill="white"/>
<path fill-rule="evenodd" clip-rule="evenodd" d="M9.92097 10.2259L4.24092 14.5724L4.16431 15.0308L10.0726 10.5093L9.92097 10.2259Z" fill="white"/>
<path fill-rule="evenodd" clip-rule="evenodd" d="M11.6541 13.4635L8.80023 14.7767L8.94261 15.0506L11.8 13.7361L11.6541 13.4635Z" fill="white"/>
<path fill-rule="evenodd" clip-rule="evenodd" d="M12.0021 14.3035L9.1402 15.431L9.28225 15.7039L12.0002 14.6334L14.7181 15.7039L14.8602 15.431L12.0021 14.3035Z" fill="white"/>
<path fill-rule="evenodd" clip-rule="evenodd" d="M9.47949 16.0827L9.62123 16.3563L12.0001 15.5689L14.3793 16.3563L14.5211 16.0827L12.002 15.2486L9.47949 16.0827Z" fill="white"/>
<path fill-rule="evenodd" clip-rule="evenodd" d="M10.3545 11.0365L4.12087 15.2896L4.0484 15.7201L10.5042 11.3158L10.3545 11.0365Z" fill="white"/>
<path fill-rule="evenodd" clip-rule="evenodd" d="M11.2212 12.6549L8.45856 14.1193L8.60189 14.3951L11.368 12.9287L11.2212 12.6549Z" fill="white"/>
<path fill-rule="evenodd" clip-rule="evenodd" d="M12.0017 16.1395L9.81659 16.7324L9.95928 17.0062L11.9998 16.4527L14.0406 17.0062L14.183 16.7324L12.0017 16.1395Z" fill="white"/>
<path fill-rule="evenodd" clip-rule="evenodd" d="M10.7884 11.846L8.11609 13.4604L8.2607 13.7384L10.9365 12.1221L10.7884 11.846Z" fill="white"/>
<path fill-rule="evenodd" clip-rule="evenodd" d="M20.0866 16.5285L16.5052 14.6301L16.5591 15.0106L20.1514 16.9145L20.0866 16.5285Z" fill="white"/>
<path fill-rule="evenodd" clip-rule="evenodd" d="M19.9875 15.9389L16.3815 13.7608L16.4383 14.1605L20.0558 16.3457L19.9875 15.9389Z" fill="white"/>
<path fill-rule="evenodd" clip-rule="evenodd" d="M20.1768 17.0661L16.6187 15.429L16.6704 15.7922L20.2385 17.4341L20.1768 17.0661Z" fill="white"/>
<path fill-rule="evenodd" clip-rule="evenodd" d="M17.6101 19.8778H20.1573C20.2776 19.8778 20.383 19.8342 20.4577 19.7609L17.2086 19.5671C17.2475 19.7276 17.4094 19.8778 17.6101 19.8778Z" fill="white"/>
<path fill-rule="evenodd" clip-rule="evenodd" d="M18.4015 6.47319L17.1616 4.58273C17.1054 4.61861 17.0543 4.66249 17.0275 4.71662L16.9484 4.86428L18.5381 7.28805L18.4015 6.47319Z" fill="white"/>
<path fill-rule="evenodd" clip-rule="evenodd" d="M20.2591 17.5575L16.723 16.1648L16.7725 16.5133L20.3185 17.9101L20.2591 17.5575Z" fill="white"/>
<path fill-rule="evenodd" clip-rule="evenodd" d="M17.139 19.0979L17.1818 19.3993L20.4625 19.7568C20.5324 19.6863 20.573 19.588 20.5714 19.4714L17.139 19.0979Z" fill="white"/>
<path fill-rule="evenodd" clip-rule="evenodd" d="M20.3346 18.007L16.8192 16.8433L16.8674 17.1796L20.3914 18.3465L20.3346 18.007Z" fill="white"/>
<path fill-rule="evenodd" clip-rule="evenodd" d="M20.5678 19.4012L20.5257 19.1498L17.0678 18.5947L17.1115 18.9031L20.571 19.4582C20.5704 19.4393 20.571 19.4211 20.5678 19.4012Z" fill="white"/>
<path fill-rule="evenodd" clip-rule="evenodd" d="M20.4035 18.4199L16.9083 17.4717L16.9546 17.7972L20.4584 18.7475L20.4035 18.4199Z" fill="white"/>
<path fill-rule="evenodd" clip-rule="evenodd" d="M20.4671 18.7999L16.991 18.0542L17.0357 18.3704L20.5204 19.1177L20.4671 18.7999Z" fill="white"/>
<path fill-rule="evenodd" clip-rule="evenodd" d="M19.3113 11.9048L15.3825 7.78952L15.2219 8.08997L19.4067 12.4731L19.3113 11.9048Z" fill="white"/>
<path fill-rule="evenodd" clip-rule="evenodd" d="M19.1252 10.7936L15.8183 6.97586L15.6536 7.28368L19.2287 11.4115L19.1252 10.7936Z" fill="white"/>
<path fill-rule="evenodd" clip-rule="evenodd" d="M19.4771 12.8933L14.9479 8.60248L14.7902 8.89652L19.5652 13.4205L19.4771 12.8933Z" fill="white"/>
<path fill-rule="evenodd" clip-rule="evenodd" d="M18.915 9.53846L16.2546 6.16177L16.0854 6.4776L19.028 10.2124L18.915 9.53846Z" fill="white"/>
<path fill-rule="evenodd" clip-rule="evenodd" d="M19.6256 13.778L14.5131 9.41476L14.3589 9.70304L19.708 14.2677L19.6256 13.778Z" fill="white"/>
<mask id="mask3" mask-type="alpha" maskUnits="userSpaceOnUse" x="17" y="4" width="2" height="2">
<path fill-rule="evenodd" clip-rule="evenodd" d="M17.6454 4.5H18.2356V5.48475H17.6454V4.5Z" fill="white"/>
</mask>
<g mask="url(#mask3)">
<path fill-rule="evenodd" clip-rule="evenodd" d="M18.1287 4.84624C18.1073 4.65149 17.9126 4.49966 17.7399 4.49966H17.6454L18.2356 5.48461L18.1287 4.84624Z" fill="white"/>
</g>
<path fill-rule="evenodd" clip-rule="evenodd" d="M18.6761 8.10998L16.6908 5.34604L16.5172 5.67083L18.8 8.84893L18.6761 8.10998Z" fill="white"/>
<path fill-rule="evenodd" clip-rule="evenodd" d="M19.7589 14.5724L14.0788 10.2259L13.9272 10.509L19.8355 15.0308L19.7589 14.5724Z" fill="white"/>
<path fill-rule="evenodd" clip-rule="evenodd" d="M12.2001 13.7358L15.0575 15.0504L15.1999 14.7765L12.346 13.4632L12.2001 13.7358Z" fill="white"/>
<path fill-rule="evenodd" clip-rule="evenodd" d="M19.8787 15.2898L13.6451 11.0368L13.4954 11.3161L19.9512 15.7203L19.8787 15.2898Z" fill="white"/>
<path fill-rule="evenodd" clip-rule="evenodd" d="M12.632 12.929L15.3981 14.395L15.5414 14.1195L12.7788 12.6551L12.632 12.929Z" fill="white"/>
<path fill-rule="evenodd" clip-rule="evenodd" d="M13.0637 12.1224L15.7395 13.7387L15.8841 13.4606L13.2118 11.8463L13.0637 12.1224Z" fill="white"/>
</svg>
