<svg fill="none" height="25" viewBox="0 0 24 25" width="24" xmlns="http://www.w3.org/2000/svg" xmlns:xlink="http://www.w3.org/1999/xlink"><mask id="a" height="2" maskUnits="userSpaceOnUse" width="2" x="11" y="19"><path clip-rule="evenodd" d="m11.4874 19.9449h1.0251v.2616h-1.0251z" fill="#000" fill-rule="evenodd"/></mask><mask id="b" height="1" maskUnits="userSpaceOnUse" width="4" x="3" y="19"><path clip-rule="evenodd" d="m3.42847 19.0981h3.43239v.6589h-3.43239z" fill="#000" fill-rule="evenodd"/></mask><mask id="c" height="2" maskUnits="userSpaceOnUse" width="2" x="5" y="4"><path clip-rule="evenodd" d="m5.7644 4.5h.59026v.98475h-.59026z" fill="#000" fill-rule="evenodd"/></mask><mask id="d" height="2" maskUnits="userSpaceOnUse" width="2" x="17" y="4"><path clip-rule="evenodd" d="m17.6454 4.5h.5902v.98475h-.5902z" fill="#000" fill-rule="evenodd"/></mask><path clip-rule="evenodd" d="m11.998 16.983-1.8448.3965.1433.2758 1.7034-.3654 1.7035.3654.1433-.2758z" fill="#000" fill-rule="evenodd"/><path clip-rule="evenodd" d="m3.84894 16.9147 3.59229-1.9039.05395-.3805-3.58144 1.8984z" fill="#000" fill-rule="evenodd"/><path clip-rule="evenodd" d="m12.0004 19.2569-.8447.0503.1478.2851.6969-.0417.6969.0417.1478-.2851z" fill="#000" fill-rule="evenodd"/><path clip-rule="evenodd" d="m3.94397 16.3454 3.61751-2.1849.05682-.3997-3.60602 2.1778z" fill="#000" fill-rule="evenodd"/><path clip-rule="evenodd" d="m10.4883 18.0246.1447.2781 1.3669-.2194 1.3673.2194.1446-.2781-1.51-.2424z" fill="#000" fill-rule="evenodd"/><g mask="url(#a)"><path clip-rule="evenodd" d="m11.4874 19.9449c.0709.1223.1909.2616.5133.2616.3225 0 .4409-.1393.5118-.2616z" fill="#000" fill-rule="evenodd"/></g><path clip-rule="evenodd" d="m12.002 18.5386-1.1792.1281.1458.2813 1.0315-.1121 1.0317.1121.1459-.2813z" fill="#000" fill-rule="evenodd"/><path clip-rule="evenodd" d="m3.76178 17.4344 3.56835-1.6419.05171-.3635-3.55845 1.6374z" fill="#000" fill-rule="evenodd"/><path clip-rule="evenodd" d="m3.84207 19.8778h2.54713c.2008 0 .36265-.1502.40159-.3107l-3.2488.1938c.0747.0733.17973.1169.30008.1169z" fill="#000" fill-rule="evenodd"/><path clip-rule="evenodd" d="m6.97274 4.71662c-.02682-.05413-.07789-.09801-.13408-.13389l-1.23989 1.89046-.13631.81486 1.58945-2.42377z" fill="#000" fill-rule="evenodd"/><path clip-rule="evenodd" d="m3.68182 17.91 3.54569-1.3965.0498-.3485-3.53611 1.3924z" fill="#000" fill-rule="evenodd"/><g mask="url(#b)"><path clip-rule="evenodd" d="m3.53737 19.757 3.28072-.3572.04278-.3017-3.43236.3735c-.00159.1169.03895.2149.10886.2854z" fill="#000" fill-rule="evenodd"/></g><path clip-rule="evenodd" d="m3.60931 18.3462 3.52398-1.1669.04788-.336-3.51503 1.1634z" fill="#000" fill-rule="evenodd"/><path clip-rule="evenodd" d="m3.43233 19.4012c-.00319.0199-.00255.0381-.00319.057l3.45949-.5551.04373-.3084-3.45789.5551z" fill="#000" fill-rule="evenodd"/><path clip-rule="evenodd" d="m3.54199 18.748 3.50387-.9507.04629-.3251-3.49525.9481z" fill="#000" fill-rule="evenodd"/><path clip-rule="evenodd" d="m3.47992 19.1177 3.48471-.7473.04469-.3162-3.47609.7457z" fill="#000" fill-rule="evenodd"/><path clip-rule="evenodd" d="m8.61758 7.78952-3.92876 4.11528-.09513.5683 4.18446-4.38345z" fill="#000" fill-rule="evenodd"/><path clip-rule="evenodd" d="m8.18171 6.97586-3.3069 3.81774-.10375.6179 3.57537-4.12782z" fill="#000" fill-rule="evenodd"/><path clip-rule="evenodd" d="m9.05235 8.60248-4.52923 4.29082-.08843.5269 4.77504-4.52368z" fill="#000" fill-rule="evenodd"/><path clip-rule="evenodd" d="m7.74606 6.16177-2.66046 3.37669-.113.67394 2.94265-3.7348z" fill="#000" fill-rule="evenodd"/><path clip-rule="evenodd" d="m9.48741 9.41452-5.11246 4.36328-.08204.4897 5.34869-4.5647z" fill="#000" fill-rule="evenodd"/><g mask="url(#c)"><path clip-rule="evenodd" d="m6.26017 4.49966c-.17271 0-.36712.15183-.38882.34658l-.10695.63837.59026-.98495z" fill="#000" fill-rule="evenodd"/></g><g clip-rule="evenodd" fill="#000" fill-rule="evenodd"><path d="m7.30958 5.34604-1.98529 2.76394-.12355.73895 2.2825-3.1781z"/><path d="m9.92097 10.2259-5.68005 4.3465-.07661.4584 5.90829-4.5215z"/><path d="m11.6541 13.4635-2.85387 1.3132.14238.2739 2.85739-1.3145z"/><path d="m12.0021 14.3035-2.8619 1.1275.14205.2729 2.71795-1.0705 2.7179 1.0705.1421-.2729z"/><path d="m9.47949 16.0827.14174.2736 2.37887-.7874 2.3792.7874.1418-.2736-2.5191-.8341z"/><path d="m10.3545 11.0365-6.23363 4.2531-.07247.4305 6.4558-4.4043z"/><path d="m11.2212 12.6549-2.76264 1.4644.14333.2758 2.76611-1.4664z"/><path d="m12.0017 16.1395-2.18511.5929.14269.2738 2.04052-.5535 2.0408.5535.1424-.2738z"/><path d="m10.7884 11.846-2.67231 1.6144.14461.278 2.6758-1.6163z"/><path d="m20.0866 16.5285-3.5814-1.8984.0539.3805 3.5923 1.9039z"/><path d="m19.9875 15.9389-3.606-2.1781.0568.3997 3.6175 2.1852z"/><path d="m20.1768 17.0661-3.5581-1.6371.0517.3632 3.5681 1.6419z"/><path d="m17.6101 19.8778h2.5472c.1203 0 .2257-.0436.3004-.1169l-3.2491-.1938c.0389.1605.2008.3107.4015.3107z"/><path d="m18.4015 6.47319-1.2399-1.89046c-.0562.03588-.1073.07976-.1341.13389l-.0791.14766 1.5897 2.42377z"/><path d="m20.2591 17.5575-3.5361-1.3927.0495.3485 3.546 1.3968z"/><path d="m17.139 19.0979.0428.3014 3.2807.3575c.0699-.0705.1105-.1688.1089-.2854z"/><path d="m20.3346 18.007-3.5154-1.1637.0482.3363 3.524 1.1669z"/><path d="m20.5678 19.4012-.0421-.2514-3.4579-.5551.0437.3084 3.4595.5551c-.0006-.0189 0-.0371-.0032-.057z"/><path d="m20.4035 18.4199-3.4952-.9482.0463.3255 3.5038.9503z"/><path d="m20.4671 18.7999-3.4761-.7457.0447.3162 3.4847.7473z"/><path d="m19.3113 11.9048-3.9288-4.11528-.1606.30045 4.1848 4.38313z"/><path d="m19.1252 10.7936-3.3069-3.81774-.1647.30782 3.5751 4.12782z"/><path d="m19.4771 12.8933-4.5292-4.29082-.1577.29404 4.775 4.52398z"/><path d="m18.915 9.53846-2.6604-3.37669-.1692.31583 2.9426 3.7348z"/><path d="m19.6256 13.778-5.1125-4.36324-.1542.28828 5.3491 4.56466z"/></g><g mask="url(#d)"><path clip-rule="evenodd" d="m18.1287 4.84624c-.0214-.19475-.2161-.34658-.3888-.34658h-.0945l.5902.98495z" fill="#000" fill-rule="evenodd"/></g><path clip-rule="evenodd" d="m18.6761 8.10998-1.9853-2.76394-.1736.32479 2.2828 3.1781z" fill="#000" fill-rule="evenodd"/><path clip-rule="evenodd" d="m19.7589 14.5724-5.6801-4.3465-.1516.2831 5.9083 4.5218z" fill="#000" fill-rule="evenodd"/><path clip-rule="evenodd" d="m12.2001 13.7358 2.8574 1.3146.1424-.2739-2.8539-1.3133z" fill="#000" fill-rule="evenodd"/><path clip-rule="evenodd" d="m19.8787 15.2898-6.2336-4.253-.1497.2793 6.4558 4.4042z" fill="#000" fill-rule="evenodd"/><path clip-rule="evenodd" d="m12.632 12.929 2.7661 1.466.1433-.2755-2.7626-1.4644z" fill="#000" fill-rule="evenodd"/><path clip-rule="evenodd" d="m13.0637 12.1224 2.6758 1.6163.1446-.2781-2.6723-1.6143z" fill="#000" fill-rule="evenodd"/></svg>
