<svg width="24" height="24" viewBox="0 0 24 24" fill="none" xmlns="http://www.w3.org/2000/svg">
<path fill-rule="evenodd" clip-rule="evenodd" d="M11.5696 16.483L9.72473 16.8795L9.86807 17.1553L11.5715 16.7898L13.2749 17.1553L13.4182 16.8795L11.5696 16.483Z" fill="black"/>
<path fill-rule="evenodd" clip-rule="evenodd" d="M3.42053 16.4147L7.01282 14.5108L7.06677 14.1303L3.48534 16.0288L3.42053 16.4147Z" fill="black"/>
<path fill-rule="evenodd" clip-rule="evenodd" d="M11.572 18.7569L10.7273 18.8072L10.8751 19.0923L11.572 19.0506L12.2689 19.0923L12.4167 18.8072L11.572 18.7569Z" fill="black"/>
<path fill-rule="evenodd" clip-rule="evenodd" d="M3.5155 15.8454L7.13301 13.6605L7.18984 13.2608L3.58382 15.4386L3.5155 15.8454Z" fill="black"/>
<path fill-rule="evenodd" clip-rule="evenodd" d="M10.0598 17.5246L10.2044 17.8027L11.5714 17.5833L12.9386 17.8027L13.0832 17.5246L11.5733 17.2822L10.0598 17.5246Z" fill="black"/>
<path fill-rule="evenodd" clip-rule="evenodd" d="M11.059 19.4448H12.084V19.7065H11.059V19.4448Z" fill="black"/>
<path fill-rule="evenodd" clip-rule="evenodd" d="M11.059 19.4448C11.1298 19.5672 11.2499 19.7065 11.5723 19.7065C11.8947 19.7065 12.0131 19.5672 12.084 19.4448H11.059Z" fill="black"/>
<path fill-rule="evenodd" clip-rule="evenodd" d="M11.5735 18.0386L10.3943 18.1667L10.5402 18.4479L11.5716 18.3358L12.6034 18.4479L12.7492 18.1667L11.5735 18.0386Z" fill="black"/>
<path fill-rule="evenodd" clip-rule="evenodd" d="M3.33325 16.9345L6.9016 15.2926L6.95332 14.929L3.39486 16.5664L3.33325 16.9345Z" fill="black"/>
<path fill-rule="evenodd" clip-rule="evenodd" d="M3.4136 19.3778H5.96073C6.16153 19.3778 6.32338 19.2276 6.36232 19.0671L3.11353 19.2609C3.18823 19.3342 3.29325 19.3778 3.4136 19.3778Z" fill="black"/>
<path fill-rule="evenodd" clip-rule="evenodd" d="M6.54433 4.21659C6.51752 4.16246 6.46644 4.11858 6.41026 4.0827L5.17037 5.97316L5.03406 6.78802L6.6235 4.36425L6.54433 4.21659Z" fill="black"/>
<path fill-rule="evenodd" clip-rule="evenodd" d="M3.2533 17.41L6.79898 16.0135L6.84878 15.665L3.31267 17.0574L3.2533 17.41Z" fill="black"/>
<path fill-rule="evenodd" clip-rule="evenodd" d="M3.18079 17.8461L6.70476 16.6793L6.75265 16.3433L3.23761 17.5066L3.18079 17.8461Z" fill="black"/>
<path fill-rule="evenodd" clip-rule="evenodd" d="M3.00392 18.9012C3.00073 18.9211 3.00137 18.9393 3.00073 18.9582L6.46022 18.4031L6.50396 18.0947L3.04606 18.6498L3.00392 18.9012Z" fill="black"/>
<path fill-rule="evenodd" clip-rule="evenodd" d="M3.11353 18.248L6.61739 17.2973L6.66368 16.9722L3.16843 17.9203L3.11353 18.248Z" fill="black"/>
<path fill-rule="evenodd" clip-rule="evenodd" d="M3.05151 18.6176L6.53622 17.8703L6.58092 17.5542L3.10483 18.2999L3.05151 18.6176Z" fill="black"/>
<path fill-rule="evenodd" clip-rule="evenodd" d="M8.18905 7.28955L4.26029 11.4049L4.16516 11.9731L8.34962 7.58968L8.18905 7.28955Z" fill="black"/>
<path fill-rule="evenodd" clip-rule="evenodd" d="M7.7533 6.47589L4.4464 10.2936L4.34265 10.9115L7.91802 6.78371L7.7533 6.47589Z" fill="black"/>
<path fill-rule="evenodd" clip-rule="evenodd" d="M8.62388 8.10248L4.09465 12.3933L4.00623 12.9202L8.78126 8.39652L8.62388 8.10248Z" fill="black"/>
<path fill-rule="evenodd" clip-rule="evenodd" d="M7.31753 5.66174L4.65707 9.03843L4.54407 9.71236L7.48673 5.97757L7.31753 5.66174Z" fill="black"/>
<path fill-rule="evenodd" clip-rule="evenodd" d="M9.05888 8.91455L3.94642 13.2778L3.86438 13.7675L9.21307 9.20283L9.05888 8.91455Z" fill="black"/>
<path fill-rule="evenodd" clip-rule="evenodd" d="M5.8317 3.99963C5.659 3.99963 5.46459 4.15146 5.44288 4.34621L5.33594 4.98458L5.92619 3.99963H5.8317Z" fill="black"/>
<path fill-rule="evenodd" clip-rule="evenodd" d="M6.88117 4.84607L4.89588 7.61001L4.77234 8.34896L7.05483 5.17086L6.88117 4.84607Z" fill="black"/>
<path fill-rule="evenodd" clip-rule="evenodd" d="M9.49251 9.72589L3.81245 14.0725L3.73584 14.5308L9.64414 10.0094L9.49251 9.72589Z" fill="black"/>
<path fill-rule="evenodd" clip-rule="evenodd" d="M11.2257 12.9634L8.37183 14.2767L8.5142 14.5506L11.3716 13.236L11.2257 12.9634Z" fill="black"/>
<path fill-rule="evenodd" clip-rule="evenodd" d="M11.5737 13.8035L8.71179 14.931L8.85385 15.2039L11.5718 14.1334L14.2897 15.2039L14.4317 14.931L11.5737 13.8035Z" fill="black"/>
<path fill-rule="evenodd" clip-rule="evenodd" d="M9.05103 15.5827L9.19276 15.8562L11.5717 15.0689L13.9509 15.8562L14.0926 15.5827L11.5736 14.7486L9.05103 15.5827Z" fill="black"/>
<path fill-rule="evenodd" clip-rule="evenodd" d="M9.92606 10.5366L3.69246 14.7896L3.62 15.2201L10.0758 10.8159L9.92606 10.5366Z" fill="black"/>
<path fill-rule="evenodd" clip-rule="evenodd" d="M10.7928 12.1548L8.03015 13.6193L8.17349 13.8951L10.9396 12.4287L10.7928 12.1548Z" fill="black"/>
<path fill-rule="evenodd" clip-rule="evenodd" d="M11.5732 15.6395L9.38806 16.2324L9.53076 16.5062L11.5713 15.9527L13.6121 16.5062L13.7545 16.2324L11.5732 15.6395Z" fill="black"/>
<path fill-rule="evenodd" clip-rule="evenodd" d="M10.3599 11.3461L7.68762 12.9604L7.83223 13.2384L10.508 11.6222L10.3599 11.3461Z" fill="black"/>
<path fill-rule="evenodd" clip-rule="evenodd" d="M19.6582 16.0285L16.0768 14.1301L16.1307 14.5106L19.723 16.4145L19.6582 16.0285Z" fill="black"/>
<path fill-rule="evenodd" clip-rule="evenodd" d="M19.559 15.4389L15.953 13.2608L16.0098 13.6605L19.6273 15.8457L19.559 15.4389Z" fill="black"/>
<path fill-rule="evenodd" clip-rule="evenodd" d="M19.7484 16.5661L16.1903 14.929L16.242 15.2922L19.8101 16.9341L19.7484 16.5661Z" fill="black"/>
<path fill-rule="evenodd" clip-rule="evenodd" d="M17.1817 19.3778H19.7289C19.8492 19.3778 19.9546 19.3342 20.0293 19.2609L16.7802 19.0671C16.8191 19.2276 16.9809 19.3778 17.1817 19.3778Z" fill="black"/>
<path fill-rule="evenodd" clip-rule="evenodd" d="M17.973 5.97316L16.7331 4.0827C16.677 4.11858 16.6259 4.16246 16.5991 4.21659L16.5199 4.36425L18.1097 6.78802L17.973 5.97316Z" fill="black"/>
<path fill-rule="evenodd" clip-rule="evenodd" d="M19.8307 17.0574L16.2946 15.6647L16.344 16.0132L19.89 17.4101L19.8307 17.0574Z" fill="black"/>
<path fill-rule="evenodd" clip-rule="evenodd" d="M16.7106 18.5979L16.7533 18.8993L20.0341 19.2568C20.104 19.1863 20.1445 19.088 20.1429 18.9714L16.7106 18.5979Z" fill="black"/>
<path fill-rule="evenodd" clip-rule="evenodd" d="M19.9061 17.5069L16.3907 16.3433L16.439 16.6796L19.9629 17.8465L19.9061 17.5069Z" fill="black"/>
<path fill-rule="evenodd" clip-rule="evenodd" d="M20.1394 18.9012L20.0973 18.6498L16.6394 18.0947L16.6831 18.4031L20.1426 18.9582C20.142 18.9393 20.1426 18.9211 20.1394 18.9012Z" fill="black"/>
<path fill-rule="evenodd" clip-rule="evenodd" d="M19.975 17.9199L16.4797 16.9717L16.526 17.2972L20.0299 18.2475L19.975 17.9199Z" fill="black"/>
<path fill-rule="evenodd" clip-rule="evenodd" d="M20.0386 18.2999L16.5625 17.5542L16.6072 17.8703L20.0919 18.6176L20.0386 18.2999Z" fill="black"/>
<path fill-rule="evenodd" clip-rule="evenodd" d="M18.8828 11.4049L14.954 7.28955L14.7935 7.59L18.9782 11.9731L18.8828 11.4049Z" fill="black"/>
<path fill-rule="evenodd" clip-rule="evenodd" d="M18.6968 10.2936L15.3899 6.47589L15.2252 6.78371L18.8003 10.9115L18.6968 10.2936Z" fill="black"/>
<path fill-rule="evenodd" clip-rule="evenodd" d="M19.0486 12.3933L14.5194 8.10248L14.3617 8.39652L19.1367 12.9205L19.0486 12.3933Z" fill="black"/>
<path fill-rule="evenodd" clip-rule="evenodd" d="M18.4866 9.03843L15.8262 5.66174L15.657 5.97757L18.5996 9.71236L18.4866 9.03843Z" fill="black"/>
<path fill-rule="evenodd" clip-rule="evenodd" d="M19.1972 13.278L14.0847 8.91473L13.9305 9.20301L19.2796 13.7677L19.1972 13.278Z" fill="black"/>
<path fill-rule="evenodd" clip-rule="evenodd" d="M17.7002 4.34621C17.6788 4.15146 17.4841 3.99963 17.3114 3.99963H17.2169L17.8072 4.98458L17.7002 4.34621Z" fill="black"/>
<path fill-rule="evenodd" clip-rule="evenodd" d="M18.2477 7.61001L16.2624 4.84607L16.0887 5.17086L18.3716 8.34896L18.2477 7.61001Z" fill="black"/>
<path fill-rule="evenodd" clip-rule="evenodd" d="M19.3305 14.0725L13.6504 9.72589L13.4988 10.009L19.4071 14.5308L19.3305 14.0725Z" fill="black"/>
<path fill-rule="evenodd" clip-rule="evenodd" d="M11.7716 13.2358L14.629 14.5504L14.7714 14.2765L11.9175 12.9633L11.7716 13.2358Z" fill="black"/>
<path fill-rule="evenodd" clip-rule="evenodd" d="M19.4503 14.7898L13.2167 10.5367L13.067 10.8161L19.5228 15.2203L19.4503 14.7898Z" fill="black"/>
<path fill-rule="evenodd" clip-rule="evenodd" d="M12.2035 12.429L14.9696 13.895L15.1129 13.6195L12.3503 12.1551L12.2035 12.429Z" fill="black"/>
<path fill-rule="evenodd" clip-rule="evenodd" d="M12.6353 11.6224L15.311 13.2386L15.4556 12.9606L12.7834 11.3463L12.6353 11.6224Z" fill="black"/>
</svg>
