<svg width="98" height="64" viewBox="0 0 98 64" fill="none" xmlns="http://www.w3.org/2000/svg">
<path fill-rule="evenodd" clip-rule="evenodd" d="M9.3541 63.8477C9.5488 63.8477 9.62668 63.7109 9.58774 63.5352L7.97202 55.0508C7.9581 55.0156 7.93686 54.9844 7.91086 54.957L7.88144 54.9297L7.8259 54.8945C7.79782 54.8828 7.76804 54.875 7.73837 54.875H7.54367C7.44638 54.875 7.34897 54.9336 7.32956 55.0117L4.85715 61.9609H4.79868L2.28745 55.0117C2.26791 54.9336 2.17062 54.875 2.07321 54.875H1.87863C1.78122 54.875 1.6644 54.9531 1.64499 55.0508L0.00973567 63.5352C-0.0292048 63.7305 0.0486761 63.8477 0.243256 63.8477H0.671601C0.788422 63.8477 0.885712 63.7695 0.905243 63.6719L2.01486 57.168H2.07321L4.4288 63.8281C4.44833 63.9023 4.56516 63.9609 4.64304 63.9609H4.87656C4.95444 63.9609 5.07126 63.9023 5.09079 63.8281L7.42685 57.168H7.48532L8.61435 63.6719C8.65329 63.75 8.7507 63.8477 8.84799 63.8477H9.3541ZM20.0381 63.8477C20.2328 63.8477 20.33 63.6719 20.2522 63.5156L16.4171 55.0312C16.395 54.9883 16.3667 54.9492 16.325 54.9258L16.2641 54.8984L16.203 54.8945H16.1056C15.9887 54.8945 15.9304 54.9531 15.8914 55.0312L12.0368 63.5156C11.959 63.6914 12.0564 63.8477 12.2509 63.8477H12.7572L12.802 63.8398L12.8399 63.832L12.8868 63.8086C12.9115 63.793 12.9314 63.7734 12.9461 63.7578L12.9713 63.7109L13.8863 61.6328H18.3833L19.3177 63.7109C19.3372 63.7695 19.4151 63.8477 19.5318 63.8477H20.0381ZM18.0335 60.8398L17.1089 58.7734L16.1842 56.7031H16.0868L14.2374 60.8398H18.0335ZM23.2838 57.1094C23.2838 57.9609 23.9262 58.4492 24.997 58.8945C26.7102 59.5938 27.8198 60.2344 27.8004 61.7305C27.8004 63.0508 26.5544 64 25.0748 64C23.5759 64 22.5636 63.1289 22.4078 62.9727C22.3105 62.8945 22.1742 62.7773 22.3299 62.5469L22.4515 62.4062L22.5246 62.3125C22.6609 62.1367 22.7971 62.0391 22.9724 62.1953C23.0697 62.2539 23.9847 63.1484 25.1137 63.1484C26.1456 63.1484 26.8075 62.4883 26.8075 61.75C26.8075 60.875 26.0482 60.3516 24.5882 59.75C23.206 59.1289 22.3689 58.5625 22.3689 57.1289C22.3689 56.2539 23.0503 54.875 25.0554 54.875C26.3014 54.875 27.2163 55.5156 27.2163 55.5156C27.2942 55.5547 27.4499 55.7109 27.2942 55.9414L27.2552 56C27.2162 56.0586 27.183 56.1172 27.1384 56.1758C27.0216 56.3516 26.8853 56.4102 26.6906 56.293C26.6128 56.2344 25.8147 55.7109 25.036 55.7109C23.6927 55.7109 23.2838 56.582 23.2838 57.1094ZM35.3338 55.0117H29.9608C29.8244 55.0117 29.7271 55.1289 29.7271 55.2461V55.6133C29.7271 55.6641 29.7458 55.7148 29.7782 55.7539L29.8253 55.8008L29.8748 55.8281C29.9011 55.8398 29.9299 55.8477 29.9608 55.8477H32.1606V63.5938C32.1606 63.7305 32.2774 63.8281 32.3943 63.8281H32.881C32.9192 63.8281 32.9543 63.8164 32.9851 63.8008C33.0135 63.7891 33.0382 63.7695 33.0582 63.7461C33.0938 63.7031 33.1145 63.6484 33.1145 63.5938V55.8477H35.3143C35.3991 55.8477 35.4688 55.8008 35.5094 55.7383L35.5276 55.7031L35.5412 55.6602L35.5479 55.6133V55.2461C35.5675 55.1289 35.4701 55.0117 35.3338 55.0117ZM38.4416 55.0117H43.4253C43.4596 55.0117 43.4914 55.0195 43.5195 55.0312C43.5567 55.0508 43.5875 55.0781 43.6089 55.1133C43.6355 55.1523 43.6476 55.1992 43.6395 55.2461V55.6133C43.6395 55.6602 43.6231 55.707 43.5945 55.7461C43.5532 55.8047 43.4863 55.8477 43.4059 55.8477H39.1618V58.9336H42.8023C42.9192 58.9336 43.036 59.0508 43.036 59.168V59.5352C43.036 59.6719 42.9192 59.7695 42.8023 59.7695H39.1618V62.9922H43.4253C43.5616 62.9922 43.6589 63.1094 43.6589 63.2266V63.5938C43.6589 63.6523 43.6336 63.7109 43.5909 63.7578C43.5633 63.7852 43.5283 63.8086 43.488 63.8203L43.4253 63.8281H38.4416C38.3053 63.8281 38.208 63.7305 38.208 63.5938V55.2461C38.208 55.1289 38.3053 55.0117 38.4416 55.0117ZM51.3481 60.2734L53.0807 63.4766C53.1313 63.5586 53.1292 63.6562 53.0855 63.7305C53.072 63.7539 53.0545 63.7773 53.0333 63.793L52.9789 63.8242L52.9314 63.8398L52.8665 63.8477H52.2241C52.1637 63.8477 52.1189 63.832 52.087 63.8086L52.0435 63.7617L52.0294 63.7305L50.3552 60.3906H47.9217V63.6133C47.9217 63.75 47.805 63.8477 47.6882 63.8477H47.2015C47.0652 63.8477 46.9679 63.7305 46.9679 63.6133V55.2656C46.9679 55.1289 47.0652 55.0312 47.2015 55.0312H50.472C51.9904 55.0312 53.2364 56.2148 53.2364 57.7109C53.217 58.8555 52.4577 59.8281 51.3481 60.2734ZM50.3939 55.9258C51.3673 55.9258 52.2238 56.7617 52.2238 57.7109C52.2238 58.7422 51.3868 59.5586 50.3939 59.5586H47.941V55.9258H50.3939ZM63.2038 62.0586C63.1259 62 63.0287 62 62.8923 62.0977C62.2304 62.6016 61.5686 63.0508 60.4784 63.0508C58.4732 63.0508 56.9547 61.3789 56.9547 59.418C56.9547 57.457 58.4926 55.7891 60.4784 55.7891C61.3349 55.7891 62.2304 56.1562 62.8923 56.7383C63.0287 56.875 63.1259 56.875 63.2232 56.7578L63.5737 56.4102C63.6104 56.375 63.6334 56.3281 63.6413 56.2812C63.6467 56.25 63.6451 56.2148 63.636 56.1836C63.6233 56.1367 63.5964 56.0938 63.5543 56.0586C62.6977 55.3203 61.7633 54.8945 60.4978 54.8945C57.967 54.8945 55.9229 56.9336 55.9229 59.457C55.9229 61.9805 57.967 63.9805 60.4978 63.9805C61.6269 63.9805 62.7171 63.5938 63.5737 62.7578C63.671 62.6602 63.6905 62.4883 63.5932 62.4102L63.2038 62.0586ZM67.7595 62.9922H71.4C71.5362 62.9922 71.653 63.1094 71.653 63.2266V63.5938C71.653 63.7109 71.5558 63.8281 71.4194 63.8281H67.0393C66.9798 63.8281 66.9278 63.8086 66.8882 63.7773C66.8366 63.7344 66.8056 63.6719 66.8056 63.5938V55.2461C66.8056 55.2031 66.818 55.1602 66.8401 55.125C66.8613 55.0898 66.8916 55.0625 66.9284 55.043C66.9608 55.0234 66.9983 55.0117 67.0393 55.0117H67.526C67.6428 55.0117 67.7595 55.1094 67.7595 55.2461V62.9922ZM81.6566 63.7383C81.6371 63.7695 81.6082 63.7969 81.5715 63.8164C81.5362 63.8359 81.4937 63.8477 81.4452 63.8477H80.9389C80.8222 63.8477 80.7444 63.7695 80.7248 63.7109L79.7904 61.6328H75.2934L74.3784 63.7109C74.359 63.7695 74.2811 63.8477 74.1643 63.8477H73.6581C73.4635 63.8477 73.3661 63.6914 73.4439 63.5156L77.2986 55.0312C77.3198 54.9883 77.3469 54.9531 77.3862 54.9258C77.4188 54.9062 77.4597 54.8945 77.5127 54.8945H77.6295C77.7463 54.8945 77.8047 54.9531 77.8436 55.0312L81.6593 63.5156C81.6762 63.5508 81.6849 63.5859 81.6861 63.6172C81.6876 63.6602 81.6772 63.7031 81.6566 63.7383ZM77.5119 56.7031H77.6093C78.2323 58.082 78.8358 59.4609 79.4587 60.8398H75.6626L77.5119 56.7031ZM86.4094 58.8945C85.8745 58.6719 85.4464 58.4414 85.1519 58.1562C84.857 57.8711 84.6961 57.5352 84.6961 57.1094C84.6961 56.582 85.1051 55.7109 86.4483 55.7109C87.227 55.7109 88.0251 56.2344 88.103 56.293C88.2977 56.4102 88.4339 56.3516 88.5508 56.1758L88.6289 56.0586L88.7065 55.9414C88.8623 55.7109 88.7065 55.5547 88.6286 55.5156C88.6286 55.5156 87.7137 54.875 86.4677 54.875C84.4626 54.875 83.7812 56.2539 83.7812 57.1289C83.7812 58.5625 84.6184 59.1289 86.0006 59.75C87.4605 60.3516 88.2198 60.875 88.2198 61.75C88.2198 62.4883 87.558 63.1484 86.5261 63.1484C85.5461 63.1484 84.7273 62.4727 84.4646 62.2578L84.3847 62.1953C84.2094 62.0391 84.0732 62.1367 83.937 62.3125C83.8785 62.3906 83.8006 62.4688 83.7423 62.5469C83.5865 62.7773 83.7229 62.8945 83.8202 62.9727C83.9759 63.1289 84.9883 64 86.4873 64C87.9668 64 89.2127 63.0508 89.2127 61.7305C89.2127 60.2344 88.1225 59.5938 86.4094 58.8945ZM92.6978 57.1094C92.6978 57.9609 93.3403 58.4492 94.4111 58.8945C96.1242 59.5938 97.2339 60.2344 97.2144 61.7305C97.2144 63.0508 95.9685 64 94.4889 64C92.99 64 91.9776 63.1289 91.8219 62.9727C91.7246 62.8945 91.5882 62.7773 91.744 62.5469L91.8416 62.4297L91.9387 62.3125C92.0749 62.1367 92.2112 62.0391 92.3864 62.1953C92.4837 62.2539 93.3988 63.1484 94.5278 63.1484C95.5597 63.1484 96.2215 62.4883 96.2215 61.75C96.2215 60.875 95.4622 60.3516 94.0023 59.75C92.6201 59.1289 91.7829 58.5625 91.7829 57.1289C91.7829 56.2539 92.4643 54.875 94.4695 54.875C95.7154 54.875 96.6303 55.5156 96.6303 55.5156C96.7082 55.5547 96.864 55.7109 96.7082 55.9414L96.6306 56.0586L96.5525 56.1758C96.4356 56.3516 96.2994 56.4102 96.1047 56.293C96.0268 56.2344 95.2287 55.7109 94.45 55.7109C93.1068 55.7109 92.6978 56.582 92.6978 57.1094Z" fill="white"/>
<path fill-rule="evenodd" clip-rule="evenodd" d="M30.7 1.00781C30.7583 0.445312 31.3229 0 31.829 0H32.1211L30.3884 2.875L30.7 1.00781ZM33.5229 0.234375C33.6787 0.332031 33.8345 0.46875 33.9124 0.621094L34.1459 1.05078L29.4932 8.09766L29.902 5.73047L33.5229 0.234375ZM35.6262 28.1172L25.0359 34.4688L25.25 33.2852L35.8015 26.9531L35.6262 28.1172ZM35.2744 30.5977L24.762 36.1328L24.9371 35.0273L35.4302 29.4922L35.2744 30.5977ZM53.6136 38.2695L54.0419 37.4727L48.6105 36.3281L43.2179 37.4727L43.6462 38.2695L48.6299 37.2031L53.6136 38.2695ZM48.6298 42.9531L46.1573 43.1094L46.5857 43.9453L48.6298 43.8281L50.6738 43.9258L51.1022 43.0898L48.6298 42.9531ZM44.2106 39.3594L44.6389 40.1758L48.6492 39.5352L52.6595 40.1758L53.0878 39.3594L48.6687 38.6602L44.2106 39.3594ZM47.5741 45.4375C47.3643 45.2969 47.2324 45.1172 47.1311 44.9531H50.1292C49.9149 45.3008 49.5646 45.7109 48.6301 45.7109C48.1378 45.7109 47.8076 45.5977 47.5741 45.4375ZM48.63 40.8516L45.1842 41.2188L45.6125 42.0352L48.63 41.707L51.6475 42.0352L52.0757 41.2188L48.63 40.8516ZM34.964 32.8711L24.5099 37.6484L24.7046 36.582L35.1198 31.8242L34.964 32.8711ZM24.7438 44.7578H32.1998C32.5242 44.7578 32.8185 44.625 33.0328 44.4219C33.2045 44.2617 33.3247 44.0586 33.3679 43.8438L23.9266 44.4023L33.4459 43.3633L33.5627 42.4883L23.5175 43.5742L33.6597 41.9219L33.7959 41.0273L23.6727 42.6406L23.5365 43.3594L23.5175 43.5742C23.5282 43.7578 23.5687 43.9297 23.6357 44.082L23.6896 44.1875L23.7428 44.2734L23.8483 44.4062C24.0819 44.6211 24.3933 44.7578 24.7438 44.7578ZM24.2766 39.0273L34.6528 34.9688L34.7891 33.9609L24.4324 38.0195L24.2766 39.0273ZM24.0625 40.2891L34.3804 36.8945L34.5166 35.9219L24.2183 39.3008L24.0625 40.2891ZM23.8673 41.4531L34.1267 38.6992L34.2631 37.7461L24.0231 40.5039L23.8673 41.4531ZM33.8923 40.3711L23.6913 42.543L23.847 41.6328L34.0286 39.457L33.8923 40.3711ZM38.7206 9.57422L27.2152 21.5547L26.9426 23.207L39.1877 10.4492L38.7206 9.57422ZM27.7795 18.3125L37.455 7.20703L37.9417 8.10156L27.468 20.1211L27.7795 18.3125ZM40.0062 11.9414L26.7292 24.4258L26.4762 25.9609L40.454 12.7969L40.0062 11.9414ZM28.3837 14.6602L36.1708 4.83594L36.6769 5.75L28.0527 16.6211L28.3837 14.6602ZM41.2708 14.293L26.3002 26.9922L26.0665 28.4102L41.7185 15.1289L41.2708 14.293ZM34.9059 2.46484L29.0851 10.5039L28.7152 12.6602L35.3926 3.41797L34.9059 2.46484ZM25.9115 29.3008L42.5369 16.6602L42.9846 17.4766L25.6779 30.6406L25.9115 29.3008ZM47.6174 26.0781L39.2659 29.9023L39.6747 30.6992L48.0458 26.875L47.6174 26.0781ZM40.2583 31.8086L48.6294 28.5273L57.0005 31.8086L56.5917 32.6055L48.6294 29.5L40.6671 32.6055L40.2583 31.8086ZM41.2518 33.707L41.6606 34.5039L48.63 32.2148L55.5995 34.5039L56.0083 33.707L48.63 31.2812L41.2518 33.707ZM25.5609 31.3945L43.8215 19.0273L44.2499 19.8438L25.3468 32.6602L25.5609 31.3945ZM46.3524 23.7266L38.2539 28L38.6823 28.793L46.7808 24.5234L46.3524 23.7266ZM42.2252 35.5898L48.63 33.8633L54.996 35.5898L54.5872 36.3867L48.6106 34.7773L42.634 36.3867L42.2252 35.5898ZM45.0869 21.3789L37.261 26.0781L37.6893 26.8945L45.5153 22.1953L45.0869 21.3789ZM61.8093 29.4766L72.3024 35.0117L72.4775 36.1172L61.9651 30.582L61.8093 29.4766ZM72.011 33.2852L61.4596 26.9531L61.6348 28.1172L72.2252 34.4688L72.011 33.2852ZM62.1598 31.8086L72.575 36.5664L72.7697 37.6328L62.3156 32.8555L62.1598 31.8086ZM65.0608 44.7578H72.517C72.6647 44.7578 72.8054 44.7344 72.9349 44.6914C73.1127 44.6289 73.269 44.5312 73.3929 44.4062C73.6066 44.1953 73.7234 43.9258 73.7039 43.5742L63.6781 42.4883L63.7949 43.3633L73.3137 44.4023L63.8733 43.8438C63.9901 44.3086 64.4768 44.7578 65.0608 44.7578ZM63.7371 0.234375L67.3776 5.75L67.7668 8.09766L63.1141 1.05078L63.3478 0.621094C63.4257 0.46875 63.5813 0.332031 63.7371 0.234375ZM72.8087 38L62.4519 33.9414L62.5881 34.9492L72.9644 39.0078L72.8087 38ZM73.0231 39.3008L62.7441 35.9219L62.8804 36.8945L73.1982 40.2891L73.0231 39.3008ZM73.6067 42.625L73.7235 43.3594C73.7235 43.418 73.7235 43.4766 73.7429 43.5156L63.6198 41.9062L63.4835 41.0117L73.6067 42.625ZM73.2373 40.5039L62.9973 37.7461L63.1335 38.6992L73.3931 41.4531L73.2373 40.5039ZM63.2305 39.4375L73.412 41.6133L73.5677 42.5234L63.3667 40.3516L63.2305 39.4375ZM70.0441 21.5547L58.5387 9.57422L58.0715 10.4492L70.3167 23.207L70.0441 21.5547ZM59.8236 7.20703L69.499 18.3125L69.8105 20.1211L59.3369 8.10156L59.8236 7.20703ZM70.5309 24.4258L57.2734 11.9414L56.8063 12.7969L70.7841 25.9609L70.5309 24.4258ZM61.0892 4.83594L68.8762 14.6602L69.2267 16.6211L60.6025 5.75L61.0892 4.83594ZM70.9592 26.9922L55.9886 14.293L55.5409 15.1289L71.1929 28.4102L70.9592 26.9922ZM65.4498 0C65.9365 0 66.5205 0.445312 66.5789 1.00781L66.9099 2.875L65.1772 0H65.4498ZM68.1755 10.5039L62.3546 2.46484L61.8485 3.41797L68.5259 12.6602L68.1755 10.5039ZM54.7234 16.6797L71.3488 29.3203L71.5824 30.6602L54.2756 17.4961L54.7234 16.6797ZM49.2144 26.875L57.5854 30.6992L57.9943 29.9023L49.6427 26.0781L49.2144 26.875ZM53.4579 19.0273L71.699 31.3945L71.9326 32.6602L53.0295 19.8438L53.4579 19.0273ZM50.4796 24.5234L58.5781 28.793L59.0065 28L50.908 23.7266L50.4796 24.5234ZM59.5706 26.875L51.7446 22.1758L52.173 21.3594L59.9989 26.0586L59.5706 26.875Z" fill="currentColor"/>
</svg>
