<svg width="14" height="14" viewBox="0 0 14 14" fill="none" xmlns="http://www.w3.org/2000/svg">
<path fill-rule="evenodd" clip-rule="evenodd" d="M6 1.75C3.65279 1.75 1.75 3.65279 1.75 6C1.75 8.34721 3.65279 10.25 6 10.25C8.34721 10.25 10.25 8.34721 10.25 6C10.25 3.65279 8.34721 1.75 6 1.75ZM0.25 6C0.25 2.82436 2.82436 0.25 6 0.25C9.17564 0.25 11.75 2.82436 11.75 6C11.75 9.17564 9.17564 11.75 6 11.75C2.82436 11.75 0.25 9.17564 0.25 6Z" fill="#000"/>
<path fill-rule="evenodd" clip-rule="evenodd" d="M9.46967 9.46967C9.76256 9.17678 10.2374 9.17678 10.5303 9.46967L13.5303 12.4697C13.8232 12.7626 13.8232 13.2374 13.5303 13.5303C13.2374 13.8232 12.7626 13.8232 12.4697 13.5303L9.46967 10.5303C9.17678 10.2374 9.17678 9.76256 9.46967 9.46967Z" fill="#000"/>
</svg>
