<svg width="24" height="24" viewBox="0 0 24 24" fill="none" xmlns="http://www.w3.org/2000/svg">
<path d="M6 16.5V11.25L11.205 14.5031C11.6914 14.8071 12.3086 14.8071 12.795 14.5031L18 11.25V16.5H6Z" fill="black"/>
<path fill-rule="evenodd" clip-rule="evenodd" d="M5.63642 10.594C5.87489 10.4618 6.1663 10.4695 6.3975 10.614L11.6025 13.8671C11.8457 14.0191 12.1543 14.0191 12.3975 13.8671L17.6025 10.614C17.8337 10.4695 18.1251 10.4618 18.3636 10.594C18.602 10.7262 18.75 10.9774 18.75 11.25V16.5C18.75 16.9142 18.4142 17.25 18 17.25H6C5.58579 17.25 5.25 16.9142 5.25 16.5V11.25C5.25 10.9774 5.39796 10.7262 5.63642 10.594ZM17.25 12.6032L13.1925 15.1391C12.4629 15.5951 11.5371 15.5951 10.8075 15.1391L6.75 12.6032V15.75H17.25V12.6032Z" fill="black"/>
<path d="M11.8012 11.1258L6 7.5H18L12.1987 11.1258C12.0771 11.2018 11.9229 11.2018 11.8012 11.1258Z" fill="black"/>
<path fill-rule="evenodd" clip-rule="evenodd" d="M5.279 7.29324C5.37124 6.97162 5.66536 6.75 5.99994 6.75H17.9999C18.3345 6.75 18.6286 6.97162 18.7209 7.29324C18.8131 7.61485 18.6812 7.95867 18.3974 8.136L12.5962 11.7618C12.2314 11.9898 11.7685 11.9898 11.4037 11.7618L5.60244 8.136C5.31872 7.95867 5.18677 7.61485 5.279 7.29324ZM8.61504 8.25L11.9999 10.3656L15.3848 8.25H8.61504Z" fill="black"/>
</svg>
