<svg width="24" height="24" viewBox="0 0 24 24" fill="none" xmlns="http://www.w3.org/2000/svg">
<path fill-rule="evenodd" clip-rule="evenodd" d="M12 10.4022C11.1177 10.4022 10.4022 11.1177 10.4022 12C10.4022 12.8823 11.1177 13.5978 12 13.5978C12.8824 13.5978 13.5979 12.8823 13.5979 12C13.5979 11.1177 12.8824 10.4022 12 10.4022ZM8.90222 12C8.90222 10.2893 10.2893 8.90219 12 8.90219C13.7108 8.90219 15.0979 10.2893 15.0979 12C15.0979 13.7108 13.7108 15.0978 12 15.0978C10.2893 15.0978 8.90222 13.7108 8.90222 12Z" fill="black"/>
<path fill-rule="evenodd" clip-rule="evenodd" d="M12 6.75C9.10017 6.75 6.75 9.10061 6.75 12C6.75 14.8999 9.10013 17.25 12 17.25C12.6165 17.25 13.2057 17.1461 13.7518 16.9546C14.1427 16.8175 14.5706 17.0232 14.7077 17.4141C14.8448 17.805 14.6391 18.233 14.2482 18.37C13.5431 18.6173 12.7861 18.75 12 18.75C8.2717 18.75 5.25 15.7283 5.25 12C5.25 8.27226 8.27166 5.25 12 5.25C15.7283 5.25 18.75 8.27226 18.75 12V12.5217C18.75 13.9451 17.5965 15.0978 16.1739 15.0978C14.7513 15.0978 13.5978 13.9451 13.5978 12.5217V12H15.0978V12.5217C15.0978 13.1164 15.5795 13.5978 16.1739 13.5978C16.7684 13.5978 17.25 13.1164 17.25 12.5217V12C17.25 9.10061 14.8998 6.75 12 6.75Z" fill="black"/>
</svg>
