<svg width="24" height="24" viewBox="0 0 24 24" fill="none" xmlns="http://www.w3.org/2000/svg">
<path fill-rule="evenodd" clip-rule="evenodd" d="M11.5634 5.31861C11.8295 5.441 12 5.7071 12 6V18C12 18.2929 11.8295 18.559 11.5634 18.6814C11.2973 18.8038 10.9843 18.7601 10.7619 18.5694L7.97256 16.1786H5.25C4.83579 16.1786 4.5 15.8428 4.5 15.4286V8.57142C4.5 8.15721 4.83579 7.82142 5.25 7.82142H7.97256L10.7619 5.43055C10.9843 5.23994 11.2973 5.19622 11.5634 5.31861ZM10.5 7.63066L8.73809 9.14087C8.60216 9.25738 8.42903 9.32142 8.25 9.32142H6V14.6786H8.25C8.42903 14.6786 8.60216 14.7426 8.73809 14.8591L10.5 16.3693V7.63066Z" fill="black"/>
<path fill-rule="evenodd" clip-rule="evenodd" d="M14.4697 9.59467C14.7626 9.30178 15.2374 9.30178 15.5303 9.59467L16.875 10.9393L18.2197 9.59467C18.5126 9.30178 18.9874 9.30178 19.2803 9.59467C19.5732 9.88756 19.5732 10.3624 19.2803 10.6553L17.9357 12L19.2803 13.3447C19.5732 13.6376 19.5732 14.1124 19.2803 14.4053C18.9874 14.6982 18.5126 14.6982 18.2197 14.4053L16.875 13.0607L15.5303 14.4053C15.2374 14.6982 14.7626 14.6982 14.4697 14.4053C14.1768 14.1124 14.1768 13.6376 14.4697 13.3447L15.8143 12L14.4697 10.6553C14.1768 10.3624 14.1768 9.88756 14.4697 9.59467Z" fill="black"/>
</svg>
