<svg width="24" height="24" viewBox="0 0 24 24" fill="none" xmlns="http://www.w3.org/2000/svg">
<path d="M6.3891 6.09247C6.62906 5.96082 6.92175 5.97034 7.15265 6.11719L15 11.111V6.75001C15 6.33582 15.3358 6.00001 15.75 6.00001H17.25C17.6642 6.00001 18 6.33582 18 6.75001V17.25C18 17.6642 17.6642 18 17.25 18H15.75C15.3358 18 15 17.6642 15 17.25V12.889L7.15265 17.8828C6.92175 18.0297 6.62906 18.0392 6.3891 17.9075C6.14914 17.7757 6 17.5237 6 17.25V6.75001C6 6.47626 6.14914 6.22431 6.3891 6.09247Z" fill="black"/>
</svg>
