<svg width="24" height="24" viewBox="0 0 24 24" fill="none" xmlns="http://www.w3.org/2000/svg">
<path d="M7.5 17.25V6.75H9V17.25H7.5Z" fill="black"/>
<path fill-rule="evenodd" clip-rule="evenodd" d="M6.75 6.75C6.75 6.33579 7.08579 6 7.5 6H9C9.41421 6 9.75 6.33579 9.75 6.75V17.25C9.75 17.6642 9.41421 18 9 18H7.5C7.08579 18 6.75 17.6642 6.75 17.25V6.75Z" fill="black"/>
<path d="M15 17.25V6.75H16.5V17.25H15Z" fill="black"/>
<path fill-rule="evenodd" clip-rule="evenodd" d="M14.25 6.75C14.25 6.33579 14.5858 6 15 6H16.5C16.9142 6 17.25 6.33579 17.25 6.75V17.25C17.25 17.6642 16.9142 18 16.5 18H15C14.5858 18 14.25 17.6642 14.25 17.25V6.75Z" fill="black"/>
</svg>
