<svg width="24" height="24" viewBox="0 0 24 24" fill="none" xmlns="http://www.w3.org/2000/svg">
<path fill-rule="evenodd" clip-rule="evenodd" d="M12 3C7.02944 3 3 7.02944 3 12C3 15.8127 5.37224 19.0723 8.72015 20.3836C8.6415 19.6715 8.57046 18.5764 8.75143 17.799C8.91491 17.0967 9.80671 13.3255 9.80671 13.3255C9.80671 13.3255 9.5375 12.7863 9.5375 11.9893C9.5375 10.7378 10.2629 9.80353 11.166 9.80353C11.9339 9.80353 12.3047 10.3801 12.3047 11.0714C12.3047 11.8435 11.8131 12.998 11.5594 14.0679C11.3473 14.9637 12.0086 15.6942 12.8921 15.6942C14.4917 15.6942 15.7213 14.0076 15.7213 11.5729C15.7213 9.41806 14.1729 7.91135 11.962 7.91135C9.40124 7.91135 7.89807 9.83208 7.89807 11.8171C7.89807 12.5906 8.19605 13.4201 8.56788 13.871C8.64143 13.9601 8.6522 14.0382 8.63036 14.1291C8.56197 14.4134 8.41014 15.0247 8.38034 15.1498C8.34109 15.3145 8.24991 15.3494 8.07934 15.2702C6.9553 14.7469 6.25252 13.1036 6.25252 11.7835C6.25252 8.9445 8.31527 6.33729 12.1992 6.33729C15.3212 6.33729 17.7475 8.56197 17.7475 11.5352C17.7475 14.637 15.7918 17.1332 13.0773 17.1332C12.1654 17.1332 11.308 16.6594 11.0145 16.0998C11.0145 16.0998 10.5632 17.8182 10.4538 18.2392C10.2506 19.021 9.70209 20.0009 9.33521 20.5986C10.1773 20.8593 11.0722 21 12 21C16.9706 21 21 16.9706 21 12C21 7.02944 16.9706 3 12 3Z" fill="black"/>
</svg>
