<svg width="24" height="24" viewBox="0 0 24 24" fill="none" xmlns="http://www.w3.org/2000/svg">
<path fill-rule="evenodd" clip-rule="evenodd" d="M12 2C6.47716 2 2 6.47716 2 12C2 16.2364 4.63582 19.8581 8.35572 21.3151C8.26834 20.5239 8.1894 19.3071 8.39047 18.4434C8.57212 17.663 9.56301 13.4728 9.56301 13.4728C9.56301 13.4728 9.26389 12.8737 9.26389 11.9881C9.26389 10.5976 10.0698 9.55948 11.0733 9.55948C11.9265 9.55948 12.3386 10.2001 12.3386 10.9682C12.3386 11.8261 11.7923 13.1089 11.5104 14.2976C11.2748 15.293 12.0096 16.1047 12.9912 16.1047C14.7686 16.1047 16.1348 14.2307 16.1348 11.5254C16.1348 9.13118 14.4144 7.45706 11.9577 7.45706C9.11249 7.45706 7.4423 9.5912 7.4423 11.7968C7.4423 12.6562 7.77339 13.5779 8.18653 14.0789C8.26825 14.1779 8.28022 14.2647 8.25596 14.3657C8.17997 14.6816 8.01127 15.3608 7.97815 15.4998C7.93455 15.6828 7.83323 15.7216 7.64371 15.6335C6.39478 15.0521 5.61391 13.2262 5.61391 11.7595C5.61391 8.605 7.90585 5.7081 12.2213 5.7081C15.6903 5.7081 18.3861 8.17997 18.3861 11.4835C18.3861 14.93 16.2131 17.7036 13.197 17.7036C12.1837 17.7036 11.2311 17.1772 10.905 16.5553C10.905 16.5553 10.4035 18.4646 10.282 18.9324C10.0562 19.8011 9.44677 20.8898 9.03912 21.554C9.97475 21.8437 10.9691 22 12 22C17.5228 22 22 17.5228 22 12C22 6.47716 17.5228 2 12 2Z" fill="black"/>
</svg>
