<svg width="24" height="24" viewBox="0 0 24 24" fill="none" xmlns="http://www.w3.org/2000/svg">
<mask id="mask0" mask-type="alpha" maskUnits="userSpaceOnUse" x="4" y="4" width="16" height="16">
<path d="M4 4H19.999V19.9989H4V4Z" fill="#000"/>
</mask>
<g mask="url(#mask0)">
<path fill-rule="evenodd" clip-rule="evenodd" d="M11.9995 4C7.58151 4 4 7.58151 4 11.9995C4 15.3884 6.10852 18.2856 9.08426 19.4511C9.01436 18.8182 8.95121 17.8449 9.11207 17.1539C9.25738 16.5296 10.05 13.1776 10.05 13.1776C10.05 13.1776 9.81075 12.6984 9.81075 11.99C9.81075 10.8776 10.4555 10.0472 11.2582 10.0472C11.9407 10.0472 12.2704 10.5597 12.2704 11.1741C12.2704 11.8604 11.8334 12.8866 11.6079 13.8375C11.4194 14.6338 12.0071 15.2831 12.7925 15.2831C14.2142 15.2831 15.3071 13.7839 15.3071 11.6199C15.3071 9.70459 13.9309 8.36538 11.9657 8.36538C9.68964 8.36538 8.35357 10.0726 8.35357 11.837C8.35357 12.5245 8.61843 13.2618 8.94892 13.6625C9.0143 13.7417 9.02387 13.8111 9.00446 13.8919C8.94367 14.1447 8.80872 14.688 8.78223 14.7991C8.74734 14.9456 8.6663 14.9766 8.51469 14.9062C7.51561 14.441 6.89095 12.9804 6.89095 11.8071C6.89095 9.28367 8.72439 6.9663 12.1765 6.9663C14.9515 6.9663 17.1081 8.94367 17.1081 11.5864C17.1081 14.3433 15.3698 16.5621 12.957 16.5621C12.1465 16.5621 11.3844 16.141 11.1235 15.6435C11.1235 15.6435 10.7224 17.1709 10.6252 17.5451C10.4446 18.24 9.95705 19.111 9.63095 19.6422C10.3794 19.874 11.1748 19.999 11.9995 19.999C16.4175 19.999 19.999 16.4175 19.999 11.9995C19.999 7.58151 16.4175 4 11.9995 4Z" fill="#000"/>
</g>
</svg>
