<svg width="24" height="24" viewBox="0 0 24 24" fill="none" xmlns="http://www.w3.org/2000/svg">
<path fill-rule="evenodd" clip-rule="evenodd" d="M0 12C0 5.37258 5.37258 0 12 0C18.6274 0 24 5.37258 24 12C24 18.6274 18.6274 24 12 24C5.37258 24 0 18.6274 0 12ZM12 0.96C5.90278 0.96 0.96 5.90278 0.96 12C0.96 18.0972 5.90278 23.04 12 23.04C18.0972 23.04 23.04 18.0972 23.04 12C23.04 5.90278 18.0972 0.96 12 0.96Z" fill="black"/>
<path fill-rule="evenodd" clip-rule="evenodd" d="M16.2936 11.7744L10.6236 8.09533C10.4612 7.98975 10.2398 7.97024 10.0539 8.04494C9.86799 8.11952 9.75 8.27527 9.75 8.44596V15.8041C9.75 15.9747 9.86799 16.1305 10.0539 16.2052C10.1289 16.2353 10.2097 16.25 10.29 16.25C10.4087 16.25 10.5267 16.2177 10.6236 16.1547L16.2936 12.4757C16.424 12.3911 16.5 12.2619 16.5 12.125C16.5 11.9882 16.424 11.8589 16.2936 11.7744Z" fill="black"/>
</svg>
