<svg width="24" height="24" viewBox="0 0 24 24" fill="none" xmlns="http://www.w3.org/2000/svg">
<path fill-rule="evenodd" clip-rule="evenodd" d="M12.6569 6.18638C12.9725 6.18638 13.2283 6.44016 13.2283 6.7532L13.2283 10.996L17.5056 10.996C17.8212 10.996 18.077 11.2498 18.077 11.5628C18.077 11.8759 17.8212 12.1296 17.5056 12.1296L13.2283 12.1296V16.3724C13.2283 16.6855 12.9725 16.9393 12.6569 16.9393C12.3413 16.9393 12.0854 16.6855 12.0854 16.3724V12.1296L7.80813 12.1296C7.49254 12.1296 7.2367 11.8759 7.2367 11.5628C7.2367 11.2498 7.49254 10.996 7.80813 10.996L12.0854 10.996L12.0854 6.7532C12.0854 6.44016 12.3413 6.18638 12.6569 6.18638Z" fill="black"/>
</svg>
