<svg width="24" height="24" viewBox="0 0 24 24" fill="none" xmlns="http://www.w3.org/2000/svg">
<circle cx="12" cy="12" r="11" stroke="black" stroke-width="1.5"/>
<path fill-rule="evenodd" clip-rule="evenodd" d="M7.60974 12C7.60974 11.5399 7.98274 11.1669 8.44287 11.1669L11.1669 11.1669V8.44287C11.1669 7.98274 11.5399 7.60974 12 7.60974C12.4601 7.60974 12.8331 7.98274 12.8331 8.44287V11.1669H15.5571C16.0172 11.1669 16.3902 11.5399 16.3902 12C16.3902 12.4601 16.0172 12.8331 15.5571 12.8331H12.8331V15.5571C12.8331 16.0172 12.4601 16.3902 12 16.3902C11.5399 16.3902 11.1669 16.0172 11.1669 15.5571V12.8331H8.44287C7.98274 12.8331 7.60974 12.4601 7.60974 12Z" fill="black"/>
</svg>
