<svg width="24" height="24" viewBox="0 0 24 24" fill="none" xmlns="http://www.w3.org/2000/svg">
<path fill-rule="evenodd" clip-rule="evenodd" d="M12 6.57983C12.3156 6.57983 12.5714 6.83567 12.5714 7.15126V11.4286H16.8487C17.1643 11.4286 17.4202 11.6844 17.4202 12C17.4202 12.3156 17.1643 12.5714 16.8487 12.5714H12.5714V16.8487C12.5714 17.1643 12.3156 17.4202 12 17.4202C11.6844 17.4202 11.4286 17.1643 11.4286 16.8487V12.5714H7.15126C6.83567 12.5714 6.57983 12.3156 6.57983 12C6.57983 11.6844 6.83567 11.4286 7.15126 11.4286H11.4286V7.15126C11.4286 6.83567 11.6844 6.57983 12 6.57983Z" fill="black"/>
</svg>
