<svg width="24" height="24" viewBox="0 0 24 24" fill="none" xmlns="http://www.w3.org/2000/svg">
<path d="M17.6109 17.9075C17.3709 18.0392 17.0782 18.0297 16.8474 17.8828L9 12.889V17.25C9 17.6642 8.66418 18 8.25 18H6.75C6.33582 18 6 17.6642 6 17.25V6.75001C6 6.33582 6.33582 6.00001 6.75 6.00001H8.25C8.66418 6.00001 9 6.33582 9 6.75001V11.111L16.8474 6.11719C17.0782 5.97034 17.3709 5.96082 17.6109 6.09247C17.8509 6.22431 18 6.47626 18 6.75001V17.25C18 17.5237 17.8509 17.7757 17.6109 17.9075Z" fill="black"/>
</svg>
