<svg width="24" height="24" viewBox="0 0 24 24" fill="none" xmlns="http://www.w3.org/2000/svg">
<path fill-rule="evenodd" clip-rule="evenodd" d="M17.9998 5.91666C18.4141 5.91666 18.7498 6.25245 18.7498 6.66666V10C18.7498 10.4142 18.4141 10.75 17.9998 10.75H14.6665C14.2523 10.75 13.9165 10.4142 13.9165 10C13.9165 9.58578 14.2523 9.25 14.6665 9.25H17.2498V6.66666C17.2498 6.25245 17.5856 5.91666 17.9998 5.91666Z" fill="black"/>
<path fill-rule="evenodd" clip-rule="evenodd" d="M12 6.75C9.66729 6.75 7.41163 8.25506 6.70715 10.2498C6.56921 10.6403 6.14077 10.8451 5.7502 10.7072C5.35963 10.5692 5.15483 10.1408 5.29277 9.75024C6.23362 7.08627 9.10863 5.25 12 5.25C14.8913 5.25 17.7663 7.08627 18.7072 9.75024C18.8451 10.1408 18.6403 10.5692 18.2497 10.7072C17.8592 10.8451 17.4307 10.6403 17.2928 10.2498C16.5883 8.25506 14.3326 6.75 12 6.75Z" fill="black"/>
<path fill-rule="evenodd" clip-rule="evenodd" d="M5.25 14C5.25 13.5858 5.58579 13.25 6 13.25H9.33333C9.74755 13.25 10.0833 13.5858 10.0833 14C10.0833 14.4142 9.74755 14.75 9.33333 14.75H6.75V17.3333C6.75 17.7475 6.41421 18.0833 6 18.0833C5.58579 18.0833 5.25 17.7475 5.25 17.3333V14Z" fill="black"/>
<path fill-rule="evenodd" clip-rule="evenodd" d="M5.7502 13.2928C6.14077 13.1549 6.56921 13.3596 6.70715 13.7502C7.41163 15.7449 9.66729 17.25 12 17.25C14.3326 17.25 16.5883 15.7449 17.2928 13.7502C17.4307 13.3596 17.8592 13.1549 18.2497 13.2928C18.6403 13.4307 18.8451 13.8592 18.7072 14.2497C17.7663 16.9137 14.8913 18.75 12 18.75C9.10863 18.75 6.23362 16.9137 5.29277 14.2497C5.15483 13.8592 5.35963 13.4307 5.7502 13.2928Z" fill="black"/>
</svg>
