<svg width="24" height="24" viewBox="0 0 24 24" fill="none" xmlns="http://www.w3.org/2000/svg">
<mask id="path-1-inside-1" fill="black">
<path fill-rule="evenodd" clip-rule="evenodd" d="M12 24C18.6274 24 24 18.6274 24 12C24 5.37258 18.6274 0 12 0C5.37258 0 0 5.37258 0 12C0 18.6274 5.37258 24 12 24ZM7.1331 12.4429L10.3157 15.8605L10.3147 15.8595C10.3556 15.9038 10.4053 15.9392 10.4605 15.9633C10.5158 15.9875 10.5754 16 10.6358 16C10.6961 16 10.7557 15.9875 10.811 15.9633C10.8662 15.9392 10.9159 15.9038 10.9568 15.8595L16.8679 9.5083C16.9537 9.41522 17.0013 9.29329 17.0013 9.16674C17.0013 9.04018 16.9537 8.91825 16.8679 8.82517L16.2248 8.14104C16.1839 8.09658 16.1342 8.06109 16.0788 8.03681C16.0235 8.01253 15.9637 8 15.9033 8C15.8428 8 15.783 8.01253 15.7277 8.03681C15.6723 8.06109 15.6226 8.09658 15.5817 8.14104L10.6388 13.469L8.41834 11.0756C8.37742 11.0313 8.32777 10.9959 8.27251 10.9718C8.21726 10.9476 8.1576 10.9351 8.09728 10.9351C8.03697 10.9351 7.97731 10.9476 7.92205 10.9718C7.8668 10.9959 7.81715 11.0313 7.77622 11.0756L7.1331 11.7587C7.04749 11.8521 7 11.9741 7 12.1008C7 12.2275 7.04749 12.3495 7.1331 12.4429Z"/>
</mask>
<path fill-rule="evenodd" clip-rule="evenodd" d="M12 24C18.6274 24 24 18.6274 24 12C24 5.37258 18.6274 0 12 0C5.37258 0 0 5.37258 0 12C0 18.6274 5.37258 24 12 24ZM7.1331 12.4429L10.3157 15.8605L10.3147 15.8595C10.3556 15.9038 10.4053 15.9392 10.4605 15.9633C10.5158 15.9875 10.5754 16 10.6358 16C10.6961 16 10.7557 15.9875 10.811 15.9633C10.8662 15.9392 10.9159 15.9038 10.9568 15.8595L16.8679 9.5083C16.9537 9.41522 17.0013 9.29329 17.0013 9.16674C17.0013 9.04018 16.9537 8.91825 16.8679 8.82517L16.2248 8.14104C16.1839 8.09658 16.1342 8.06109 16.0788 8.03681C16.0235 8.01253 15.9637 8 15.9033 8C15.8428 8 15.783 8.01253 15.7277 8.03681C15.6723 8.06109 15.6226 8.09658 15.5817 8.14104L10.6388 13.469L8.41834 11.0756C8.37742 11.0313 8.32777 10.9959 8.27251 10.9718C8.21726 10.9476 8.1576 10.9351 8.09728 10.9351C8.03697 10.9351 7.97731 10.9476 7.92205 10.9718C7.8668 10.9959 7.81715 11.0313 7.77622 11.0756L7.1331 11.7587C7.04749 11.8521 7 11.9741 7 12.1008C7 12.2275 7.04749 12.3495 7.1331 12.4429Z" fill="black"/>
<path d="M10.3157 15.8605L8.90149 17.2747L11.7794 14.4975L10.3157 15.8605ZM7.1331 12.4429L5.65909 13.7946L5.66425 13.8003L5.66945 13.8058L7.1331 12.4429ZM10.3147 15.8595L11.7289 14.4453L8.84559 17.2166L10.3147 15.8595ZM10.4605 15.9633L11.2624 14.1311L11.2624 14.1311L10.4605 15.9633ZM10.811 15.9633L11.6128 17.7956L11.6128 17.7956L10.811 15.9633ZM10.9568 15.8595L9.49279 14.4969L9.48773 14.5024L10.9568 15.8595ZM16.8679 9.5083L18.332 10.8709L18.3389 10.8634L16.8679 9.5083ZM16.8679 8.82517L18.3389 7.47002L18.332 7.46263L18.3252 7.45531L16.8679 8.82517ZM16.2248 8.14104L14.7534 9.49568L14.7605 9.50333L14.7676 9.51091L16.2248 8.14104ZM16.0788 8.03681L15.2755 9.86837L15.2755 9.86838L16.0788 8.03681ZM15.5817 8.14104L17.0479 9.50129L17.0531 9.49566L15.5817 8.14104ZM10.6388 13.469L9.17254 14.8293L10.6387 16.4097L12.105 14.8293L10.6388 13.469ZM8.41834 11.0756L6.94923 12.4327L6.95212 12.4358L8.41834 11.0756ZM8.27251 10.9718L9.07434 9.13953L9.0743 9.13951L8.27251 10.9718ZM7.92205 10.9718L7.12026 9.13951L7.12023 9.13952L7.92205 10.9718ZM7.77622 11.0756L9.23244 12.4465L9.23892 12.4396L9.24534 12.4327L7.77622 11.0756ZM7.1331 11.7587L5.67689 10.3878L5.66793 10.3973L5.6591 10.4069L7.1331 11.7587ZM22 12C22 17.5228 17.5228 22 12 22V26C19.732 26 26 19.732 26 12H22ZM12 2C17.5228 2 22 6.47715 22 12H26C26 4.26801 19.732 -2 12 -2V2ZM2 12C2 6.47715 6.47715 2 12 2V-2C4.26801 -2 -2 4.26801 -2 12H2ZM12 22C6.47715 22 2 17.5228 2 12H-2C-2 19.732 4.26801 26 12 26V22ZM11.7794 14.4975L8.59675 11.0799L5.66945 13.8058L8.85205 17.2235L11.7794 14.4975ZM8.90049 17.2737L8.90149 17.2747L11.7299 14.4463L11.7289 14.4453L8.90049 17.2737ZM11.2624 14.1311C11.4599 14.2176 11.6375 14.344 11.7838 14.5024L8.84559 17.2166C9.07379 17.4636 9.35065 17.6608 9.65872 17.7956L11.2624 14.1311ZM10.6358 14C10.8514 14 11.0648 14.0446 11.2624 14.1311L9.65871 17.7956C9.96683 17.9304 10.2995 18 10.6358 18V14ZM10.0092 14.1311C10.2068 14.0446 10.4201 14 10.6358 14V18C10.972 18 11.3047 17.9304 11.6128 17.7956L10.0092 14.1311ZM9.48773 14.5024C9.63407 14.344 9.8116 14.2176 10.0092 14.1311L11.6128 17.7956C11.9209 17.6608 12.1977 17.4636 12.4259 17.2166L9.48773 14.5024ZM15.4039 8.14572L9.4928 14.4969L12.4208 17.2221L18.332 10.8709L15.4039 8.14572ZM15.0013 9.16674C15.0013 8.79117 15.1426 8.42935 15.397 8.15315L18.3389 10.8634C18.7648 10.4011 19.0013 9.79542 19.0013 9.16674H15.0013ZM15.397 10.1803C15.1426 9.90412 15.0013 9.5423 15.0013 9.16674H19.0013C19.0013 8.53805 18.7648 7.93238 18.3389 7.47002L15.397 10.1803ZM14.7676 9.51091L15.4107 10.195L18.3252 7.45531L17.682 6.77118L14.7676 9.51091ZM15.2755 9.86838C15.0776 9.78157 14.8998 9.65466 14.7534 9.49568L17.6962 6.7864C17.468 6.53849 17.1908 6.3406 16.8822 6.20524L15.2755 9.86838ZM15.9033 10C15.6871 10 15.4734 9.95518 15.2755 9.86837L16.8822 6.20525C16.5736 6.06989 16.2402 6 15.9033 6V10ZM16.5311 9.86837C16.3331 9.95518 16.1194 10 15.9033 10V6C15.5663 6 15.2329 6.06989 14.9243 6.20525L16.5311 9.86837ZM17.0531 9.49566C16.9067 9.65467 16.7289 9.78157 16.5311 9.86837L14.9243 6.20525C14.6157 6.34061 14.3386 6.53849 14.1103 6.78642L17.0531 9.49566ZM12.105 14.8293L17.0479 9.50128L14.1155 6.78081L9.17256 12.1088L12.105 14.8293ZM6.95212 12.4358L9.17254 14.8293L12.105 12.1088L9.88456 9.71538L6.95212 12.4358ZM7.47069 12.804C7.27312 12.7175 7.09558 12.5911 6.94923 12.4327L9.88745 9.7185C9.65926 9.47147 9.38241 9.27435 9.07434 9.13953L7.47069 12.804ZM8.09728 12.9351C7.88161 12.9351 7.66829 12.8905 7.47072 12.804L9.0743 9.13951C8.76623 9.0047 8.43358 8.9351 8.09728 8.9351V12.9351ZM8.72385 12.804C8.52628 12.8905 8.31295 12.9351 8.09728 12.9351V8.9351C7.76099 8.9351 7.42834 9.0047 7.12026 9.13951L8.72385 12.804ZM9.24534 12.4327C9.09899 12.5911 8.92145 12.7175 8.72388 12.804L7.12023 9.13952C6.81215 9.27435 6.5353 9.47147 6.30711 9.71851L9.24534 12.4327ZM8.58931 13.1297L9.23244 12.4465L6.32001 9.70467L5.67689 10.3878L8.58931 13.1297ZM9 12.1008C9 12.4747 8.85981 12.835 8.60711 13.1105L5.6591 10.4069C5.23518 10.8692 5 11.4736 5 12.1008H9ZM8.60711 11.0911C8.85981 11.3666 9 11.7269 9 12.1008H5C5 12.728 5.23518 13.3324 5.65909 13.7946L8.60711 11.0911Z" fill="black" mask="url(#path-1-inside-1)"/>
</svg>
