<svg width="24" height="24" viewBox="0 0 24 24" fill="none" xmlns="http://www.w3.org/2000/svg">
<path d="M11.3157 15.8605L8.1331 12.4429C8.04749 12.3495 8 12.2275 8 12.1008C8 11.9741 8.04749 11.8521 8.1331 11.7587L8.77622 11.0756C8.81715 11.0313 8.8668 10.9959 8.92205 10.9718C8.97731 10.9476 9.03697 10.9351 9.09728 10.9351C9.1576 10.9351 9.21726 10.9476 9.27251 10.9718C9.32777 10.9959 9.37742 11.0313 9.41834 11.0756L11.6388 13.469L16.5817 8.14104C16.6226 8.09658 16.6723 8.06109 16.7277 8.03681C16.783 8.01253 16.8428 8 16.9033 8C16.9637 8 17.0235 8.01253 17.0788 8.03681C17.1342 8.06109 17.1839 8.09658 17.2248 8.14104L17.8679 8.82517C17.9537 8.91825 18.0013 9.04018 18.0013 9.16674C18.0013 9.29329 17.9537 9.41522 17.8679 9.5083L11.9568 15.8595C11.9159 15.9038 11.8662 15.9392 11.811 15.9633C11.7557 15.9875 11.6961 16 11.6358 16C11.5754 16 11.5158 15.9875 11.4605 15.9633C11.4053 15.9392 11.3556 15.9038 11.3147 15.8595" fill="black"/>
<circle cx="12" cy="12" r="11" stroke="black" stroke-width="2"/>
</svg>
