<svg width="24" height="24" viewBox="0 0 24 24" fill="none" xmlns="http://www.w3.org/2000/svg">
<path d="M12.9744 5.1728L19.7004 10.5329C19.7939 10.6079 19.8694 10.7029 19.9212 10.811C19.9731 10.919 20 11.0373 20 11.1572C20 11.2771 19.9731 11.3954 19.9212 11.5034C19.8694 11.6115 19.7939 11.7065 19.7004 11.7815L12.9675 17.1554C12.8496 17.2488 12.7077 17.307 12.5582 17.3234C12.4087 17.3398 12.2575 17.3138 12.1222 17.2483C11.9868 17.1827 11.8726 17.0804 11.7927 16.9529C11.7129 16.8254 11.6705 16.6781 11.6706 16.5276V13.8166C10.2028 13.9085 8.79694 14.4409 7.63644 15.3442C6.47593 16.2475 5.61476 17.4797 5.16535 18.88C5.13901 18.9638 5.08672 19.037 5.01604 19.0891C4.94536 19.1411 4.85994 19.1694 4.77214 19.1697C4.68434 19.1694 4.59893 19.1411 4.52824 19.0891C4.45756 19.037 4.40527 18.9638 4.37893 18.88C4.00469 17.7016 3.90595 16.453 4.09031 15.2304C4.27467 14.0078 4.73721 12.8439 5.44231 11.8282C6.1474 10.8125 7.07623 9.97229 8.15724 9.37217C9.23825 8.77206 10.4426 8.4281 11.6775 8.36678V5.80056C11.6774 5.65015 11.7197 5.50276 11.7996 5.3753C11.8795 5.24784 11.9937 5.14548 12.1291 5.07994C12.2644 5.01441 12.4156 4.98836 12.5651 5.00479C12.7146 5.02121 12.8565 5.07944 12.9744 5.1728Z" fill="black"/>
</svg>
