<svg width="24" height="24" viewBox="0 0 24 24" fill="none" xmlns="http://www.w3.org/2000/svg">
<path fill-rule="evenodd" clip-rule="evenodd" d="M12 2.625C6.94717 2.625 2.625 6.26859 2.625 11.0262C2.625 13.1455 3.49885 15.063 4.90741 16.5221L3.34598 19.8958C3.15984 20.298 3.24854 20.7739 3.56706 21.082C3.88558 21.3901 4.36418 21.463 4.75996 21.2636L9.17565 19.0391C10.0685 19.2915 11.0173 19.4274 12 19.4274C17.0529 19.4274 21.375 15.783 21.375 11.0262C21.375 6.26859 17.0528 2.625 12 2.625ZM7.71698 9.51727C7.67878 9.57838 7.63804 9.62421 7.59475 9.65477C7.55401 9.68532 7.50054 9.7006 7.43434 9.7006C7.37577 9.7006 7.31212 9.68278 7.24337 9.64713C7.17716 9.60893 7.10077 9.56692 7.0142 9.52108C6.93017 9.47525 6.83341 9.43451 6.72392 9.39886C6.61443 9.36067 6.48966 9.34157 6.34962 9.34157C6.10772 9.34157 5.92693 9.39377 5.80725 9.49817C5.69013 9.60002 5.63156 9.73879 5.63156 9.91449C5.63156 10.0265 5.66721 10.1195 5.7385 10.1933C5.8098 10.2671 5.90274 10.3308 6.01732 10.3843C6.13445 10.4378 6.26686 10.4874 6.41455 10.5332C6.56478 10.5765 6.71756 10.6262 6.87288 10.6822C7.0282 10.7357 7.17971 10.7993 7.32739 10.8732C7.47762 10.947 7.61003 11.0412 7.72462 11.1558C7.84175 11.2704 7.93596 11.4104 8.00725 11.5759C8.07855 11.7389 8.1142 11.9362 8.1142 12.168C8.1142 12.4251 8.06964 12.6658 7.98052 12.8898C7.8914 13.1139 7.76154 13.31 7.59094 13.478C7.42288 13.6435 7.21408 13.7747 6.96455 13.8714C6.71756 13.9656 6.43619 14.0128 6.12045 14.0128C5.9473 14.0128 5.77033 13.9949 5.58955 13.9593C5.41131 13.9236 5.23816 13.874 5.0701 13.8103C4.90205 13.7441 4.74418 13.6665 4.59649 13.5773C4.44881 13.4882 4.32022 13.3889 4.21073 13.2794L4.59267 12.6759C4.62323 12.6327 4.66269 12.597 4.71107 12.569C4.762 12.5384 4.81675 12.5232 4.87531 12.5232C4.9517 12.5232 5.02809 12.5474 5.10448 12.5957C5.18341 12.6441 5.27126 12.6976 5.36802 12.7562C5.46732 12.8147 5.58063 12.8682 5.70795 12.9166C5.83526 12.965 5.9855 12.9891 6.15864 12.9891C6.3929 12.9891 6.57496 12.9382 6.70482 12.8364C6.83469 12.732 6.89962 12.5677 6.89962 12.3437C6.89962 12.2138 6.86397 12.1081 6.79267 12.0266C6.72138 11.9452 6.62716 11.8777 6.51003 11.8242C6.39545 11.7707 6.26431 11.7236 6.11663 11.6829C5.96894 11.6421 5.81744 11.5976 5.66212 11.5492C5.50679 11.4983 5.35529 11.4372 5.2076 11.3659C5.05992 11.292 4.92751 11.1965 4.81038 11.0794C4.6958 10.9597 4.60286 10.8121 4.53156 10.6364C4.46026 10.4581 4.42462 10.2391 4.42462 9.97942C4.42462 9.77062 4.46663 9.56692 4.55066 9.36831C4.63469 9.1697 4.75818 8.99273 4.92114 8.8374C5.08411 8.68208 5.28399 8.55859 5.5208 8.46692C5.7576 8.37271 6.02878 8.3256 6.33434 8.3256C6.50494 8.3256 6.67045 8.3396 6.83087 8.36761C6.99383 8.39308 7.14788 8.43254 7.29302 8.48602C7.43816 8.53694 7.57311 8.59933 7.69788 8.67317C7.82519 8.74446 7.93851 8.82595 8.03781 8.91761L7.71698 9.51727ZM15.1283 8.38671V13.9516H13.9901V10.7509C13.9901 10.6771 13.9914 10.5969 13.9939 10.5103C13.999 10.4237 14.0067 10.3359 14.0169 10.2468L12.5387 13.1075C12.4929 13.1967 12.4305 13.2641 12.3516 13.31C12.2752 13.3558 12.1873 13.3787 12.088 13.3787H11.9123C11.813 13.3787 11.7239 13.3558 11.645 13.31C11.5686 13.2641 11.5075 13.1967 11.4616 13.1075L9.98352 10.2391C9.99116 10.3308 9.99752 10.4212 10.0026 10.5103C10.0077 10.5969 10.0103 10.6771 10.0103 10.7509V13.9516H8.87206V8.38671H9.85748C9.9135 8.38671 9.96187 8.38798 10.0026 8.39053C10.0459 8.39308 10.0841 8.40071 10.1172 8.41345C10.1503 8.42618 10.1796 8.44655 10.205 8.47456C10.2331 8.50002 10.2598 8.53694 10.2853 8.58532L11.7175 11.4079C11.7685 11.5047 11.8169 11.6052 11.8627 11.7096C11.9111 11.814 11.9569 11.921 12.0002 12.0305C12.0435 11.9184 12.088 11.8089 12.1339 11.702C12.1822 11.595 12.2332 11.4932 12.2866 11.3964L13.7151 8.58532C13.7406 8.53694 13.766 8.50002 13.7915 8.47456C13.8195 8.44655 13.8501 8.42618 13.8832 8.41345C13.9163 8.40071 13.9532 8.39308 13.9939 8.39053C14.0372 8.38798 14.0869 8.38671 14.1429 8.38671H15.1283ZM19.1575 9.65477C19.2008 9.62421 19.2416 9.57838 19.2797 9.51727L19.6006 8.91761C19.5013 8.82595 19.388 8.74446 19.2607 8.67317C19.1359 8.59933 19.0009 8.53694 18.8558 8.48602C18.7107 8.43254 18.5566 8.39308 18.3936 8.36761C18.2332 8.3396 18.0677 8.3256 17.8971 8.3256C17.5916 8.3256 17.3204 8.37271 17.0836 8.46692C16.8468 8.55859 16.6469 8.68208 16.4839 8.8374C16.321 8.99273 16.1975 9.1697 16.1134 9.36831C16.0294 9.56692 15.9874 9.77062 15.9874 9.97942C15.9874 10.2391 16.023 10.4581 16.0943 10.6364C16.1656 10.8121 16.2586 10.9597 16.3732 11.0794C16.4903 11.1965 16.6227 11.292 16.7704 11.3659C16.9181 11.4372 17.0696 11.4983 17.2249 11.5492C17.3802 11.5976 17.5317 11.6421 17.6794 11.6829C17.8271 11.7236 17.9582 11.7707 18.0728 11.8242C18.1899 11.8777 18.2841 11.9452 18.3554 12.0266C18.4267 12.1081 18.4624 12.2138 18.4624 12.3437C18.4624 12.5677 18.3975 12.732 18.2676 12.8364C18.1377 12.9382 17.9557 12.9891 17.7214 12.9891C17.5483 12.9891 17.398 12.965 17.2707 12.9166C17.1434 12.8682 17.0301 12.8147 16.9308 12.7562C16.834 12.6976 16.7462 12.6441 16.6672 12.5957C16.5909 12.5474 16.5145 12.5232 16.4381 12.5232C16.3795 12.5232 16.3248 12.5384 16.2738 12.569C16.2255 12.597 16.186 12.6327 16.1554 12.6759L15.7735 13.2794C15.883 13.3889 16.0116 13.4882 16.1593 13.5773C16.3069 13.6665 16.4648 13.7441 16.6329 13.8103C16.8009 13.874 16.9741 13.9236 17.1523 13.9593C17.3331 13.9949 17.5101 14.0128 17.6832 14.0128C17.999 14.0128 18.2803 13.9656 18.5273 13.8714C18.7769 13.7747 18.9856 13.6435 19.1537 13.478C19.3243 13.31 19.4542 13.1139 19.5433 12.8898C19.6324 12.6658 19.677 12.4251 19.677 12.168C19.677 11.9362 19.6413 11.7389 19.57 11.5759C19.4987 11.4104 19.4045 11.2704 19.2874 11.1558C19.1728 11.0412 19.0404 10.947 18.8902 10.8732C18.7425 10.7993 18.591 10.7357 18.4356 10.6822C18.2803 10.6262 18.1275 10.5765 17.9773 10.5332C17.8296 10.4874 17.6972 10.4378 17.5801 10.3843C17.4655 10.3308 17.3726 10.2671 17.3013 10.1933C17.23 10.1195 17.1943 10.0265 17.1943 9.91449C17.1943 9.73879 17.2529 9.60002 17.37 9.49817C17.4897 9.39377 17.6705 9.34157 17.9124 9.34157C18.0524 9.34157 18.1772 9.36067 18.2867 9.39886C18.3962 9.43451 18.4929 9.47525 18.577 9.52108C18.6635 9.56692 18.7399 9.60893 18.8061 9.64713C18.8749 9.68278 18.9385 9.7006 18.9971 9.7006C19.0633 9.7006 19.1168 9.68532 19.1575 9.65477Z" fill="black"/>
</svg>
