<svg width="24" height="24" viewBox="0 0 24 24" fill="none" xmlns="http://www.w3.org/2000/svg">
<path d="M14.16 9.32311L12 5.625L9.84002 9.32311L5.625 10.2439L8.4975 13.3986L8.0475 17.625L12 15.9269L15.9525 17.625L15.5025 13.3986L18.375 10.2439L14.16 9.32311Z" fill="black"/>
<path fill-rule="evenodd" clip-rule="evenodd" d="M12 4.875C12.2666 4.875 12.5132 5.01653 12.6477 5.24674L14.6417 8.66064L18.5351 9.51115C18.7969 9.56833 19.0082 9.76082 19.0896 10.0161C19.171 10.2714 19.11 10.5507 18.9296 10.7488L16.284 13.6543L16.6983 17.5456C16.7265 17.8105 16.6121 18.0704 16.3977 18.2286C16.1834 18.3867 15.9012 18.4192 15.6565 18.3141L12 16.7432L8.34357 18.3141C8.09882 18.4192 7.81667 18.3867 7.6023 18.2286C7.38794 18.0704 7.27353 17.8105 7.30173 17.5456L7.71605 13.6543L5.07046 10.7488C4.89007 10.5507 4.82907 10.2714 4.91044 10.0161C4.99181 9.76082 5.20319 9.56833 5.46495 9.51115L9.35842 8.66063L11.3524 5.24674C11.4869 5.01653 11.7334 4.875 12 4.875ZM12 7.11205L10.4877 9.70138C10.3819 9.88252 10.205 10.0111 10.0001 10.0558L7.0541 10.6994L9.05207 12.8936C9.19639 13.0521 9.266 13.2648 9.2433 13.478L8.92899 16.43L11.704 15.2378C11.893 15.1566 12.1071 15.1566 12.2961 15.2378L15.071 16.43L14.7568 13.478C14.7341 13.2648 14.8037 13.0521 14.948 12.8936L16.946 10.6994L14 10.0558C13.795 10.0111 13.6182 9.88252 13.5124 9.70138L12 7.11205Z" fill="black"/>
</svg>
