<svg width="24" height="24" viewBox="0 0 24 24" fill="none" xmlns="http://www.w3.org/2000/svg">
<path fill-rule="evenodd" clip-rule="evenodd" d="M7.42531 10.5037C7.83746 10.4625 8.205 10.7632 8.24621 11.1754L8.86114 17.3246C8.89948 17.708 9.2221 18 9.60742 18H14.3925C14.7778 18 15.1004 17.708 15.1387 17.3246L15.7537 11.1754C15.7949 10.7632 16.1624 10.4625 16.5746 10.5037C16.9867 10.5449 17.2874 10.9125 17.2462 11.3246L16.6313 17.4739C16.5163 18.6241 15.5484 19.5 14.3925 19.5H9.60742C8.45147 19.5 7.4836 18.6241 7.36858 17.4739L6.75366 11.3246C6.71244 10.9125 7.01315 10.5449 7.42531 10.5037Z" fill="black"/>
<path fill-rule="evenodd" clip-rule="evenodd" d="M6 8.0625C6 7.64829 6.33579 7.3125 6.75 7.3125H17.25C17.6642 7.3125 18 7.64829 18 8.0625C18 8.47671 17.6642 8.8125 17.25 8.8125H6.75C6.33579 8.8125 6 8.47671 6 8.0625Z" fill="black"/>
<path fill-rule="evenodd" clip-rule="evenodd" d="M9.3852 5.1267C9.44547 4.76506 9.75837 4.5 10.125 4.5H13.875C14.2416 4.5 14.5545 4.76506 14.6148 5.1267L14.9898 7.3767C15.0579 7.78528 14.7819 8.1717 14.3733 8.2398C13.9647 8.30789 13.5783 8.03188 13.5102 7.6233L13.2396 6H10.7603L10.4898 7.6233C10.4217 8.03188 10.0353 8.30789 9.6267 8.2398C9.21812 8.1717 8.9421 7.78528 9.0102 7.3767L9.3852 5.1267Z" fill="black"/>
</svg>
