<svg width="24" height="24" viewBox="0 0 24 24" fill="none" xmlns="http://www.w3.org/2000/svg">
<path d="M8.28251 20C15.8295 20 19.9592 13.8425 19.9592 8.51181C19.9592 8.33858 19.9592 8.16535 19.9512 7.99213C20.7515 7.4252 21.4478 6.70866 22 5.89764C21.2637 6.22047 20.4714 6.43307 19.6391 6.53543C20.4874 6.03937 21.1357 5.24409 21.4478 4.29921C20.6555 4.76378 19.7751 5.09449 18.8387 5.27559C18.0864 4.48819 17.022 4 15.8455 4C13.5806 4 11.7399 5.81102 11.7399 8.03937C11.7399 8.35433 11.7799 8.66142 11.8439 8.96063C8.43457 8.79527 5.40936 7.1811 3.38455 4.74016C3.03241 5.33858 2.83233 6.0315 2.83233 6.77165C2.83233 8.17323 3.56062 9.40945 4.65706 10.1339C3.98479 10.1102 3.35254 9.92913 2.80032 9.62992C2.80032 9.64567 2.80032 9.66142 2.80032 9.68504C2.80032 11.6378 4.21689 13.2756 6.08964 13.6457C5.7455 13.7402 5.38535 13.7874 5.0092 13.7874C4.7451 13.7874 4.489 13.7638 4.2409 13.7165C4.7611 15.3228 6.28171 16.4882 8.07443 16.5197C6.66587 17.6063 4.89716 18.252 2.97639 18.252C2.64826 18.252 2.32013 18.2362 2 18.1969C3.80872 19.3307 5.96959 20 8.28251 20Z" fill="black"/>
</svg>
