<svg width="50" height="50" viewBox="0 0 50 50" fill="none" xmlns="http://www.w3.org/2000/svg">
<path fill-rule="evenodd" clip-rule="evenodd" d="M39.204 16.6233C38.1818 17.1226 37.1596 17.289 35.9671 17.4555C37.1596 16.7898 38.0114 15.7912 38.3521 14.4598C37.33 15.1255 36.1374 15.4583 34.7745 15.7912C33.7523 14.7926 32.219 14.1269 30.6858 14.1269C27.6192 14.1269 25.0638 16.6233 25.0638 19.619C25.0638 20.1183 25.0638 20.4512 25.2341 20.784C20.6343 20.6176 16.5456 18.454 13.6494 15.1255C13.1383 15.9576 12.9679 16.7898 12.9679 17.9548C12.9679 19.7855 13.9901 21.4497 15.5234 22.4483C14.6716 22.4483 13.8198 22.1154 12.9679 21.7826C12.9679 24.4454 14.8419 26.609 17.3974 27.1083C16.8863 27.2747 16.3752 27.2747 15.8641 27.2747C15.5234 27.2747 15.1827 27.2747 14.8419 27.1083C15.5234 29.2718 17.5678 30.9361 20.1232 30.9361C18.2492 32.434 15.8641 33.2661 13.1383 33.2661C12.6272 33.2661 12.2865 33.2661 11.7754 33.2661C14.3308 34.764 17.227 35.7625 20.2936 35.7625C30.5154 35.7625 36.1374 27.4411 36.1374 20.2847C36.1374 20.1183 36.1374 19.7855 36.1374 19.619C37.5003 18.7869 38.5225 17.7883 39.204 16.6233Z" fill="#000"/>
</svg>
