<svg width="24" height="24" viewBox="0 0 24 24" fill="none" xmlns="http://www.w3.org/2000/svg">
<path d="M24 0H0V24H24V0Z" fill="transparent"/>
<path d="M9.21586 18.0963C14.8739 18.0963 17.9699 13.4043 17.9699 9.3423C17.9699 9.2103 17.9699 9.0783 17.9639 8.9463C18.5639 8.5143 19.0859 7.9683 19.4999 7.3503C18.9479 7.5963 18.3539 7.7583 17.7299 7.8363C18.3659 7.4583 18.8519 6.8523 19.0859 6.1323C18.4919 6.4863 17.8319 6.7383 17.1299 6.8763C16.5659 6.2763 15.7679 5.9043 14.8859 5.9043C13.1879 5.9043 11.8079 7.2843 11.8079 8.9823C11.8079 9.2223 11.8379 9.4563 11.8859 9.6843C9.32986 9.5583 7.06186 8.3283 5.54386 6.4683C5.27986 6.9243 5.12986 7.4523 5.12986 8.0163C5.12986 9.0843 5.67586 10.0263 6.49786 10.5783C5.99386 10.5603 5.51986 10.4223 5.10586 10.1943C5.10586 10.2063 5.10586 10.2183 5.10586 10.2363C5.10586 11.7243 6.16786 12.9723 7.57186 13.2543C7.31386 13.3263 7.04386 13.3623 6.76186 13.3623C6.56386 13.3623 6.37186 13.3443 6.18586 13.3083C6.57586 14.5323 7.71586 15.4203 9.05986 15.4443C8.00386 16.2723 6.67786 16.7643 5.23786 16.7643C4.99186 16.7643 4.74586 16.7523 4.50586 16.7223C5.86186 17.5863 7.48186 18.0963 9.21586 18.0963Z" fill="#000"/>
</svg>
