<svg width="50" height="50" viewBox="0 0 50 50" fill="none" xmlns="http://www.w3.org/2000/svg">
<path fill-rule="evenodd" clip-rule="evenodd" d="M39.204 16.6234C38.1818 17.1227 37.1596 17.2891 35.9671 17.4555C37.1596 16.7898 38.0114 15.7912 38.3521 14.4598C37.33 15.1255 36.1374 15.4584 34.7745 15.7912C33.7523 14.7927 32.219 14.127 30.6858 14.127C27.6192 14.127 25.0638 16.6234 25.0638 19.6191C25.0638 20.1184 25.0638 20.4512 25.2341 20.7841C20.6343 20.6176 16.5456 18.4541 13.6494 15.1255C13.1383 15.9577 12.9679 16.7898 12.9679 17.9548C12.9679 19.7855 13.9901 21.4498 15.5234 22.4483C14.6716 22.4483 13.8198 22.1155 12.9679 21.7826C12.9679 24.4455 14.8419 26.609 17.3974 27.1083C16.8863 27.2747 16.3752 27.2748 15.8641 27.2748C15.5234 27.2748 15.1827 27.2747 14.8419 27.1083C15.5234 29.2719 17.5678 30.9362 20.1232 30.9362C18.2492 32.434 15.8641 33.2662 13.1383 33.2662C12.6272 33.2662 12.2865 33.2662 11.7754 33.2662C14.3308 34.764 17.227 35.7626 20.2936 35.7626C30.5154 35.7626 36.1374 27.4412 36.1374 20.2848C36.1374 20.1184 36.1374 19.7855 36.1374 19.6191C37.5003 18.7869 38.5225 17.7884 39.204 16.6234Z" fill="#000000"/>
</svg>
