<svg width="24" height="24" viewBox="0 0 24 24" fill="none" xmlns="http://www.w3.org/2000/svg">
<path d="M8.65426 19C15.4466 19 19.1633 13.6122 19.1633 8.94783C19.1633 8.79626 19.1633 8.64469 19.1561 8.49311C19.8764 7.99705 20.503 7.37008 21 6.66043C20.3373 6.94291 19.6243 7.12894 18.8752 7.2185C19.6387 6.78445 20.2221 6.08858 20.503 5.26181C19.7899 5.66831 18.9976 5.95768 18.1549 6.11614C17.4778 5.42717 16.5198 5 15.461 5C13.4226 5 11.7659 6.58465 11.7659 8.53445C11.7659 8.81004 11.8019 9.07874 11.8595 9.34055C8.79112 9.19587 6.06843 7.78346 4.2461 5.64764C3.92917 6.17126 3.7491 6.77756 3.7491 7.4252C3.7491 8.65157 4.40456 9.73327 5.39136 10.3671C4.78631 10.3465 4.21729 10.188 3.72029 9.92618C3.72029 9.93996 3.72029 9.95374 3.72029 9.97441C3.72029 11.6831 4.9952 13.1161 6.68067 13.44C6.37095 13.5226 6.04682 13.564 5.70828 13.564C5.47059 13.564 5.2401 13.5433 5.01681 13.502C5.48499 14.9075 6.85354 15.9272 8.46699 15.9547C7.19928 16.9055 5.60744 17.4705 3.87875 17.4705C3.58343 17.4705 3.28812 17.4567 3 17.4222C4.62785 18.4144 6.57263 19 8.65426 19Z" fill="black"/>
</svg>
