<svg width="24" height="24" viewBox="0 0 24 24" fill="none" xmlns="http://www.w3.org/2000/svg">
<path fill-rule="evenodd" clip-rule="evenodd" d="M11.5634 5.31861C11.8295 5.441 12 5.7071 12 6V18C12 18.2929 11.8295 18.559 11.5634 18.6814C11.2973 18.8038 10.9843 18.7601 10.7619 18.5694L7.97256 16.1786H5.25C4.83579 16.1786 4.5 15.8428 4.5 15.4286V8.57142C4.5 8.15721 4.83579 7.82142 5.25 7.82142H7.97256L10.7619 5.43055C10.9843 5.23994 11.2973 5.19622 11.5634 5.31861ZM10.5 7.63066L8.73809 9.14087C8.60216 9.25738 8.42903 9.32142 8.25 9.32142H6V14.6786H8.25C8.42903 14.6786 8.60216 14.7426 8.73809 14.8591L10.5 16.3693V7.63066Z" fill="black"/>
<path fill-rule="evenodd" clip-rule="evenodd" d="M14.6985 9.25075C15.0778 9.08426 15.5202 9.25677 15.6867 9.63605C15.9901 10.3272 16.1249 11.1834 16.1249 12C16.1249 12.8166 15.9901 13.6728 15.6867 14.3639C15.5202 14.7432 15.0778 14.9157 14.6985 14.7493C14.3192 14.5828 14.1467 14.1403 14.3132 13.7611C14.5098 13.3131 14.6249 12.6763 14.6249 12C14.6249 11.3237 14.5098 10.6869 14.3132 10.2389C14.1467 9.85966 14.3192 9.41723 14.6985 9.25075Z" fill="black"/>
<path fill-rule="evenodd" clip-rule="evenodd" d="M17.6453 7.9641C18.0103 7.76828 18.465 7.90543 18.6608 8.27043C19.2339 9.33865 19.4999 10.6898 19.4999 12C19.4999 13.3102 19.2339 14.6613 18.6608 15.7296C18.465 16.0946 18.0103 16.2317 17.6453 16.0359C17.2803 15.8401 17.1432 15.3854 17.339 15.0204C17.7659 14.2247 17.9999 13.1329 17.9999 12C17.9999 10.8671 17.7659 9.7753 17.339 8.97956C17.1432 8.61456 17.2803 8.15992 17.6453 7.9641Z" fill="black"/>
</svg>
