<svg width="20" height="18" viewBox="0 0 20 18" fill="none" xmlns="http://www.w3.org/2000/svg">
<path fill-rule="evenodd" clip-rule="evenodd" d="M9.41786 0.0915015C9.77266 0.254687 10 0.609485 10 1.00001V17C10 17.3905 9.77266 17.7453 9.41786 17.9085C9.06306 18.0717 8.64572 18.0134 8.34921 17.7593L4.63008 14.5714H1C0.447715 14.5714 0 14.1237 0 13.5714V4.42859C0 3.8763 0.447715 3.42859 1 3.42859H4.63008L8.34921 0.240758C8.64572 -0.0133956 9.06306 -0.071684 9.41786 0.0915015ZM8 3.17423L5.65079 5.18784C5.46955 5.34319 5.23871 5.42859 5 5.42859H2V12.5714H5C5.23871 12.5714 5.46955 12.6568 5.65079 12.8122L8 14.8258V3.17423Z" fill="white"/>
<path fill-rule="evenodd" clip-rule="evenodd" d="M0.598321 0.0845823C1.10403 -0.137398 1.69394 0.0926102 1.91592 0.598321C2.32043 1.51986 2.50025 2.66139 2.50025 3.75025C2.50025 4.83911 2.32043 5.98065 1.91592 6.90218C1.69394 7.40789 1.10403 7.6379 0.598321 7.41592C0.0926102 7.19394 -0.137398 6.60403 0.0845823 6.09832C0.346743 5.50107 0.500252 4.652 0.500252 3.75025C0.500252 2.84851 0.346743 1.99943 0.0845823 1.40218C-0.137398 0.896473 0.0926102 0.306563 0.598321 0.0845823Z" transform="translate(12.9998 5.24974)" fill="white"/>
<path fill-rule="evenodd" clip-rule="evenodd" d="M0.527442 0.119001C1.01411 -0.142094 1.6203 0.0407712 1.88139 0.527442C2.64551 1.95173 3.0002 3.75331 3.0002 5.5002C3.0002 7.24708 2.64551 9.04866 1.88139 10.4729C1.6203 10.9596 1.01411 11.1425 0.527442 10.8814C0.0407712 10.6203 -0.142094 10.0141 0.119001 9.52744C0.688212 8.46645 1.0002 7.01067 1.0002 5.5002C1.0002 3.98972 0.688212 2.53394 0.119001 1.47295C-0.142094 0.986279 0.0407712 0.380095 0.527442 0.119001Z" transform="translate(16.9998 3.4998)" fill="white"/>
</svg>
