<svg width="24" height="24" viewBox="0 0 24 24" fill="none" xmlns="http://www.w3.org/2000/svg">
<path fill-rule="evenodd" clip-rule="evenodd" d="M6 15C6.41421 15 6.75 15.3358 6.75 15.75V16.5C6.75 16.9142 7.08579 17.25 7.5 17.25H16.5C16.9142 17.25 17.25 16.9142 17.25 16.5V15.75C17.25 15.3358 17.5858 15 18 15C18.4142 15 18.75 15.3358 18.75 15.75V16.5C18.75 17.7426 17.7426 18.75 16.5 18.75H7.5C6.25736 18.75 5.25 17.7426 5.25 16.5V15.75C5.25 15.3358 5.58579 15 6 15Z" fill="black"/>
<path fill-rule="evenodd" clip-rule="evenodd" d="M8.46967 9.53033C8.76256 9.82322 9.23744 9.82322 9.53033 9.53033L12 7.06066L14.4697 9.53033C14.7626 9.82322 15.2374 9.82322 15.5303 9.53033C15.8232 9.23744 15.8232 8.76256 15.5303 8.46967L12.5303 5.46967C12.2374 5.17678 11.7626 5.17678 11.4697 5.46967L8.46967 8.46967C8.17678 8.76256 8.17678 9.23744 8.46967 9.53033Z" fill="black"/>
<path fill-rule="evenodd" clip-rule="evenodd" d="M12 15C12.4142 15 12.75 14.6642 12.75 14.25V6.375C12.75 5.96079 12.4142 5.625 12 5.625C11.5858 5.625 11.25 5.96079 11.25 6.375V14.25C11.25 14.6642 11.5858 15 12 15Z" fill="black"/>
</svg>
