<svg width="25" height="24" viewBox="0 0 25 24" fill="none" xmlns="http://www.w3.org/2000/svg">
<path fill-rule="evenodd" clip-rule="evenodd" d="M10.5168 15.4575C10.081 15.257 9.68711 14.9902 9.34769 14.6508C9.00686 14.31 8.74287 13.914 8.54242 13.481L4.40927 17.6141C4.14527 17.8781 4 18.2294 4 18.6017C4 18.9753 4.14527 19.3252 4.40927 19.5892C4.67326 19.8532 5.02386 19.9985 5.39681 19.9985C5.76976 19.9985 6.12036 19.8532 6.38435 19.5892L10.5168 15.4575Z" fill="black"/>
<path fill-rule="evenodd" clip-rule="evenodd" d="M19.2168 8.56456C18.9731 9.87197 18.2307 11.1996 17.1258 12.3045C15.7639 13.6671 14.0409 14.48 12.517 14.48C12.2006 14.48 11.9087 14.4319 11.6314 14.3627C12.9032 13.9933 14.5682 12.887 16.1376 11.317C17.3186 10.1367 18.2733 8.86487 18.8257 7.73485C18.9898 7.40032 19.1107 7.09023 19.1952 6.80318C19.3258 7.32699 19.3369 7.92203 19.2168 8.56456ZM9.60194 10.6132C9.84568 9.30652 10.5888 7.97745 11.6937 6.87258C13.0549 5.51138 14.7778 4.69844 16.3017 4.69844C16.6181 4.69844 16.9093 4.74593 17.1873 4.81577C15.9155 5.18453 14.2505 6.2908 12.6812 7.86082C11.5002 9.04182 10.5455 10.3143 9.99235 11.4436C9.82892 11.7775 9.70809 12.0876 9.62429 12.3746C9.49299 11.8508 9.48251 11.2565 9.60194 10.6132ZM10.6194 11.7508C11.1397 10.6885 12.0469 9.4824 13.1749 8.35447C14.2951 7.23353 16.736 5.24098 18.1224 5.38276L10.1983 13.3062C10.1627 12.9409 10.3058 12.3913 10.6194 11.7508ZM18.1992 7.42811C17.6789 8.49038 16.7717 9.69583 15.6438 10.8231C14.402 12.0648 12.0316 13.9324 10.697 13.7948L18.6204 5.87137C18.656 6.23663 18.5128 6.78628 18.1992 7.42811ZM18.9773 5.02107C18.3096 4.35339 17.3843 4 16.3017 4C14.5969 4 12.6889 4.88977 11.1999 6.37947C9.99583 7.58282 9.18499 9.04109 8.9154 10.4854C8.63744 11.9779 8.96569 13.2818 9.84149 14.1569C10.5092 14.8253 11.4345 15.1787 12.5171 15.1787C14.2226 15.1787 16.1299 14.2889 17.6196 12.7985C18.8237 11.5959 19.6345 10.1369 19.9034 8.69258C20.1821 7.20009 19.8531 5.89617 18.9773 5.02107Z" fill="black"/>
</svg>
