<svg width="24" height="24" viewBox="0 0 24 24" fill="none" xmlns="http://www.w3.org/2000/svg">
<path fill-rule="evenodd" clip-rule="evenodd" d="M19.8568 5.48872C20.7005 5.71862 21.3648 6.39599 21.5903 7.25619C22.0001 8.81522 22.0001 12.0681 22.0001 12.0681C22.0001 12.0681 22.0001 15.3209 21.5903 16.8802C21.3648 17.7403 20.7005 18.4176 19.8568 18.6476C18.3277 19.0653 12.1961 19.0653 12.1961 19.0653C12.1961 19.0653 6.06446 19.0653 4.53538 18.6476C3.69179 18.4176 3.02734 17.7403 2.80185 16.8802C2.39209 15.3209 2.39209 12.0681 2.39209 12.0681C2.39209 12.0681 2.39209 8.81522 2.80185 7.25619C3.02734 6.39599 3.69179 5.71862 4.53538 5.48872C6.06446 5.07092 12.1961 5.07092 12.1961 5.07092C12.1961 5.07092 18.3277 5.07092 19.8568 5.48872ZM15.3142 12.0688L10.1894 15.022V9.11526L15.3142 12.0688Z" fill="black"/>
</svg>
