<svg width="32" height="32" viewBox="0 0 32 32" fill="none" xmlns="http://www.w3.org/2000/svg">
<path d="M11.273 7.03956C11.6522 7.44108 12.2851 7.45917 12.6866 7.07995C13.0881 6.70074 13.1062 6.06784 12.727 5.66632L11.273 7.03956ZM6 0L6.72701 -0.686624C6.5381 -0.886646 6.27513 -1 6 -1C5.72487 -1 5.4619 -0.886646 5.27299 -0.686624L6 0ZM-0.727013 5.66632C-1.10622 6.06784 -1.08814 6.70074 -0.686624 7.07995C-0.285105 7.45917 0.347801 7.44108 0.727013 7.03956L-0.727013 5.66632ZM12.727 5.66632L6.72701 -0.686624L5.27299 0.686624L11.273 7.03956L12.727 5.66632ZM5.27299 -0.686624L-0.727013 5.66632L0.727013 7.03956L6.72701 0.686624L5.27299 -0.686624Z" transform="translate(10 13)" fill="white"/>
</svg>
