<svg width="32" height="32" viewBox="0 0 32 32" fill="none" xmlns="http://www.w3.org/2000/svg">
<path d="M-0.707107 13.435C-1.09763 13.8256 -1.09763 14.4587 -0.707107 14.8492C-0.316582 15.2398 0.316582 15.2398 0.707107 14.8492L-0.707107 13.435ZM14.8492 0.707107C15.2398 0.316582 15.2398 -0.316582 14.8492 -0.707107C14.4587 -1.09763 13.8256 -1.09763 13.435 -0.707107L14.8492 0.707107ZM0.707107 -0.707107C0.316582 -1.09763 -0.316582 -1.09763 -0.707107 -0.707107C-1.09763 -0.316582 -1.09763 0.316582 -0.707107 0.707107L0.707107 -0.707107ZM13.435 14.8492C13.8256 15.2398 14.4587 15.2398 14.8492 14.8492C15.2398 14.4587 15.2398 13.8256 14.8492 13.435L13.435 14.8492ZM0.707107 14.8492L14.8492 0.707107L13.435 -0.707107L-0.707107 13.435L0.707107 14.8492ZM-0.707107 0.707107L13.435 14.8492L14.8492 13.435L0.707107 -0.707107L-0.707107 0.707107Z" transform="translate(8.75195 9)" fill="white"/>
</svg>
