<svg width="32" height="32" viewBox="0 0 32 32" fill="none" xmlns="http://www.w3.org/2000/svg">
<path d="M0 -1C-0.552285 -1 -1 -0.552285 -1 0C-1 0.552285 -0.552285 1 0 1V-1ZM20 1C20.5523 1 21 0.552285 21 0C21 -0.552285 20.5523 -1 20 -1V1ZM0 7C-0.552285 7 -1 7.44772 -1 8C-1 8.55228 -0.552285 9 0 9V7ZM20 9C20.5523 9 21 8.55228 21 8C21 7.44772 20.5523 7 20 7V9ZM0 15C-0.552285 15 -1 15.4477 -1 16C-1 16.5523 -0.552285 17 0 17V15ZM20 17C20.5523 17 21 16.5523 21 16C21 15.4477 20.5523 15 20 15V17ZM0 1H20V-1H0V1ZM0 9H20V7H0V9ZM0 17H20V15H0V17Z" transform="translate(5.82324 8)" fill="white"/>
</svg>
