<svg width="32" height="32" viewBox="0 0 32 32" fill="none" xmlns="http://www.w3.org/2000/svg">
<rect width="32" height="32" fill="black"/>
<path fill-rule="evenodd" clip-rule="evenodd" d="M10.4632 6.84996C10.4632 6.4872 10.459 6.14266 10.4641 5.7983C10.4722 5.25225 10.3749 4.72285 10.2027 4.20656C10.0236 3.66944 9.76217 3.17279 9.3434 2.77725C8.55472 2.03227 7.61552 1.69998 6.51941 1.85562C5.71432 1.96991 5.03683 2.33174 4.50819 2.93618C3.86245 3.67451 3.60566 4.56396 3.54201 5.51251C3.51459 5.92137 3.53676 6.33341 3.53723 6.74403C3.53727 6.77774 3.54376 6.81142 3.5478 6.84996H10.4632ZM12.3952 6.85624C12.6575 6.85624 12.8992 6.85421 13.141 6.85681C13.3529 6.85913 13.5466 6.91542 13.712 7.05253C13.8946 7.20396 13.9774 7.40168 13.9977 7.6294C14.0008 7.66486 13.9992 7.70075 13.9992 7.73647C13.9993 10.1941 13.9988 12.6517 14 15.1094C14.0001 15.3173 13.9596 15.5119 13.8285 15.6789C13.6667 15.8849 13.4446 15.9806 13.1841 15.9984C13.1478 16.0009 13.1112 15.999 13.0748 15.999C9.02334 15.999 4.97188 15.9986 0.920467 16C0.688245 16.0001 0.474579 15.9531 0.293249 15.8057C0.10481 15.6526 0.0191393 15.4483 0.0013854 15.2133C-0.000838395 15.1837 0.00036464 15.1538 0.00036464 15.1241C0.000328184 12.6604 0.000546918 10.1969 8.38454e-08 7.73329C-7.28273e-05 7.51286 0.0473923 7.30943 0.199521 7.13846C0.369988 6.94692 0.589742 6.86235 0.843582 6.85735C1.05003 6.85331 1.25659 6.85617 1.46311 6.85599C1.50441 6.85596 1.54568 6.85599 1.60437 6.85599V6.68545C1.60437 6.38788 1.5996 6.09026 1.60521 5.79283C1.6284 4.56424 1.92314 3.40679 2.59589 2.36117C3.34728 1.19333 4.43796 0.478421 5.79418 0.144487C6.38713 -0.00148016 6.99244 -0.035945 7.59986 0.0369848C8.62962 0.160594 9.54593 0.5481 10.3511 1.19029C11.2445 1.90291 11.7763 2.83878 12.1035 3.90144C12.3062 4.55963 12.3959 5.23414 12.3953 5.92087C12.395 6.22391 12.3952 6.52691 12.3952 6.85624Z" transform="translate(9 8)" fill="white"/>
</svg>
