<svg width="32" height="32" viewBox="0 0 32 32" fill="none" xmlns="http://www.w3.org/2000/svg">
<path fill-rule="evenodd" clip-rule="evenodd" d="M6.69758 13.3645L3.81758 10.7106C3.65997 10.5634 3.39834 10.4765 3.1723 10.4765H1.67432V5.52429H3.1723C3.39834 5.52429 3.65997 5.43743 3.81758 5.29019L6.69758 2.63626V13.3645ZM17.7628 10.2813C18.0854 10.5828 18.0783 11.0653 17.7469 11.359C17.5841 11.5032 17.3735 11.575 17.163 11.575C16.9449 11.575 16.7272 11.4979 16.5631 11.3445L14.1547 9.0929L11.7462 11.3445C11.5821 11.4979 11.3643 11.575 11.1462 11.575C10.9356 11.575 10.725 11.5032 10.5622 11.359C10.2311 11.0653 10.2238 10.5828 10.5465 10.2813L12.9861 8.00051L10.5465 5.71954C10.2238 5.41801 10.2311 4.93553 10.5622 4.642C10.894 4.34848 11.4237 4.35514 11.7462 4.65629L14.1547 6.90793L16.5631 4.65629C16.8857 4.35476 17.4156 4.34848 17.7469 4.642C18.0783 4.93553 18.0854 5.41801 17.7628 5.71954L15.3232 8.00051L17.7628 10.2813ZM7.80469 0.0551034C7.48948 -0.0614691 7.10478 0.011103 6.86701 0.2332L2.8191 4.00047H0.837211C0.374861 4.00047 0 4.33419 0 4.75514V11.2457C0 11.6666 0.374861 12.0003 0.837211 12.0003H2.8191L6.84441 15.7676C7.00515 15.9179 7.22283 16 7.44448 16C7.55059 16 7.70276 15.9825 7.80469 15.9448C8.12032 15.828 8.37211 15.5497 8.37211 15.2396V0.761014C8.37211 0.451107 8.12032 0.171866 7.80469 0.0551034Z" transform="translate(7 8)" fill="white"/>
</svg>
