<svg width="32" height="32" viewBox="0 0 32 32" fill="none" xmlns="http://www.w3.org/2000/svg">
<path fill-rule="evenodd" clip-rule="evenodd" d="M6.7382 13.3908L3.81383 10.7053C3.6557 10.5613 3.46113 10.4767 3.23667 10.4767H1.68457V5.52422H3.23667C3.46113 5.52422 3.6557 5.43965 3.81383 5.29546L6.7382 2.60989V13.3908ZM13.7095 13.2639C13.5429 13.4329 13.3121 13.519 13.0801 13.519C12.8807 13.519 12.6804 13.4554 12.5198 13.3258C12.1723 13.0458 12.1418 12.5641 12.4513 12.25C16.5703 8.07033 12.6202 3.9238 12.4501 3.74932C12.1426 3.43426 12.1747 2.95292 12.5221 2.67425C12.8699 2.39577 13.4004 2.4232 13.7095 2.73673C13.7613 2.7893 18.8372 8.06062 13.7095 13.2639ZM11.1714 11.2254C11.0048 11.3942 10.7741 11.4805 10.542 11.4805C10.3426 11.4805 10.1423 11.4169 9.98169 11.2873C9.63425 11.0072 9.60372 10.5256 9.91325 10.2113C12.0113 8.08234 10.132 6.01565 9.91072 5.78688C9.6054 5.47126 9.63825 4.9903 9.9859 4.71258C10.334 4.43486 10.8629 4.46267 11.1714 4.77544C12.2706 5.89088 13.6854 8.67435 11.1714 11.2254ZM7.9222 0.0565162C7.60613 -0.0610094 7.25406 0.00889644 7.0136 0.227757L2.88583 4.00039H0.839324C0.374179 4.00039 0 4.3343 0 4.75506V11.2458C0 11.6666 0.374179 12.0005 0.839324 12.0005H2.88583L7.02412 15.7729C7.18542 15.92 7.40188 16 7.62214 16C7.73016 16 7.81818 15.9821 7.9222 15.9434C8.23763 15.8257 8.42272 15.5486 8.42272 15.2398V0.761099C8.42272 0.452332 8.23763 0.174232 7.9222 0.0565162Z" transform="translate(8 8)" fill="white"/>
</svg>
