<svg xmlns="http://www.w3.org/2000/svg" width="97" height="20" viewBox="0 0 97 20">
    <g fill="#FFF" fill-rule="nonzero" opacity="1">
        <path d="M14.913 6.076h4.535v13.648h-4.535zM20.386.739h4.533v18.985h-4.533zM25.858.739h4.533v18.985h-4.533zM79.188 7.483V6.076h-4.534v13.648h4.534v-6.505c0-1.673.884-2.576 2.495-2.576h.537v-4.7c-1.368.053-2.361.478-3.032 1.54zM17.18 0c-1.451 0-2.629 1.165-2.629 2.602 0 1.437 1.178 2.603 2.63 2.603s2.628-1.166 2.628-2.603C19.81 1.165 18.633 0 17.18 0zM69.18 7.115c-.637-.688-2.12-1.256-3.245-1.256-3.425 0-5.881 2.234-6.483 5.556-.655-3.187-3.461-5.638-6.883-5.638-3.455 0-6.283 2.48-6.901 5.726-.6-3.374-3.282-5.61-6.608-5.61-1.234 0-2.254.265-3.14.875V.741h-4.533v18.985h4.454v-1.248c1.073.983 2.227 1.434 3.65 1.434 3.062 0 5.64-2.373 6.192-5.643.65 3.2 3.44 5.633 6.886 5.633 3.418 0 6.158-2.381 6.856-5.5.577 3.406 3.304 5.537 6.563 5.537 1.126 0 2.361-.373 3.193-.983v.77h4.533v-5.973c0-.245-.001-.484-.006-.717.005-.233.006-.472.006-.717v-6.22h-4.533v1.016zm-30.602 8.453c-1.452 0-2.63-1.165-2.63-2.603 0-1.436 1.178-2.602 2.63-2.602 1.451 0 2.629 1.166 2.629 2.602 0 1.438-1.177 2.603-2.63 2.603zm13.991-.208c-1.451 0-2.63-1.167-2.63-2.603 0-1.437 1.179-2.602 2.63-2.602 1.452 0 2.63 1.165 2.63 2.602 0 1.436-1.178 2.603-2.63 2.603zm13.624.082c-1.452 0-2.628-1.166-2.628-2.603 0-1.436 1.176-2.602 2.628-2.602 1.453 0 2.63 1.166 2.63 2.602 0 1.437-1.177 2.603-2.63 2.603zM92.28.737v6.027c-.883-.61-1.903-.875-3.138-.875-3.783 0-6.734 2.894-6.734 7.063 0 3.93 2.844 6.956 6.306 6.956 1.42 0 2.574-.452 3.648-1.433v1.247h4.454V.737h-4.535zm-2.67 14.797c-1.45 0-2.627-1.166-2.627-2.602 0-1.437 1.177-2.603 2.628-2.603 1.452 0 2.63 1.166 2.63 2.603 0 1.436-1.178 2.602-2.63 2.602zM7.673 5.893c-1.234 0-2.253.265-3.14.875V.741H0v18.985h4.453v-1.248c1.074.983 2.227 1.434 3.65 1.434 3.46 0 6.304-3.028 6.304-6.957 0-4.168-2.951-7.062-6.734-7.062zm-.482 9.675c-1.452 0-2.63-1.165-2.63-2.603 0-1.436 1.178-2.602 2.63-2.602S9.82 11.53 9.82 12.965c0 1.438-1.177 2.603-2.63 2.603z"/>
    </g>
</svg>
