<svg xmlns="http://www.w3.org/2000/svg" width="73" height="18" viewBox="0 0 73 18">
    <g fill="none" fill-rule="evenodd">
        <path fill="#FFF" d="M33.13.564l10.154 9.494v-8.89h3.286v16.467l-10.132-9.68v9.138H33.13V.563M48.41 1.21h6.933c1.06 0 4.07.8 4.176 4.016.086 2.395-1.906 3.51-1.906 3.51 1.08.505 2.734 1.746 2.734 4.267 0 2.46-2.183 4.268-4.05 4.268H48.41V1.209v.002zm3.33 6.475h2.522c.997-.127 1.76-.883 1.76-1.954 0-1.136-.997-1.766-1.823-1.83h-2.46v3.784zm.02 7h2.925c.743-.063 2.013-.693 2.013-2.143 0-1.41-1.25-2.082-1.928-2.103h-3.012v4.247h.002zM72.896 4.648c-3.477-2.292-8.182.042-8.48 4.288-.127 5.151 5.002 7.274 8.48 5.045v3.3c-6.148 2.272-11.787-2.017-11.808-8.24.02-5.275 5.893-9.942 11.808-7.61v3.217"/>
        <path fill="#FFFFFE" d="M26.8 17.107c-.47.207-.991.3-1.548.3l-22.249-.02C1.746 17.293.51 16.263.16 15.032-.215 13.8.15 12.53.97 11.632c.793-.811 1.813-1.15 2.946-1.022-1.065-.72-1.514-1.91-1.36-3.186.142-1.11.952-2.191 1.99-2.633 1.185-.528 2.68-.241 3.61.65-.193-.65-.294-1.582-.03-2.249.318-1.052 1.35-1.989 2.397-2.209 1.4-.298 2.732.226 3.536 1.416.153.223.244.477.363.712.403-1.138 1.565-2.081 2.745-2.202 1.217-.156 2.368.362 3.133 1.38.594.844.798 2.104.413 3.121h.046c.883-.788 2.22-1.075 3.36-.638 1.087.356 2.011 1.507 2.158 2.64.165 1.254-.266 2.351-1.224 3.163 1.45-.086 2.828.679 3.424 2.017.52 1.169.368 2.732-.515 3.682-.356.356-.737.655-1.163.833h.002"/>
        <path fill="#007FBA" d="M24.443 10.61l-8.23 5.456 2.772-6.532L20.3 6.492c.532-.982 1.536-1.61 2.63-1.627 1.047 0 1.977.5 2.567 1.397.606.897.64 2.364.034 3.272a3.752 3.752 0 0 1-1.088 1.076" style="mix-blend-mode:luminosity"/>
        <path fill="#5D5896" d="M20.345 5.457l-4.069 9.54-.182-1.04-1.223-7.82c-.05-.478.147-.88.532-1.144l.584-.345c.035-.12-.136-.16-.216-.202l-1.144-.01c-.074-1.128.424-2.15 1.388-2.767.748-.482 1.888-.61 2.72-.218 1.083.438 1.836 1.582 1.854 2.748-.005.431-.08.874-.244 1.26v-.002" style="mix-blend-mode:luminosity"/>
        <path fill="#BF4045" d="M12.531 15.031L8.525 5.469c-.43-1.024-.249-2.37.488-3.198.787-.867 1.898-1.236 3.042-.942.97.235 1.875 1.155 2.115 2.139.112.367.096.811.074 1.213l-1.712 10.35" style="mix-blend-mode:luminosity"/>
        <path fill="#E3672A" d="M3.968 10.264c-.823-.707-1.19-1.65-1.072-2.742.12-1.105.998-2.185 2.046-2.518 1.077-.334 2.25-.07 3.031.73.33.312.533.68.703 1.059l3.872 9.292-8.58-5.818v-.003" style="mix-blend-mode:luminosity"/>
        <path fill="#F3B229" d="M3.088 17.053c-1.07-.12-1.895-.693-2.399-1.667-.51-.982-.378-2.376.309-3.248.746-.887 1.827-1.333 2.916-1.115.444.071.815.26 1.165.478l8.33 5.554-10.32-.002" style="mix-blend-mode:luminosity"/>
        <path fill="#15A748" d="M25.703 17.053c1.07-.12 1.896-.693 2.399-1.667.51-.982.377-2.376-.308-3.248-.746-.887-1.827-1.333-2.916-1.115-.444.071-.815.26-1.165.478l-8.33 5.554 10.319-.002h.001" style="mix-blend-mode:luminosity"/>
    </g>
</svg>
