<svg xmlns="http://www.w3.org/2000/svg" xmlns:xlink="http://www.w3.org/1999/xlink" width="171" height="24" viewBox="0 0 171 24">
    <defs>
        <path id="a" d="M.018.012H12.98V18.2H.018z"/>
        <path id="c" d="M.02.012h51.15v18.764H.02z"/>
    </defs>
    <g fill="none" fill-rule="evenodd" opacity="1">
        <g>
            <mask id="b" fill="#fff">
                <use xlink:href="#a"/>
            </mask>
            <path fill="#FFF" d="M10.566.028c.479.042 1.23.277 1.795.772.601.584.738 1.469.528 2.273-.188.717-.398 1.09-1.13 1.585-.739.5-1.633.457-1.633.457V8.22l1.511 1.222-1.511 1.22v4.23s1.514-.868 2.454-2.81c0 0 .038-.106.127-.307.083.52.035 1.575-.554 2.927-.444 1.019-1.25 2-2.263 2.558-1.795.995-3.14 1.09-4.583.79-1.69-.347-3.223-1.296-4.27-2.95C.3 13.936-.028 12.58.002 11.122c.059-2.864 2.19-5.333 4.65-6.254.3-.112.419-.186.843-.225-.195.134-.422.306-.7.488-.792.52-1.47 1.557-1.76 2.355l4.774-2.13v6.673l-3.85 1.928c.439.608 1.772 1.529 2.912 1.659 1.94.214 3.078-.633 3.078-.633v-4.322L8.445 9.443 9.95 8.224v-3.11c-.82-.094-1.816-.364-2.399-.509-.856-.21-3.711-1.011-4.16-1.078-.448-.067-1.002-.046-1.336.253-.335.302-.543.832-.4 1.31.08.27.267.429.408.583 0 0-.165-.014-.464-.193C1.06 5.157.65 4.525.601 3.745a2.873 2.873 0 0 1 1.2-2.561C2.536.713 3.365.41 4.329.548c1.406.2 3.296.994 4.98 1.398.653.158 1.158.21 1.616-.056.214-.155.59-.552.283-1.079C10.848.193 10.16.207 9.579.098c.5-.106.61-.106.987-.07zM4.89 13.294V6.851l-1.939.864s-.494 1.106-.408 2.712c.069 1.255.77 2.755 1.31 3.384l1.037-.517z" mask="url(#b)"/>
        </g>
        <path fill="#FFF" d="M29.085 6.538s-1.463.885-2.446 1.472c-.984.583-2.304 1.226-2.304 1.226v6.149l-.88.706.117.137.858-.692 2.691 2.432 4.676-3.704-.11-.134-2.585 2.028-2.124-1.989v-.741l4.267-3.138-2.16-3.752zm.062 5.077l-2.169 1.588V7.92l2.17 3.696zM16.828 20.28c.614.15 1.697.235 3.003-.42 1.446-.723 2.173-2.258 2.163-3.832l.061-2.231V8.923l.925-.706-.108-.137-.91.685-2.099-2.332-2.693 2.311V.888l-3.365 2.6c.15.095.626.183.64.854v11.005l-1.425 1.057.098.148.688-.514 1.916 1.781 3.017-2.399-.11-.137-.709.562-.75-.745.007-6.13.88-.75 1.31 1.628s-.003 3.97 0 5.288c-.009 1.405-.014 3.158-.752 4.005-.739.85-1.035.917-1.787 1.138M37.765 19.724c-1.205-.137-1.712-.868-1.698-1.444.009-.37.344-1.093 1.077-1.191.733-.102 1.481.242 2.113.984l2.784-3.075-.134-.12-.748.837a4.869 4.869 0 0 0-2.91-1.567V4.781l7.23 13.165s.07.151.366.151c.256 0 .195-.207.195-.207l-.001-13.25c.587-.024 1.484-.347 1.92-.793 1.392-1.43.823-2.99.67-3.141-.085.681-.61 1.366-1.485 1.37-1.148.003-1.848-.844-1.848-.844l-2.782 3.17.133.12.797-.91c.973.895 1.684.98 2.419 1.028v7.688l-5.364-9.74c-.485-.804-1.225-1.51-2.384-1.52-1.332-.008-2.286 1.166-2.4 2.178-.129 1.142.014 1.405.014 1.405s.196-1.272.983-1.261c.707.01 1.075.66 1.36 1.149v2.82c-.73.05-2.629.135-2.745 2.109-.008.734.448 1.504.847 1.764.514.337.915.33.915.33s-.616-.327-.431-.973c.165-.58 1.37-.675 1.414-.432v3.98c-.58-.007-2.438.057-3.276 1.649-.505.962-.476 2.038.064 2.796.44.619 1.346 1.41 2.905 1.142M53.036 6.538s-1.463.885-2.447 1.472c-.983.583-2.303 1.226-2.303 1.226v6.149l-.88.706.117.137.858-.692 2.69 2.432 4.677-3.704-.11-.134-2.585 2.028-2.124-1.989v-.741l4.267-3.138-2.16-3.752zm.063 5.077l-2.17 1.588V7.92l2.17 3.696zM59.573 18.013l-2.293-1.905-1.007.732-.102-.144 1.024-.749v-5.323c.05-2.192-2.009-1.648-1.897-3.974.049-1.022 1.039-1.795 1.538-2.051.535-.271 1.114-.271 1.114-.271s-.938.586-.71 1.43c.35 1.3 2.574 1.416 2.616 3.148v6.04l1.642 1.314.432-.337v-6.54l-.886-.878 2.28-2.017 2.082 1.845-.794.861v5.794l1.95 1.61.346-.223V9.401l-.886-.829 2.283-2.087 2.136 1.764.852-.755.116.133-1.92 1.686v5.685l-4.912 3.029-2.512-1.989-2.492 1.975M160.052 6.538s-1.464.885-2.447 1.472c-.984.583-2.304 1.226-2.304 1.226v6.149l-.88.706.118.137.858-.692 2.69 2.432 4.677-3.704-.11-.134-2.585 2.028-2.125-1.989v-.741l4.268-3.138-2.16-3.752zm.062 5.077l-2.17 1.588V7.92l2.17 3.696zM138.098 9.11l.115.133.88-.759 1.308 1.48v5.08l-.635.58 2.037 2.301 2.09-2.059-.859-.889V8.832l.52-.414 1.445 1.686v5.066l-.543.542 1.918 2.157 2.051-2.052-.753-.79-.02-6.17.554-.45 1.507 1.658v5.039l-.496.495 2.118 2.309 2.844-2.625-.12-.13-.691.636-1.06-1.174V8.864l1.023-.777-.106-.14-1.024.776-1.934-2.168-2.767 2.186-1.938-2.108-2.672 2.09-1.955-2.08-2.837 2.467"/>
        <path fill="#FFF" d="M132.309 8.951l.115.134.744-.643 1.164 1.377v5.808l-.821.717.114.134.862-.735 1.877 2.165 2.713-2.421-.115-.134-.799.703-1.121-1.293V9.085l.946-.818-.115-.134-.898.773L135 6.605l-2.691 2.346"/>
        <g transform="translate(119.759)">
            <mask id="d" fill="#fff">
                <use xlink:href="#c"/>
            </mask>
            <path fill="#FFF" d="M13.332 4.142l2.042-1.87 1.661 1.842-2.051 1.862-1.652-1.834M10.586.028c.479.042 1.23.277 1.795.772.6.584.738 1.469.527 2.273-.187.717-.397 1.09-1.13 1.585-.738.5-1.632.457-1.632.457V8.22l1.512 1.222-1.512 1.22v4.23s1.514-.868 2.454-2.81c0 0 .038-.106.126-.307.083.52.036 1.575-.553 2.927-.444 1.019-1.252 2-2.264 2.558-1.794.995-3.14 1.09-4.582.79-1.69-.347-3.223-1.296-4.27-2.95-.736-1.164-1.066-2.52-1.035-3.978.059-2.864 2.19-5.333 4.65-6.254.299-.112.418-.186.843-.225-.196.134-.422.306-.7.488-.792.52-1.47 1.557-1.76 2.355l4.774-2.13v6.673l-3.85 1.928c.439.608 1.771 1.529 2.913 1.659 1.939.214 3.077-.633 3.077-.633v-4.322L8.466 9.443l1.503-1.219v-3.11c-.82-.094-1.815-.364-2.398-.509-.856-.21-3.712-1.011-4.16-1.078-.448-.067-1.002-.046-1.337.253-.335.302-.542.832-.4 1.31.081.27.267.429.408.583 0 0-.165-.014-.463-.193-.54-.323-.95-.955-.999-1.735a2.874 2.874 0 0 1 1.202-2.561C2.555.713 3.383.41 4.348.548c1.405.2 3.296.994 4.98 1.398.653.158 1.158.21 1.616-.056.214-.155.59-.552.282-1.079C10.868.193 10.181.207 9.6.098c.5-.106.61-.106.987-.07zM4.909 13.294V6.851l-1.938.864s-.495 1.106-.409 2.712c.068 1.255.77 2.755 1.31 3.384l1.037-.517zM45.497 18.762c-.31.09-1.657-.236-1.98-1.631-.315-1.36.63-2.28 2.056-3.728l-1.684-1.539V8.927s1.238-.618 2.208-1.223c.97-.608 1.962-1.265 1.962-1.265s.723.914 1.541.84c1.28-.112 1.221-1.12 1.184-1.36.218.39.803 1.55-1.446 4.143l1.832 1.479v3.816s-2.129 1.106-4.142 2.575c0 0-1.124-1.405-2.1-.734-.658.453-.357 1.219.569 1.564zm-1.584-2.942s.967-1.598 2.629-1.254c1.593.33 2.146 2.013 2.146 2.013v-3.875l-1.111-.966c-1.221 1.226-3.395 3-3.664 4.082zm2.466-8.095v3.054l1.017.885s2.209-1.768 3.01-3.405c0 0-.992 1.346-2.328.935-1.119-.34-1.699-1.469-1.699-1.469z" mask="url(#d)"/>
        </g>
        <path fill="#FFF" d="M96.489 9.074l.825-.758.118.133-.804.745v6.068s-1.526.808-2.591 1.409c-1.065.6-2.202 1.307-2.202 1.307l-2.8-2.358-.741.643-.12-.134.779-.677V8.927h.01s1.32-.598 2.435-1.226c.997-.562 2.112-1.213 2.112-1.213l2.979 2.586zm-4.88 5.348l2.367 2.14v-6.55L91.61 7.824v6.598zM101.995 8.46l1.778-1.817s.245.215.474.327c.13.063.668.34 1.162.07.268-.147.306-.186.6-.464.06 1.413-.619 2.407-1.465 2.818-.346.169-1.358.492-2.417-.797v6.528l1.126.994.94-.777.109.138-2.944 2.455-2.24-2.037-.805.759-.132-.14 1.227-1.108.01-5.635-.941-1.248-.81.714-.116-.13 2.85-2.562 1.594 1.912M109.494 11.179l3.29-4.782s.433.513 1.188.713c1.028.268 1.924-.723 1.924-.723-.171 1.279-.82 2.73-2.16 2.951-1.18.197-2.277-.72-2.277-.72l-.213.33 4.566 6.893.913-.8.118.133-3.133 2.737-4.216-6.732"/>
        <path fill="#FFF" d="M106.777 4.795c0-1.033-.423-1.669-.976-1.623l3.587-2.519v14.258h.001l.947.997.718-.621.113.133-2.891 2.523-1.959-1.838-.784.689-.124-.134 1.368-1.19V4.794M76.787 4.56c0-.963-.392-1.5-1.025-1.515-.912-.02-1.128 1.265-1.128 1.265s-.166-.99.663-1.89c.467-.502 1.337-1.209 2.698-.882 1.405.341 1.804 1.43 1.804 2.393v13.263s.53.063.895.145c.423.087.823.2.823.2V1.545h.175v2.157l2.88-2.318 2.112 1.876.984-.85.112.133-1.03.885v12.333c-.05.804-.18 1.623-.94 2.094-1.695 1.005-3.74-.154-5.562-.418-1.353-.2-3.475-.457-4.008.783-.174.408-.162 1.036.451 1.447 1.231.823 6.713-1.38 8.593-.505 1.714.797 1.708 2.059 1.443 2.926-.446 1.627-2.5 1.912-2.5 1.912s1.004-.584.718-1.55c-.145-.488-.477-.625-1.553-.506-2.35.267-5.157 1.405-7.045.615-.972-.404-1.66-1.62-1.593-2.814.048-1.718 2.033-2.396 2.033-2.396v-6.356c-.057-.253-1.117-.187-1.348.28-.352.707.438 1.03.438 1.03s-.655.099-1.204-.534c-.267-.309-.825-1.391-.1-2.392.597-.826 1.312-.97 2.214-1.068v-3.75zm4.905 13.028s.836.221 1.445-.278c.677-.559.606-1.342.606-1.342v-4.94s-.393-.506-1.016-.506c-.624 0-1.035.524-1.035.524v6.542zm2.051-12.969L82.36 3.404l-.667.527v4.578s.41.52 1.035.52c.623 0 1.016-.499 1.016-.499V4.62zm0 4.185s-.396.45-1.02.45c-.623 0-1.031-.454-1.031-.454v1.954s.408-.453 1.031-.453c.624 0 1.02.428 1.02.428V8.804z"/>
    </g>
</svg>
