<svg xmlns="http://www.w3.org/2000/svg" xmlns:xlink="http://www.w3.org/1999/xlink" width="90" height="14" viewBox="0 0 90 14">
    <defs>
        <path id="a" d="M.008.116H89.88V13.79H.008z"/>
    </defs>
    <g fill="none" fill-rule="evenodd">
        <path fill="#FFF" d="M29.829 4.691h3.285v9.098h3.115V4.69h3.268V1.957h-9.668V4.69M51.12 3.475a6.03 6.03 0 0 0-2-1.26 6.863 6.863 0 0 0-2.503-.452c-.904 0-1.749.152-2.512.452-.763.3-1.436.723-2 1.26a5.74 5.74 0 0 0-1.329 1.933 6.3 6.3 0 0 0-.478 2.474c0 .894.161 1.726.478 2.473a5.738 5.738 0 0 0 1.329 1.934 6.143 6.143 0 0 0 2 1.259c.763.3 1.608.452 2.512.452.891 0 1.733-.152 2.502-.452a6.03 6.03 0 0 0 2-1.26 5.799 5.799 0 0 0 1.32-1.933c.317-.747.478-1.58.478-2.473 0-.894-.16-1.726-.478-2.474a5.805 5.805 0 0 0-1.32-1.933m-3.213 7.496c-.385.172-.819.26-1.29.26-.482 0-.922-.088-1.306-.26a2.924 2.924 0 0 1-.986-.71 3.26 3.26 0 0 1-.632-1.058 3.787 3.787 0 0 1-.225-1.321c0-.473.075-.918.225-1.321.15-.403.362-.76.632-1.058.27-.3.601-.538.986-.71.384-.173.824-.26 1.307-.26.47 0 .904.087 1.289.26.384.172.716.41.986.71.27.299.482.655.631 1.058.15.404.226.848.226 1.32 0 .473-.076.917-.226 1.322-.15.403-.362.759-.631 1.058-.27.298-.601.537-.986.71M64.322 3.535a5.906 5.906 0 0 0-2.015-1.17c-.774-.271-1.635-.408-2.558-.408H54.79v11.832h4.976c.913 0 1.768-.137 2.54-.408a5.827 5.827 0 0 0 2.016-1.18 5.445 5.445 0 0 0 1.327-1.863c.318-.725.478-1.557.478-2.474 0-.917-.16-1.75-.478-2.474a5.356 5.356 0 0 0-1.327-1.855m-1.363 4.33a3.5 3.5 0 0 1-.217 1.223 3.002 3.002 0 0 1-.623 1.014c-.269.287-.607.52-1.003.693-.396.172-.854.26-1.36.26h-1.85V4.691h1.868c.53 0 1 .082 1.396.243.395.16.73.388.993.674.264.287.464.625.596 1.005.133.38.2.801.2 1.251M74.65 1.957h-3.86l-4.42 11.768-.025.064h3.528l.58-1.69h4.552l.58 1.69h3.527l-4.45-11.802-.012-.03zm-.503 7.408h-2.855l1.428-4.222 1.427 4.222z"/>
        <g>
            <mask id="b" fill="#fff">
                <use xlink:href="#a"/>
            </mask>
            <path fill="#FFF" d="M86.342 1.957L83.857 6.24 81.35 1.98l-.013-.023h-3.521l4.483 7.065v4.767h3.116V9.022l4.465-7.065h-3.538M13.618.116C6.334.116.385 5.846.018 13.051c-.012.234-.018.47-.018.707h3.53c0-.23.009-.459.024-.685.352-5.253 4.731-9.42 10.064-9.42 5.352 0 9.745 4.199 10.067 9.481.013.206.02.414.02.624h3.53c0-.188-.004-.374-.012-.56C26.931 5.924 20.951.116 13.618.116" mask="url(#b)"/>
        </g>
        <path fill="#FFF" d="M13.618 4.664c-4.814 0-8.75 3.752-9.06 8.494a8.97 8.97 0 0 0-.019.6H8.07c0-.218.012-.432.037-.644.32-2.762 2.669-4.914 5.51-4.914 2.857 0 5.217 2.174 5.516 4.957.022.198.032.397.032.6h3.53c0-.194-.005-.386-.017-.578-.298-4.753-4.24-8.515-9.06-8.515"/>
        <path fill="#FFF" d="M13.618 9.21a4.542 4.542 0 0 0-4.54 4.548h9.079a4.546 4.546 0 0 0-4.54-4.547"/>
    </g>
</svg>
