<svg height="14" viewBox="0 0 90 14" width="90" xmlns="http://www.w3.org/2000/svg" xmlns:xlink="http://www.w3.org/1999/xlink"><mask id="a" fill="#fff"><path d="m.008.116h89.872v13.674h-89.872z" fill="#fff" fill-rule="evenodd"/></mask><g fill="#fff" fill-rule="evenodd"><path d="m29.829 4.691h3.285v9.098h3.115v-9.099h3.268v-2.733h-9.668v2.733m21.291-1.215a6.03 6.03 0 0 0 -2-1.26 6.863 6.863 0 0 0 -2.503-.452c-.904 0-1.749.152-2.512.452s-1.436.723-2 1.26a5.74 5.74 0 0 0 -1.329 1.933 6.3 6.3 0 0 0 -.478 2.474c0 .894.161 1.726.478 2.473a5.738 5.738 0 0 0 1.329 1.934 6.143 6.143 0 0 0 2 1.259c.763.3 1.608.452 2.512.452.891 0 1.733-.152 2.502-.452a6.03 6.03 0 0 0 2-1.26 5.799 5.799 0 0 0 1.32-1.933c.317-.747.478-1.58.478-2.473 0-.894-.16-1.726-.478-2.474a5.805 5.805 0 0 0 -1.32-1.933m-3.213 7.496c-.385.172-.819.26-1.29.26-.482 0-.922-.088-1.306-.26a2.924 2.924 0 0 1 -.986-.71 3.26 3.26 0 0 1 -.632-1.058 3.787 3.787 0 0 1 -.225-1.321c0-.473.075-.918.225-1.321s.362-.76.632-1.058c.27-.3.601-.538.986-.71.384-.173.824-.26 1.307-.26.47 0 .904.087 1.289.26.384.172.716.41.986.71.27.299.482.655.631 1.058.15.404.226.848.226 1.32 0 .473-.076.917-.226 1.322-.15.403-.362.759-.631 1.058-.27.298-.601.537-.986.71m16.416-7.436a5.906 5.906 0 0 0 -2.015-1.17c-.774-.271-1.635-.408-2.558-.408h-4.959v11.832h4.976c.913 0 1.768-.137 2.54-.408a5.827 5.827 0 0 0 2.016-1.18 5.445 5.445 0 0 0 1.327-1.863c.318-.725.478-1.557.478-2.474s-.16-1.75-.478-2.474a5.356 5.356 0 0 0 -1.327-1.855m-1.363 4.33a3.5 3.5 0 0 1 -.217 1.223 3.002 3.002 0 0 1 -.623 1.014c-.269.287-.607.52-1.003.693-.396.172-.854.26-1.36.26h-1.85v-6.364h1.868c.53 0 1 .082 1.396.243.395.16.73.388.993.674.264.287.464.625.596 1.005.133.38.2.801.2 1.251m11.691-5.907h-3.86l-4.42 11.768-.025.064h3.528l.58-1.69h4.552l.58 1.69h3.527l-4.45-11.802-.012-.03zm-.503 7.408h-2.855l1.428-4.222z"/><path d="m86.342 1.957-2.485 4.283-2.507-4.26-.013-.023h-3.521l4.483 7.065v4.767h3.116v-4.767l4.465-7.065zm-72.724-1.841c-7.284 0-13.233 5.73-13.6 12.935-.012.234-.018.47-.018.707h3.53c0-.23.009-.459.024-.685.352-5.253 4.731-9.42 10.064-9.42 5.352 0 9.745 4.199 10.067 9.481.013.206.02.414.02.624h3.53c0-.188-.004-.374-.012-.56-.292-7.274-6.272-13.082-13.605-13.082" mask="url(#a)"/><path d="m13.618 4.664c-4.814 0-8.75 3.752-9.06 8.494a8.97 8.97 0 0 0 -.019.6h3.531c0-.218.012-.432.037-.644.32-2.762 2.669-4.914 5.51-4.914 2.857 0 5.217 2.174 5.516 4.957.022.198.032.397.032.6h3.53c0-.194-.005-.386-.017-.578-.298-4.753-4.24-8.515-9.06-8.515"/><path d="m13.618 9.21a4.542 4.542 0 0 0 -4.54 4.548h9.079a4.546 4.546 0 0 0 -4.54-4.547"/></g></svg>