<svg xmlns="http://www.w3.org/2000/svg" width="71" height="16" viewBox="0 0 71 16">
    <g fill="#FFFFFE" fill-rule="evenodd">
        <path d="M.418.309H0V0h3.791v.309H2.757l2.076 10.75L6.91.31H5.683V0h2.261v.309h-.666L4.33 15.5h-.964L.418.309M7.926 10.39h2.302l-1.15-5.992-1.152 5.993zm-1.968 4.801h.668L9.582 0h.966l2.956 15.191h.398v.309h-3.78v-.309h1.037l-.874-4.491H7.87l-.874 4.491h1.23v.309H5.958v-.309zM14.336 15.638h.51V.318h-.944V0h3.316l3.417 9.638V.318H19.63V0h2.216v.318h-.823V16h-.612L15.234 1.132v14.506h1.005v.318h-1.903v-.318M22.343 15.5v-.309h.707V.31h-.707V0h3.972v.309h-.73V15.19h.73v.309h-3.972"/>
        <path d="M28.166 15.5v-.309h.694V.281h-.042c-.989 0-2.005 1.077-2.195 5.777h-.308V0h7.447v6.058h-.308c-.21-4.7-1.312-5.778-2.195-5.778h-.063v14.911h.715v.309h-3.745M36.86 15.5v-.309h.74V8.285L35.255.31h-.5V0h4.054v.309h-1.134l2.18 7.308L41.72.309h-1.18V0H42.7v.309h-.59l-2.023 7.948v6.934h.74v.309H36.86M44.685 15.5v-.309h.64V.31h-.64V0h6.951v4.635h-.323C51.114 1.358 50.026.309 48.304.309h-.53v6.999h.236c1.331 0 1.758-.575 1.89-2.673h.302v5.806h-.301c-.133-2.292-.56-2.824-1.766-2.824h-.36v7.574h.97v.309h-4.06M52.115 10.39h2.302l-1.15-5.992-1.152 5.993zm-1.968 4.801h.668L53.77 0h.966l2.956 15.191h.398v.309h-3.78v-.309h1.037l-.874-4.491h-2.416l-.874 4.491h1.23v.309h-2.267v-.309z"/>
        <path d="M58.09 15.5v-.309h.594V.31h-.593V0h3.475v.309h-.613V15.19h.613v.309h-3.475M65.574.316v6.871h.323c1.163 0 2.002.052 2.002-2.862v-.772c0-2.825-.84-3.237-1.873-3.237h-.452zm2.196 13.521V9.953c0-2.074-.581-2.45-1.787-2.45h-.41v8.048h.948v.317H62.56v-.317h.625V.316h-.625V0h3.467c2.54 0 4.177 1.192 4.177 3.906 0 2.384-1.407 3.222-3.2 3.443v.022c1.88.287 3.135 1.06 3.135 3.862v3.693c0 .486.158.618.417.618.172 0 .33-.059.445-.103v.316c-.13.089-.538.243-1.098.243-1.335 0-2.132-.485-2.132-2.163z"/>
    </g>
</svg>
