<svg width="42" height="42" viewBox="0 0 42 42" fill="none" xmlns="http://www.w3.org/2000/svg">
  <path fill-rule="evenodd" clip-rule="evenodd" d="M18.9268 37.8631C29.3797 37.8631 37.8535 29.3871 37.8535 18.9315C37.8535 13.7037 35.7351 8.97086 32.31 5.54492C30.5666 3.80111 28.4847 2.39591 26.1714 1.4364C25.039 0.966731 23.8512 0.603849 22.6204 0.360318C22.0176 0.24103 21.4044 0.150378 20.7824 0.0898383C20.1719 0.0304115 19.5529 0 18.9268 0C18.3006 0 17.6816 0.0304115 17.0711 0.0898383C16.4491 0.150378 15.836 0.24103 15.2331 0.360318C14.0024 0.603849 12.8145 0.966731 11.6821 1.4364C9.36878 2.39591 7.28689 3.80111 5.54352 5.54492C2.11845 8.97086 0 13.7037 0 18.9315C0 29.3871 8.4738 37.8631 18.9268 37.8631Z" transform="translate(2.35205 2)" stroke="white" stroke-width="2.73"/>
  <path d="M0 4.28236L4.55819 8.56472L12.6172 0" transform="translate(15.3694 16.2698)" stroke="white" stroke-width="2.73" stroke-linecap="round" stroke-linejoin="round"/>
</svg>
