<svg width="128" height="56" viewBox="0 0 128 56" fill="none" xmlns="http://www.w3.org/2000/svg">
<path fill-rule="evenodd" clip-rule="evenodd" d="M12.6219 11.3872C12.6731 11.617 12.5706 11.7957 12.3143 11.7957H11.648C11.5198 11.7957 11.3917 11.6681 11.3404 11.566L9.85401 3.01277C9.82839 3.01277 9.80276 3.01277 9.77713 3.01277L6.70176 11.7702C6.67613 11.8723 6.52236 11.9489 6.41985 11.9489H6.11231C6.0098 11.9489 5.85603 11.8723 5.8304 11.7702L2.7294 3.01277C2.70377 3.01277 2.67814 3.01277 2.65251 3.01277L1.19171 11.566C1.16608 11.6936 1.03794 11.7957 0.88417 11.7957H0.320352C0.0640703 11.7957 -0.0384422 11.6426 0.0128141 11.3872L2.16558 0.229787C2.1912 0.102128 2.34497 0 2.47311 0H2.7294C2.85754 0 2.98568 0.0765957 3.0113 0.178723L6.31733 9.31915C6.34296 9.31915 6.36859 9.31915 6.39422 9.31915L9.64899 0.178723C9.67462 0.0765957 9.80276 0 9.9309 0H10.1872C10.3153 0 10.4435 0.102128 10.4947 0.229787L12.6219 11.3872ZM26.6661 11.362C26.7686 11.5663 26.6405 11.7961 26.3842 11.7961H25.7179C25.5641 11.7961 25.4616 11.694 25.436 11.6174L24.2058 8.88545H18.2857L17.0812 11.6174C17.0556 11.694 16.9531 11.7961 16.7993 11.7961H16.133C15.8767 11.7961 15.7485 11.5918 15.8511 11.362L20.9254 0.204602C20.9767 0.102475 21.0536 0.0258789 21.2073 0.0258789H21.3355C21.4893 0.0258789 21.5661 0.102475 21.6174 0.204602L26.6661 11.362ZM23.7446 7.83869C22.9245 6.02592 22.13 4.21316 21.3099 2.40039H21.1817L18.7471 7.83869H23.7446ZM32.8937 5.28511C31.4841 4.69787 30.6384 4.05957 30.6384 2.93617C30.6384 2.24681 31.1766 1.09787 32.9449 1.09787C33.97 1.09787 35.0208 1.78723 35.1233 1.86383C35.3796 2.01702 35.559 1.94043 35.7127 1.71064C35.7896 1.60851 35.8409 1.50638 35.9178 1.40426C36.1228 1.09787 35.9178 0.893617 35.8153 0.842553C35.8153 0.842553 34.6107 0 32.9705 0C30.3308 0 29.4339 1.81277 29.4339 2.9617C29.4339 4.85106 30.5359 5.59149 32.3555 6.40851C34.2776 7.2 35.2771 7.88936 35.2771 9.0383C35.2771 10.0085 34.4057 10.8766 33.0474 10.8766C31.561 10.8766 30.3565 9.70213 30.2283 9.62553C29.9977 9.42128 29.8183 9.54894 29.6389 9.77872C29.562 9.88085 29.4851 9.98298 29.3826 10.0851C29.1776 10.3915 29.357 10.5447 29.4851 10.6468C29.6901 10.8511 31.0228 12 32.9962 12C34.9439 12 36.5841 10.7489 36.5841 9.01277C36.6097 7.04681 35.1489 6.20426 32.8937 5.28511ZM46.5022 0.178711H39.4289C39.2495 0.178711 39.1213 0.331902 39.1213 0.485094V0.9702C39.1213 1.12339 39.2495 1.27658 39.4289 1.27658H42.3249V11.4638C42.3249 11.6425 42.4786 11.7702 42.6324 11.7702H43.2731C43.4525 11.7702 43.5806 11.617 43.5806 11.4638V1.27658H46.4766C46.656 1.27658 46.7841 1.12339 46.7841 0.9702V0.485094C46.8098 0.331902 46.6816 0.178711 46.5022 0.178711ZM57.1891 0.178711H50.6283C50.4489 0.178711 50.3208 0.331902 50.3208 0.485094V11.4638C50.3208 11.6425 50.4489 11.7702 50.6283 11.7702H57.1891C57.3685 11.7702 57.4967 11.617 57.4967 11.4638V10.9787C57.4967 10.8255 57.3685 10.6723 57.1891 10.6723H51.5766V6.43403H56.369C56.5228 6.43403 56.6766 6.30637 56.6766 6.12765V5.64254C56.6766 5.48935 56.5228 5.33616 56.369 5.33616H51.5766V1.27658H57.1635C57.3429 1.27658 57.471 1.12339 57.471 0.9702V0.485094C57.4967 0.331902 57.3685 0.178711 57.1891 0.178711ZM67.6198 7.09821L69.9007 11.311C70.0289 11.5152 69.9007 11.7961 69.6188 11.7961H68.7731C68.6193 11.7961 68.5425 11.7195 68.5168 11.6429L66.3128 7.2514H63.1093V11.4897C63.1093 11.6684 62.9555 11.7961 62.8018 11.7961H62.1611C61.9817 11.7961 61.8535 11.6429 61.8535 11.4897V0.510973C61.8535 0.332249 61.9817 0.20459 62.1611 0.20459H66.4666C68.4656 0.20459 70.1058 1.76204 70.1058 3.72799C70.0801 5.23438 69.0807 6.51097 67.6198 7.09821ZM68.7732 3.72784C68.7732 2.47678 67.6456 1.37891 66.3642 1.37891H63.135V6.15337H66.3642C67.6712 6.15337 68.7732 5.08103 68.7732 3.72784ZM83.2272 9.44716C83.1247 9.37056 82.9966 9.37056 82.8172 9.49822C81.9458 10.162 81.0745 10.7493 79.6393 10.7493C76.9996 10.7493 75.0006 8.55354 75.0006 5.97481C75.0006 3.39609 77.0252 1.20035 79.6393 1.20035C80.767 1.20035 81.9458 1.68545 82.8172 2.45141C82.9966 2.63013 83.1247 2.63013 83.2529 2.47694L83.7142 2.01737C83.8423 1.88971 83.8423 1.68545 83.6886 1.55779C82.5609 0.587581 81.3308 0.0258789 79.6649 0.0258789C76.3333 0.0258789 73.6423 2.70673 73.6423 6.02588C73.6423 9.34503 76.3333 11.9748 79.6649 11.9748C81.1514 11.9748 82.5865 11.4642 83.7142 10.3663C83.8423 10.2386 83.868 10.0089 83.7398 9.90673L83.2272 9.44716ZM94.0167 10.6723H89.2243V0.485094C89.2243 0.30637 89.0705 0.178711 88.9167 0.178711H88.276C88.0966 0.178711 87.9685 0.331902 87.9685 0.485094V11.4638C87.9685 11.6425 88.0966 11.7702 88.276 11.7702H94.0424C94.2218 11.7702 94.3499 11.617 94.3499 11.4638V10.9787C94.3499 10.8255 94.1961 10.6723 94.0167 10.6723ZM107.523 11.362C107.625 11.5663 107.497 11.7961 107.241 11.7961H106.575C106.421 11.7961 106.318 11.694 106.293 11.6174L105.063 8.88545H99.1424L97.9379 11.6174C97.9123 11.694 97.8098 11.7961 97.656 11.7961H96.9897C96.7334 11.7961 96.6052 11.5918 96.7077 11.362L101.782 0.204602C101.833 0.102475 101.91 0.0258789 102.064 0.0258789H102.218C102.372 0.0258789 102.448 0.102475 102.5 0.204602L107.523 11.362ZM104.627 7.83869C103.807 6.02592 103.012 4.21316 102.192 2.40039H102.064L99.6294 7.83869H104.627ZM113.776 5.28511C112.366 4.69787 111.521 4.05957 111.521 2.93617C111.521 2.24681 112.059 1.09787 113.827 1.09787C114.852 1.09787 115.903 1.78723 116.006 1.86383C116.262 2.01702 116.441 1.94043 116.595 1.71064C116.672 1.60851 116.723 1.50638 116.8 1.40426C117.005 1.09787 116.8 0.893617 116.698 0.842553C116.698 0.842553 115.493 0 113.853 0C111.213 0 110.316 1.81277 110.316 2.9617C110.316 4.85106 111.418 5.59149 113.238 6.40851C115.16 7.2 116.159 7.88936 116.159 9.0383C116.159 10.0085 115.288 10.8766 113.93 10.8766C112.443 10.8766 111.239 9.70213 111.111 9.62553C110.88 9.42128 110.701 9.54894 110.521 9.77872C110.444 9.88085 110.342 9.98298 110.265 10.0851C110.06 10.3915 110.239 10.5447 110.367 10.6468C110.572 10.8511 111.905 12 113.878 12C115.826 12 117.466 10.7489 117.466 9.01277C117.466 7.04681 116.031 6.20426 113.776 5.28511ZM124.309 5.28511C122.9 4.69787 122.054 4.05957 122.054 2.93617C122.054 2.24681 122.592 1.09787 124.36 1.09787C125.386 1.09787 126.436 1.78723 126.539 1.86383C126.795 2.01702 126.975 1.94043 127.128 1.71064C127.205 1.60851 127.256 1.50638 127.333 1.40426C127.538 1.09787 127.333 0.893617 127.231 0.842553C127.231 0.842553 126.026 0 124.386 0C121.746 0 120.849 1.81277 120.849 2.9617C120.849 4.85106 121.951 5.59149 123.771 6.40851C125.693 7.2 126.693 7.88936 126.693 9.0383C126.693 10.0085 125.821 10.8766 124.463 10.8766C122.977 10.8766 121.772 9.70213 121.644 9.62553C121.413 9.42128 121.234 9.54894 121.054 9.77872C120.978 9.88085 120.875 9.98298 120.798 10.0851C120.593 10.3915 120.772 10.5447 120.901 10.6468C121.106 10.8511 122.438 12 124.412 12C126.359 12 128 10.7489 128 9.01277C128.025 7.04681 126.564 6.20426 124.309 5.28511Z" transform="translate(0 44)" fill="#000000"/>
<path fill-rule="evenodd" clip-rule="evenodd" d="M21.8792 26.2356L21.5723 26.793L18.0002 26.0453L14.4281 26.793L14.1211 26.2356L17.9862 25.4336L21.8792 26.2356ZM0.893066 25.2985L8.42795 21.4243L8.53957 20.6494L1.01865 24.5237L0.893066 25.2985ZM18.0001 30.0693L16.228 30.1781L16.535 30.7626L18.0001 30.6811L19.4652 30.749L19.7722 30.1645L18.0001 30.0693ZM1.08838 24.1295L8.67907 19.6843L8.80465 18.8687L1.24187 23.3003L1.08838 24.1295ZM14.8325 27.5548L15.1395 28.1258L18.0139 27.6772L20.8883 28.1258L21.1953 27.5548L18.0279 27.0654L14.8325 27.5548ZM16.9258 31.4697C17.0793 31.7144 17.3304 31.9999 18.0002 31.9999C18.67 31.9999 18.9211 31.7144 19.0746 31.4697H16.9258ZM18 28.6016L15.5303 28.8598L15.8372 29.4308L18 29.1997L20.1628 29.4308L20.4698 28.8598L18 28.6016ZM0.711426 26.3584L8.20445 23.0143L8.31607 22.2803L0.850961 25.6108L0.711426 26.3584ZM0.879165 31.3337H6.22335C6.64195 31.3337 6.99079 31.0347 7.06056 30.6948L0.237305 31.089C0.404746 31.2386 0.628002 31.3337 0.879165 31.3337ZM7.45113 0.435452C7.39532 0.326701 7.28369 0.231544 7.17206 0.163574L4.57671 4.01064L4.28369 5.66909L7.61857 0.734517L7.45113 0.435452ZM0.544189 27.3239L7.98139 24.4828L8.07907 23.7759L0.655817 26.617L0.544189 27.3239ZM0.237209 31.089L7.11628 30.3549L7.2 29.7432L0 30.5044C0.0139535 30.7355 0.0976744 30.9394 0.237209 31.089ZM0.390625 28.2075L7.78597 25.8286L7.88364 25.1489L0.502253 27.5143L0.390625 28.2075ZM0.0144043 30.3554C0.0144043 30.3962 0.0144043 30.4369 0.0144043 30.4777L7.27021 29.3494L7.36789 28.7241L0.112079 29.8524L0.0144043 30.3554ZM0.251221 29.0227L7.60471 27.0924L7.70238 26.4263L0.362849 28.3566L0.251221 29.0227ZM0.125488 29.784L7.43711 28.2615L7.53479 27.6226L0.237116 29.1451L0.125488 29.784ZM10.8977 6.70166L2.65116 15.0891L2.45581 16.2446L11.2325 7.31338L10.8977 6.70166ZM9.99065 5.04297L3.05578 12.8187L2.83252 14.0829L10.3395 5.66829L9.99065 5.04297ZM11.8188 8.36035L2.30249 17.1012L2.12109 18.1751L12.1397 8.95848L11.8188 8.36035ZM9.06958 3.38477L3.48819 10.2633L3.25098 11.6362L9.43237 4.02368L9.06958 3.38477ZM12.7255 10.0049L1.99532 18.8953L1.82788 19.8876L13.0465 10.5894L12.7255 10.0049ZM5.95809 0C5.5953 0 5.19065 0.312659 5.14879 0.706881L4.92554 2.01189L6.1674 0H5.95809ZM8.16279 1.72656L3.9907 7.35442L3.72559 8.86334L8.51163 2.39266L8.16279 1.72656ZM13.6325 11.6636L1.71627 20.5132L1.54883 21.4512L13.9535 12.2345L13.6325 11.6636ZM17.2744 18.2563L11.2883 20.9343L11.5814 21.4917L17.5814 18.8137L17.2744 18.2563ZM18 19.9692L12 22.2666L12.293 22.824L18 20.6489L23.707 22.824L24 22.2666L18 19.9692ZM12.7114 23.5991L13.0044 24.1565L17.9998 22.5524L22.9951 24.1565L23.2882 23.5991L17.9998 21.8999L12.7114 23.5991ZM14.5534 13.3218L1.46501 21.9811L1.31152 22.8647L14.8604 13.8927L14.5534 13.3218ZM16.3674 16.6118L10.5627 19.6025L10.8697 20.1598L16.6744 17.1692L16.3674 16.6118ZM17.9999 23.7075L13.4092 24.9174L13.7022 25.4747L17.9859 24.3464L22.2696 25.4747L22.5627 24.9174L17.9999 23.7075ZM15.4604 14.9668L9.85107 18.2565L10.1581 18.8275L15.7674 15.5377L15.4604 14.9668ZM34.9675 24.51L27.4465 20.6357L27.5582 21.4106L35.093 25.2848L34.9675 24.51ZM34.7581 23.3003L27.1953 18.8687L27.3209 19.6843L34.9116 24.1295L34.7581 23.3003ZM35.1629 25.5976L27.6978 22.2671L27.8094 23.0012L35.3024 26.3453L35.1629 25.5976ZM29.7767 31.3337H35.1209C35.372 31.3337 35.5953 31.2386 35.7488 31.089L28.9255 30.6948C29.0093 31.0211 29.3581 31.3337 29.7767 31.3337ZM31.4372 4.02423L28.8279 0.163574C28.7162 0.231544 28.6046 0.326701 28.5488 0.435452L28.3813 0.734517L31.7162 5.66909L31.4372 4.02423ZM35.3302 26.6028L27.907 23.7617L28.0047 24.4686L35.4419 27.3097L35.3302 26.6028ZM28.7861 29.7432L28.8699 30.3549L35.7489 31.089C35.9024 30.9394 35.9861 30.7491 35.9722 30.5044L28.7861 29.7432ZM35.4837 27.5143L28.1162 25.1489L28.2139 25.8286L35.6092 28.2075L35.4837 27.5143ZM35.986 30.3553L35.9023 29.8387L28.6465 28.7104L28.7442 29.3358L36 30.4641C35.986 30.4369 35.986 30.3961 35.986 30.3553ZM35.6371 28.3566L28.2976 26.4263L28.3953 27.0924L35.7488 29.0227L35.6371 28.3566ZM35.7628 29.1314L28.4651 27.6089L28.5628 28.2478L35.8744 29.7703L35.7628 29.1314ZM33.3487 15.0891L25.1022 6.70166L24.7673 7.31338L33.5441 16.2446L33.3487 15.0891ZM32.958 12.8187L26.0232 5.04297L25.6743 5.66829L33.1813 14.0829L32.958 12.8187ZM33.6976 17.1012L24.1952 8.36035L23.8604 8.95848L33.879 18.1751L33.6976 17.1012ZM32.5115 10.2633L26.9301 3.38477L26.5813 4.02368L32.7627 11.6362L32.5115 10.2633ZM34.0048 18.8953L23.2745 10.0049L22.9536 10.5894L34.1722 19.8876L34.0048 18.8953ZM30.865 0.706881C30.8231 0.312659 30.4045 0 30.0557 0H29.8604L31.1022 2.01189L30.865 0.706881ZM32.0092 7.35442L27.8372 1.72656L27.4744 2.39266L32.2604 8.86334L32.0092 7.35442ZM34.2836 20.5269L22.3673 11.6772L22.0464 12.2482L34.451 21.4648L34.2836 20.5269ZM18.4187 18.8137L24.4187 21.4917L24.7117 20.9343L18.7257 18.2563L18.4187 18.8137ZM34.5347 21.9811L21.4603 13.3218L21.1533 13.8927L34.7021 22.8647L34.5347 21.9811ZM19.3257 17.1692L25.1303 20.1598L25.4373 19.6025L19.6327 16.6118L19.3257 17.1692ZM20.2324 15.5241L25.8417 18.8138L26.1487 18.2428L20.5394 14.9531L20.2324 15.5241Z" transform="translate(46)" fill="#000000"/>
</svg>
