<?xml version="1.0" encoding="utf-8"?>
<!-- Generator: Adobe Illustrator 20.1.0, SVG Export Plug-In . SVG Version: 6.00 Build 0)  -->
<svg version="1.1" id="Layer_1" xmlns="http://www.w3.org/2000/svg" xmlns:xlink="http://www.w3.org/1999/xlink" x="0px" y="0px"
	 viewBox="0 0 499.5 329.6" style="enable-background:new 0 0 499.5 329.6;" xml:space="preserve">
<style type="text/css">
	.st0{fill:#FFFFFF;}
</style>
<g>
	<path class="st0" d="M49.2,327.2c0.2,0.9-0.2,1.6-1.2,1.6h-2.6c-0.5,0-1-0.5-1.2-0.9l-5.8-33.5c-0.1,0-0.2,0-0.3,0l-12,34.3
		c-0.1,0.4-0.7,0.7-1.1,0.7h-1.2c-0.4,0-1-0.3-1.1-0.7l-12.1-34.3c-0.1,0-0.2,0-0.3,0l-5.7,33.5c-0.1,0.5-0.6,0.9-1.2,0.9H1.2
		c-1,0-1.4-0.6-1.2-1.6l8.4-43.7c0.1-0.5,0.7-0.9,1.2-0.9h1c0.5,0,1,0.3,1.1,0.7l12.9,35.8c0.1,0,0.2,0,0.3,0l12.7-35.8
		c0.1-0.4,0.6-0.7,1.1-0.7h1c0.5,0,1,0.4,1.2,0.9L49.2,327.2z M104.1,327.1c0.4,0.8-0.1,1.7-1.1,1.7h-2.6c-0.6,0-1-0.4-1.1-0.7
		l-4.8-10.7H71.3l-4.7,10.7c-0.1,0.3-0.5,0.7-1.1,0.7H63c-1,0-1.5-0.8-1.1-1.7l19.8-43.7c0.2-0.4,0.5-0.7,1.1-0.7h0.5
		c0.6,0,0.9,0.3,1.1,0.7L104.1,327.1z M92.7,313.3c-3.2-7.1-6.3-14.2-9.5-21.3h-0.5l-9.5,21.3H92.7z M128.4,303.3
		c-5.5-2.3-8.8-4.8-8.8-9.2c0-2.7,2.1-7.2,9-7.2c4,0,8.1,2.7,8.5,3c1,0.6,1.7,0.3,2.3-0.6c0.3-0.4,0.5-0.8,0.8-1.2
		c0.8-1.2,0-2-0.4-2.2c0,0-4.7-3.3-11.1-3.3c-10.3,0-13.8,7.1-13.8,11.6c0,7.4,4.3,10.3,11.4,13.5c7.5,3.1,11.4,5.8,11.4,10.3
		c0,3.8-3.4,7.2-8.7,7.2c-5.8,0-10.5-4.6-11-4.9c-0.9-0.8-1.6-0.3-2.3,0.6c-0.3,0.4-0.6,0.8-1,1.2c-0.8,1.2-0.1,1.8,0.4,2.2
		c0.8,0.8,6,5.3,13.7,5.3c7.6,0,14-4.9,14-11.7C142.9,310.2,137.1,306.9,128.4,303.3z M181.4,283.3h-27.6c-0.7,0-1.2,0.6-1.2,1.2
		v1.9c0,0.6,0.5,1.2,1.2,1.2h11.3v39.9c0,0.7,0.6,1.2,1.2,1.2h2.5c0.7,0,1.2-0.6,1.2-1.2v-39.9h11.3c0.7,0,1.2-0.6,1.2-1.2v-1.9
		C182.6,283.9,182.1,283.3,181.4,283.3z M223.1,283.3h-25.6c-0.7,0-1.2,0.6-1.2,1.2v43c0,0.7,0.5,1.2,1.2,1.2h25.6
		c0.7,0,1.2-0.6,1.2-1.2v-1.9c0-0.6-0.5-1.2-1.2-1.2h-21.9v-16.6h18.7c0.6,0,1.2-0.5,1.2-1.2v-1.9c0-0.6-0.6-1.2-1.2-1.2h-18.7
		v-15.9h21.8c0.7,0,1.2-0.6,1.2-1.2v-1.9C224.4,283.9,223.9,283.3,223.1,283.3z M263.9,310.4l8.9,16.5c0.5,0.8,0,1.9-1.1,1.9h-3.3
		c-0.6,0-0.9-0.3-1-0.6l-8.6-17.2h-12.5v16.6c0,0.7-0.6,1.2-1.2,1.2h-2.5c-0.7,0-1.2-0.6-1.2-1.2v-43c0-0.7,0.5-1.2,1.2-1.2h16.8
		c7.8,0,14.2,6.1,14.2,13.8C273.5,303.1,269.5,308.1,263.9,310.4z M268.4,297.2c0-4.9-4.4-9.2-9.4-9.2h-12.6v18.7H259
		C264,306.7,268.4,302.5,268.4,297.2z M324.8,319.6c-0.4-0.3-0.9-0.3-1.6,0.2c-3.4,2.6-6.8,4.9-12.4,4.9c-10.3,0-18.1-8.6-18.1-18.7
		s7.9-18.7,18.1-18.7c4.4,0,9,1.9,12.4,4.9c0.7,0.7,1.2,0.7,1.7,0.1l1.8-1.8c0.5-0.5,0.5-1.3-0.1-1.8c-4.4-3.8-9.2-6-15.7-6
		c-13,0-23.5,10.5-23.5,23.5s10.5,23.3,23.5,23.3c5.8,0,11.4-2,15.8-6.3c0.5-0.5,0.6-1.4,0.1-1.8L324.8,319.6z M366.9,324.4h-18.7
		v-39.9c0-0.7-0.6-1.2-1.2-1.2h-2.5c-0.7,0-1.2,0.6-1.2,1.2v43c0,0.7,0.5,1.2,1.2,1.2h22.5c0.7,0,1.2-0.6,1.2-1.2v-1.9
		C368.1,325,367.5,324.4,366.9,324.4z M419.5,327.1c0.4,0.8-0.1,1.7-1.1,1.7h-2.6c-0.6,0-1-0.4-1.1-0.7l-4.8-10.7h-23.1l-4.7,10.7
		c-0.1,0.3-0.5,0.7-1.1,0.7h-2.6c-1,0-1.5-0.8-1.1-1.7l19.8-43.7c0.2-0.4,0.5-0.7,1.1-0.7h0.6c0.6,0,0.9,0.3,1.1,0.7L419.5,327.1z
		 M408.2,313.3c-3.2-7.1-6.3-14.2-9.5-21.3h-0.5l-9.5,21.3H408.2z M444,303.3c-5.5-2.3-8.8-4.8-8.8-9.2c0-2.7,2.1-7.2,9-7.2
		c4,0,8.1,2.7,8.5,3c1,0.6,1.7,0.3,2.3-0.6c0.3-0.4,0.5-0.8,0.8-1.2c0.8-1.2,0-2-0.4-2.2c0,0-4.7-3.3-11.1-3.3
		c-10.3,0-13.8,7.1-13.8,11.6c0,7.4,4.3,10.3,11.4,13.5c7.5,3.1,11.4,5.8,11.4,10.3c0,3.8-3.4,7.2-8.7,7.2c-5.8,0-10.5-4.6-11-4.9
		c-0.9-0.8-1.6-0.3-2.3,0.6c-0.3,0.4-0.7,0.8-1,1.2c-0.8,1.2-0.1,1.8,0.4,2.2c0.8,0.8,6,5.3,13.7,5.3c7.6,0,14-4.9,14-11.7
		C458.4,310.2,452.8,306.9,444,303.3z M485,303.3c-5.5-2.3-8.8-4.8-8.8-9.2c0-2.7,2.1-7.2,9-7.2c4,0,8.1,2.7,8.5,3
		c1,0.6,1.7,0.3,2.3-0.6c0.3-0.4,0.5-0.8,0.8-1.2c0.8-1.2,0-2-0.4-2.2c0,0-4.7-3.3-11.1-3.3c-10.3,0-13.8,7.1-13.8,11.6
		c0,7.4,4.3,10.3,11.4,13.5c7.5,3.1,11.4,5.8,11.4,10.3c0,3.8-3.4,7.2-8.7,7.2c-5.8,0-10.5-4.6-11-4.9c-0.9-0.8-1.6-0.3-2.3,0.6
		c-0.3,0.4-0.7,0.8-1,1.2c-0.8,1.2-0.1,1.8,0.4,2.2c0.8,0.8,6,5.3,13.7,5.3c7.6,0,14-4.9,14-11.7C499.5,310.2,493.9,306.9,485,303.3
		z"/>
	<path class="st0" d="M277.5,193l-2.2,4.1l-25.6-5.5l-25.6,5.5l-2.2-4.1l27.7-5.9L277.5,193z M127.1,186.1l54-28.5l0.8-5.7
		L128,180.4L127.1,186.1z M249.8,221.2l-12.7,0.8l2.2,4.3l10.5-0.6l10.5,0.5l2.2-4.3L249.8,221.2z M128.6,177.5l54.4-32.7l0.9-6
		l-54.2,32.6L128.6,177.5z M227.1,202.7l2.2,4.2l20.6-3.3l20.6,3.3l2.2-4.2l-22.7-3.6L227.1,202.7z M242.1,231.5
		c1.1,1.8,2.9,3.9,7.7,3.9c4.8,0,6.6-2.1,7.7-3.9H242.1z M249.8,210.4l-17.7,1.9l2.2,4.2l15.5-1.7l15.5,1.7l2.2-4.2L249.8,210.4z
		 M125.9,193.9l53.7-24.6l0.8-5.4l-53.5,24.5L125.9,193.9z M127.1,230.5h38.3c3,0,5.5-2.2,6-4.7l-48.9,2.9
		C123.6,229.8,125.2,230.5,127.1,230.5z M174.1,3.2c-0.4-0.8-1.2-1.5-2-2l-18.6,28.3l-2.1,12.2l23.9-36.3L174.1,3.2z M124.6,201
		l53.3-20.9l0.7-5.2l-53.2,20.9L124.6,201z M122.4,228.7l49.3-5.4l0.6-4.5l-51.6,5.6C120.8,226.1,121.4,227.6,122.4,228.7z
		 M123.6,207.5l53-17.5l0.7-5l-52.9,17.4L123.6,207.5z M120.8,223.3c0,0.3,0,0.6,0,0.9l52-8.3l0.7-4.6l-52,8.3L120.8,223.3z
		 M122.6,213.5l52.7-14.2l0.7-4.9l-52.6,14.2L122.6,213.5z M121.7,219.1l52.4-11.2l0.7-4.7l-52.3,11.2L121.7,219.1z M198.9,49.3
		L139.8,111l-1.4,8.5l62.9-65.7L198.9,49.3z M192.4,37.1l-49.7,57.2l-1.6,9.3l53.8-61.9L192.4,37.1z M205.4,61.5l-68.2,64.3
		l-1.3,7.9l71.8-67.8L205.4,61.5z M185.8,24.9l-40,50.6l-1.7,10.1l44.3-56L185.8,24.9z M211.9,73.6L135,139l-1.2,7.3l80.4-68.4
		L211.9,73.6z M163.4,0c-2.6,0-5.5,2.3-5.8,5.2l-1.6,9.6L164.9,0L163.4,0z M179.2,12.7l-29.9,41.4l-1.9,11.1l34.3-47.6L179.2,12.7z
		 M218.4,85.8L133,150.9l-1.2,6.9L220.8,90L218.4,85.8z M244.6,134.3L201.6,154l2.1,4.1l43-19.7L244.6,134.3z M249.8,146.9l-43,16.9
		l2.1,4.1l40.9-16l40.9,16l2.1-4.1L249.8,146.9z M211.9,173.6l2.1,4.1l35.8-11.8l35.8,11.8l2.1-4.1l-37.9-12.5L211.9,173.6z
		 M225.1,98l-93.8,63.7l-1.1,6.5l97.1-66L225.1,98z M238.1,122.2l-41.6,22l2.2,4.1l41.6-22L238.1,122.2z M249.8,174.4l-32.9,8.9
		l2.1,4.1l30.7-8.3l30.7,8.3l2.1-4.1L249.8,174.4z M231.6,110.1l-40.2,24.2l2.2,4.2l40.2-24.2L231.6,110.1z M371.4,180.3l-53.9-28.5
		l0.8,5.7l54,28.5L371.4,180.3z M369.9,171.4l-54.2-32.6l0.9,6l54.4,32.7L369.9,171.4z M372.8,188.3l-53.5-24.5l0.8,5.4l53.7,24.6
		L372.8,188.3z M334.1,230.5h38.3c1.8,0,3.4-0.7,4.5-1.8l-48.9-2.9C328.6,228.2,331.1,230.5,334.1,230.5z M346,29.6L327.4,1.2
		c-0.8,0.5-1.6,1.2-2,2l-1.2,2.2L348,41.7L346,29.6z M374,195.7l-53.2-20.9l0.7,5.2l53.3,20.9L374,195.7z M327,218.8l0.6,4.5
		l49.3,5.4c1.1-1.1,1.7-2.5,1.6-4.3L327,218.8z M375,202.4L322.2,185l0.7,5l53,17.5L375,202.4z M378.6,223.3l-0.6-3.8l-52-8.3
		l0.7,4.6l52,8.3C378.6,223.9,378.6,223.6,378.6,223.3z M376.1,208.6l-52.6-14.2l0.7,4.9l52.7,14.2L376.1,208.6z M377,214.3
		l-52.3-11.2l0.7,4.7l52.4,11.2L377,214.3z M359.8,111l-59.1-61.7l-2.4,4.5l62.9,65.7L359.8,111z M357,94.3l-49.7-57.2l-2.5,4.6
		l53.8,61.9L357,94.3z M362.2,125.8l-68.1-64.3l-2.4,4.4l71.8,67.8L362.2,125.8z M353.8,75.5l-40-50.6l-2.5,4.7l44.3,56L353.8,75.5z
		 M364.5,139l-76.9-65.4l-2.3,4.3l80.4,68.4L364.5,139z M342,5.2c-0.3-2.9-3.3-5.2-5.8-5.2h-1.4l8.9,14.8L342,5.2z M350.1,54.1
		l-29.9-41.4l-2.6,4.9l34.3,47.6L350.1,54.1z M366.5,151l-85.4-65.1l-2.3,4.2l88.9,67.8L366.5,151z M252.8,138.4l43,19.7l2.1-4.1
		L255,134.3L252.8,138.4z M368.2,161.7L274.5,98l-2.2,4.2l97.1,66L368.2,161.7z M259.2,126.3l41.6,22l2.2-4.1l-41.6-22L259.2,126.3z
		 M265.8,114.2l40.2,24.2l2.2-4.2L268,110L265.8,114.2z"/>
</g>
</svg>
