<?xml version="1.0" encoding="UTF-8"?>
<svg width="129px" height="13px" viewBox="0 0 129 13" version="1.1" xmlns="http://www.w3.org/2000/svg" xmlns:xlink="http://www.w3.org/1999/xlink">
    <!-- Generator: Sketch 42 (36781) - http://www.bohemiancoding.com/sketch -->
    <title>Shape</title>
    <desc>Created with Sketch.</desc>
    <defs></defs>
    <g id="Style-Guide-Refresh" stroke="none" stroke-width="1" fill="none" fill-rule="evenodd">
        <g id="Course-Marketing---Enrolled-Alt-Copy" transform="translate(-96.000000, -14.000000)" fill="#FFFFFF">
            <g id="Group-2">
                <g id="Group-34-Copy" transform="translate(96.000000, 13.000000)">
                    <g id="Group-Copy-6" transform="translate(0.000000, 1.000000)">
                        <path d="M12.6786773,11.4531722 C12.7301644,11.68429 12.6271903,11.8640483 12.3697553,11.8640483 L11.7004241,11.8640483 C11.5717065,11.8640483 11.442989,11.7356495 11.391502,11.6329305 L9.89837856,3.03021148 L9.82114804,3.03021148 L6.73192716,11.8383686 C6.70618365,11.9410876 6.55172261,12.0181269 6.44874858,12.0181269 L6.13982649,12.0181269 C6.03685246,12.0181269 5.88239142,11.9410876 5.85664791,11.8383686 L2.74168353,3.03021148 L2.66445301,3.03021148 L1.19707309,11.6329305 C1.17132958,11.7613293 1.04261205,11.8640483 0.888151002,11.8640483 L0.321793841,11.8640483 C0.0643587683,11.8640483 -0.038615261,11.7099698 0.0128717537,11.4531722 L2.17532637,0.231117825 C2.20106987,0.102719033 2.35553092,-1.42108547e-14 2.48424845,-1.42108547e-14 L2.74168353,-1.42108547e-14 C2.87040106,-1.42108547e-14 2.9991186,0.0770392749 3.02486211,0.179758308 L6.34577455,9.37311178 L6.42300507,9.37311178 L9.6924305,0.179758308 C9.71817401,0.0770392749 9.84689154,-1.42108547e-14 9.97560908,-1.42108547e-14 L10.2330442,-1.42108547e-14 C10.3617617,-1.42108547e-14 10.4904792,0.102719033 10.5419662,0.231117825 L12.6786773,11.4531722 L12.6786773,11.4531722 Z M26.7861193,11.4274924 C26.8890934,11.6329305 26.7603758,11.8640483 26.5029408,11.8640483 L25.8336096,11.8640483 C25.6791485,11.8640483 25.5761745,11.7613293 25.550431,11.68429 L24.3147426,8.93655589 L18.3679925,8.93655589 L17.1580476,11.68429 C17.1323041,11.7613293 17.0293301,11.8640483 16.874869,11.8640483 L16.2055378,11.8640483 C15.9481028,11.8640483 15.8193852,11.6586103 15.9223593,11.4274924 L21.0195737,0.205438066 C21.0710607,0.102719033 21.1482912,0.0256797583 21.3027523,0.0256797583 L21.4314698,0.0256797583 C21.5859309,0.0256797583 21.6631614,0.102719033 21.7146484,0.205438066 L26.7861193,11.4274924 L26.7861193,11.4274924 Z M23.8513595,7.8836858 C23.0275673,6.06042296 22.2295186,4.23716012 21.4057263,2.41389728 L21.2770088,2.41389728 L18.8313756,7.8836858 L23.8513595,7.8836858 L23.8513595,7.8836858 Z M33.0417916,5.31570997 C31.6258987,4.72507553 30.776363,4.08308157 30.776363,2.95317221 C30.776363,2.25981873 31.3169766,1.10422961 33.0932786,1.10422961 C34.1230189,1.10422961 35.1785027,1.79758308 35.2814768,1.87462236 C35.5389118,2.02870091 35.7191164,1.95166163 35.8735774,1.72054381 C35.9508079,1.61782477 36.002295,1.51510574 36.0795255,1.41238671 C36.2854735,1.10422961 36.0795255,0.898791541 35.9765515,0.847432024 C35.9765515,0.847432024 34.7666066,-1.42108547e-14 33.1190221,-1.42108547e-14 C30.4674409,-1.42108547e-14 29.5664181,1.82326284 29.5664181,2.97885196 C29.5664181,4.87915408 30.673389,5.62386707 32.501178,6.44561934 C34.431941,7.24169184 35.4359378,7.93504532 35.4359378,9.09063444 C35.4359378,10.0664653 34.5606586,10.939577 33.1962527,10.939577 C31.7031292,10.939577 30.4931844,9.75830816 30.3644669,9.68126888 C30.1327753,9.47583082 29.9525707,9.60422961 29.7723662,9.83534743 C29.6951357,9.93806647 29.6179052,10.0407855 29.5149311,10.1435045 C29.3089831,10.4516616 29.4891876,10.6057402 29.6179052,10.7084592 C29.8238532,10.9138973 31.1625156,12.0694864 33.1447657,12.0694864 C35.1012722,12.0694864 36.7488567,10.8111782 36.7488567,9.06495468 C36.7746002,7.08761329 35.3072203,6.24018127 33.0417916,5.31570997 L33.0417916,5.31570997 Z M46.711594,0.179758308 L39.606386,0.179758308 C39.4261814,0.179758308 39.2974639,0.333836858 39.2974639,0.487915408 L39.2974639,0.975830816 C39.2974639,1.12990937 39.4261814,1.28398792 39.606386,1.28398792 L42.5154023,1.28398792 L42.5154023,11.5302115 C42.5154023,11.7099698 42.6698634,11.8383686 42.8243244,11.8383686 L43.4679121,11.8383686 C43.6481166,11.8383686 43.7768342,11.68429 43.7768342,11.5302115 L43.7768342,1.28398792 L46.6858505,1.28398792 C46.866055,1.28398792 46.9947726,1.12990937 46.9947726,0.975830816 L46.9947726,0.487915408 C47.0205161,0.333836858 46.8917986,0.179758308 46.711594,0.179758308 L46.711594,0.179758308 Z M57.4466365,0.179758308 L50.8562987,0.179758308 C50.6760941,0.179758308 50.5473766,0.333836858 50.5473766,0.487915408 L50.5473766,11.5302115 C50.5473766,11.7099698 50.6760941,11.8383686 50.8562987,11.8383686 L57.4466365,11.8383686 C57.6268411,11.8383686 57.7555586,11.68429 57.7555586,11.5302115 L57.7555586,11.0422961 C57.7555586,10.8882175 57.6268411,10.734139 57.4466365,10.734139 L51.8088084,10.734139 L51.8088084,6.47129909 L56.6228443,6.47129909 C56.7773054,6.47129909 56.9317664,6.3429003 56.9317664,6.16314199 L56.9317664,5.67522659 C56.9317664,5.52114804 56.7773054,5.36706949 56.6228443,5.36706949 L51.8088084,5.36706949 L51.8088084,1.28398792 L57.420893,1.28398792 C57.6010976,1.28398792 57.7298151,1.12990937 57.7298151,0.975830816 L57.7298151,0.487915408 C57.7555586,0.333836858 57.6268411,0.179758308 57.4466365,0.179758308 L57.4466365,0.179758308 Z M67.924244,7.13897281 L70.2154162,11.3761329 C70.3441337,11.581571 70.2154162,11.8640483 69.9322376,11.8640483 L69.0827018,11.8640483 C68.9282408,11.8640483 68.8510103,11.7870091 68.8252668,11.7099698 L66.6113251,7.29305136 L63.3933867,7.29305136 L63.3933867,11.5558912 C63.3933867,11.7356495 63.2389257,11.8640483 63.0844646,11.8640483 L62.440877,11.8640483 C62.2606724,11.8640483 62.1319549,11.7099698 62.1319549,11.5558912 L62.1319549,0.513595166 C62.1319549,0.333836858 62.2606724,0.205438066 62.440877,0.205438066 L66.7657862,0.205438066 C68.7737798,0.205438066 70.4213642,1.77190332 70.4213642,3.74924471 C70.3956207,5.26435045 69.3916239,6.54833837 67.924244,7.13897281 L67.924244,7.13897281 Z M69.0827018,3.74924471 C69.0827018,2.49093656 67.9499875,1.38670695 66.6628122,1.38670695 L63.4191302,1.38670695 L63.4191302,6.18882175 L66.6628122,6.18882175 C67.975731,6.18882175 69.0827018,5.1102719 69.0827018,3.74924471 L69.0827018,3.74924471 Z M83.60204,9.50151057 C83.4990659,9.4244713 83.3703484,9.4244713 83.1901439,9.55287009 C82.3148646,10.2205438 81.4395854,10.8111782 79.9979489,10.8111782 C77.3463677,10.8111782 75.3383741,8.60271903 75.3383741,6.00906344 C75.3383741,3.41540785 77.3721112,1.20694864 79.9979489,1.20694864 C81.1306633,1.20694864 82.3148646,1.69486405 83.1901439,2.4652568 C83.3703484,2.64501511 83.4990659,2.64501511 83.6277835,2.49093656 L84.0911666,2.02870091 C84.2198841,1.90030211 84.2198841,1.69486405 84.0654231,1.56646526 C82.9327088,0.590634441 81.6970204,0.0256797583 80.0236925,0.0256797583 C76.6770365,0.0256797583 73.9739682,2.72205438 73.9739682,6.06042296 C73.9739682,9.39879154 76.6770365,12.0438066 80.0236925,12.0438066 C81.5168159,12.0438066 82.9584523,11.5302115 84.0911666,10.4259819 C84.2198841,10.2975831 84.2456277,10.0664653 84.1169101,9.96374622 L83.60204,9.50151057 L83.60204,9.50151057 Z M94.4400565,10.734139 L89.6260207,10.734139 L89.6260207,0.487915408 C89.6260207,0.3081571 89.4715596,0.179758308 89.3170986,0.179758308 L88.6735109,0.179758308 C88.4933064,0.179758308 88.3645888,0.333836858 88.3645888,0.487915408 L88.3645888,11.5302115 C88.3645888,11.7099698 88.4933064,11.8383686 88.6735109,11.8383686 L94.4658,11.8383686 C94.6460046,11.8383686 94.7747221,11.68429 94.7747221,11.5302115 L94.7747221,11.0422961 C94.7747221,10.8882175 94.6202611,10.734139 94.4400565,10.734139 L94.4400565,10.734139 Z M108.006885,11.4274924 C108.109859,11.6329305 107.981141,11.8640483 107.723706,11.8640483 L107.054375,11.8640483 C106.899914,11.8640483 106.79694,11.7613293 106.771197,11.68429 L105.535508,8.93655589 L99.588758,8.93655589 L98.3788132,11.68429 C98.3530697,11.7613293 98.2500956,11.8640483 98.0956346,11.8640483 L97.4263034,11.8640483 C97.1688683,11.8640483 97.0401508,11.6586103 97.1431248,11.4274924 L102.240339,0.205438066 C102.291826,0.102719033 102.369057,0.0256797583 102.523518,0.0256797583 L102.677979,0.0256797583 C102.83244,0.0256797583 102.90967,0.102719033 102.961157,0.205438066 L108.006885,11.4274924 L108.006885,11.4274924 Z M105.097869,7.8836858 C104.274076,6.06042296 103.476028,4.23716012 102.652235,2.41389728 L102.523518,2.41389728 L100.077885,7.8836858 L105.097869,7.8836858 L105.097869,7.8836858 Z M114.288301,5.31570997 C112.872408,4.72507553 112.022872,4.08308157 112.022872,2.95317221 C112.022872,2.25981873 112.563486,1.10422961 114.339788,1.10422961 C115.369528,1.10422961 116.425012,1.79758308 116.527986,1.87462236 C116.785421,2.02870091 116.965625,1.95166163 117.120086,1.72054381 C117.197317,1.61782477 117.248804,1.51510574 117.326035,1.41238671 C117.531983,1.10422961 117.326035,0.898791541 117.223061,0.847432024 C117.223061,0.847432024 116.013116,-1.42108547e-14 114.365531,-1.42108547e-14 C111.71395,-1.42108547e-14 110.812927,1.82326284 110.812927,2.97885196 C110.812927,4.87915408 111.919898,5.62386707 113.747687,6.44561934 C115.67845,7.24169184 116.682447,7.93504532 116.682447,9.09063444 C116.682447,10.0664653 115.807168,10.939577 114.442762,10.939577 C112.949638,10.939577 111.739693,9.75830816 111.610976,9.68126888 C111.379284,9.47583082 111.19908,9.60422961 111.018875,9.83534743 C110.941645,9.93806647 110.838671,10.0407855 110.76144,10.1435045 C110.555492,10.4516616 110.735697,10.6057402 110.864414,10.7084592 C111.070362,10.9138973 112.409025,12.0694864 114.391275,12.0694864 C116.347781,12.0694864 117.995366,10.8111782 117.995366,9.06495468 C117.995366,7.08761329 116.553729,6.24018127 114.288301,5.31570997 L114.288301,5.31570997 Z M124.868882,5.31570997 C123.452989,4.72507553 122.603454,4.08308157 122.603454,2.95317221 C122.603454,2.25981873 123.144067,1.10422961 124.920369,1.10422961 C125.950109,1.10422961 127.005593,1.79758308 127.108567,1.87462236 C127.366002,2.02870091 127.546207,1.95166163 127.700668,1.72054381 C127.777899,1.61782477 127.829386,1.51510574 127.906616,1.41238671 C128.112564,1.10422961 127.906616,0.898791541 127.803642,0.847432024 C127.803642,0.847432024 126.593697,-1.42108547e-14 124.946113,-1.42108547e-14 C122.294531,-1.42108547e-14 121.393509,1.82326284 121.393509,2.97885196 C121.393509,4.87915408 122.50048,5.62386707 124.328269,6.44561934 C126.259032,7.24169184 127.263028,7.93504532 127.263028,9.09063444 C127.263028,10.0664653 126.387749,10.939577 125.023343,10.939577 C123.53022,10.939577 122.320275,9.75830816 122.191557,9.68126888 C121.959866,9.47583082 121.779661,9.60422961 121.599457,9.83534743 C121.522226,9.93806647 121.419252,10.0407855 121.342022,10.1435045 C121.136074,10.4516616 121.316278,10.6057402 121.444996,10.7084592 C121.650944,10.9138973 122.989606,12.0694864 124.971856,12.0694864 C126.928363,12.0694864 128.575947,10.8111782 128.575947,9.06495468 C128.601691,7.08761329 127.134311,6.24018127 124.868882,5.31570997 L124.868882,5.31570997 Z" id="Shape"></path>
                    </g>
                </g>
            </g>
        </g>
    </g>
</svg>