<svg width="85" height="56" viewBox="0 0 85 56" fill="none" xmlns="http://www.w3.org/2000/svg">
<path fill-rule="evenodd" clip-rule="evenodd" d="M8.15204 7.81641C8.32172 7.81641 8.38959 7.69775 8.35565 7.54541L6.94745 0.152344C6.91351 0.0678711 6.8288 0 6.74384 0H6.5744C6.48944 0 6.40472 0.0507812 6.38763 0.118652L4.23309 6.17529H4.18207L1.99335 0.118652C1.9765 0.0507812 1.89154 0 1.80682 0H1.63715C1.55243 0 1.45062 0.0678711 1.43353 0.152344L0.00848389 7.54541C-0.0254517 7.71484 0.0424194 7.81641 0.212097 7.81641H0.585388C0.686951 7.81641 0.771912 7.74854 0.788757 7.66406L1.75604 1.99658H1.80682L3.8598 7.79932C3.87665 7.86719 3.97845 7.91797 4.04633 7.91797H4.24994C4.31781 7.91797 4.41962 7.86719 4.43646 7.79932L6.4726 1.99658H6.52338L7.50751 7.66406C7.54144 7.73193 7.62616 7.81641 7.71112 7.81641H8.15204ZM17.4665 7.81641C17.6362 7.81641 17.7209 7.66406 17.653 7.52881L14.3107 0.135742C14.2768 0.0678711 14.2258 0.0170898 14.124 0.0170898H14.0392C13.9374 0.0170898 13.8867 0.0678711 13.8527 0.135742L10.4933 7.52881C10.4255 7.68115 10.5102 7.81641 10.6799 7.81641H11.121C11.2228 7.81641 11.2907 7.74902 11.3078 7.69824L12.1052 5.8877H16.0244L16.8386 7.69824C16.8557 7.74902 16.9235 7.81641 17.0253 7.81641H17.4665ZM14.9553 3.48682L14.913 3.39209L14.8708 3.29736C14.6176 2.72852 14.3642 2.15918 14.1071 1.59033H14.0224L12.4106 5.19385H15.7189C15.4619 4.625 15.2084 4.05566 14.9553 3.48682ZM20.2827 1.9458C20.2827 2.68994 20.8427 3.11279 21.7758 3.50195C23.2687 4.11133 24.2358 4.66943 24.2189 5.97217C24.2189 7.12256 23.133 7.95166 21.8437 7.95166C20.5373 7.95166 19.655 7.19043 19.5192 7.05518C19.4345 6.9873 19.3156 6.88574 19.4514 6.68262C19.5192 6.61523 19.5703 6.54736 19.621 6.47998C19.7399 6.32764 19.8586 6.24268 20.0114 6.37842C20.018 6.38232 20.029 6.39062 20.0439 6.40283L20.0519 6.40918L20.0627 6.41797L20.0698 6.42383L20.0812 6.43311C20.3102 6.62158 21.0236 7.20703 21.8776 7.20703C22.7768 7.20703 23.3537 6.63184 23.3537 5.98926C23.3537 5.22803 22.6918 4.771 21.4194 4.24658C20.2148 3.70508 19.4853 3.21436 19.4853 1.9624C19.4853 1.20117 20.0793 0 21.8266 0C22.9125 0 23.7099 0.558105 23.7099 0.558105C23.7778 0.592285 23.9135 0.727539 23.7778 0.930664C23.7526 0.964355 23.7314 0.997559 23.7104 1.03125C23.6891 1.06543 23.6677 1.09961 23.642 1.1333C23.5402 1.28564 23.4216 1.33643 23.2519 1.23486C23.184 1.18408 22.4885 0.727539 21.8098 0.727539C20.6391 0.727539 20.2827 1.48877 20.2827 1.9458ZM30.7849 0.118652H26.1022C25.9833 0.118652 25.8986 0.220215 25.8986 0.321777V0.643066C25.8986 0.744629 25.9833 0.846191 26.1022 0.846191H28.0195V7.59668C28.0195 7.71484 28.1213 7.7998 28.2231 7.7998H28.6472C28.7658 7.7998 28.8508 7.69824 28.8508 7.59668V0.846191H30.7678C30.8867 0.846191 30.9714 0.744629 30.9714 0.643066V0.321777C30.9885 0.220215 30.9035 0.118652 30.7849 0.118652ZM33.5165 0.118652H37.8598C37.9787 0.118652 38.0634 0.220215 38.0466 0.321777V0.643066C38.0466 0.744629 37.9616 0.846191 37.843 0.846191H34.1442V3.53613H37.3168C37.4186 3.53613 37.5204 3.6377 37.5204 3.73926V4.06055C37.5204 4.1792 37.4186 4.26367 37.3168 4.26367H34.1442V7.07227H37.8598C37.9787 7.07227 38.0634 7.17383 38.0634 7.27539V7.59668C38.0634 7.69824 37.9787 7.7998 37.8598 7.7998H33.5165C33.3976 7.7998 33.3129 7.71484 33.3129 7.59668V0.321777C33.3129 0.220215 33.3976 0.118652 33.5165 0.118652ZM44.7648 4.70312L46.2748 7.49463C46.3596 7.62988 46.2748 7.81641 46.0881 7.81641H45.5283C45.4265 7.81641 45.3757 7.76562 45.3586 7.71484L43.8996 4.80469H41.7787V7.61328C41.7787 7.73145 41.6769 7.81641 41.5751 7.81641H41.1511C41.0322 7.81641 40.9474 7.71484 40.9474 7.61328V0.338379C40.9474 0.219727 41.0322 0.135254 41.1511 0.135254H44.0014C45.3246 0.135254 46.4106 1.16748 46.4106 2.47021C46.3935 3.46826 45.7319 4.31396 44.7648 4.70312ZM43.9335 0.913574C44.7819 0.913574 45.5283 1.64111 45.5283 2.47021C45.5283 3.3667 44.7988 4.07715 43.9335 4.07715H41.7958V0.913574H43.9335ZM55.0971 6.25977C55.0292 6.20947 54.9445 6.20947 54.8256 6.29395C54.249 6.73389 53.6721 7.12305 52.7219 7.12305C50.9745 7.12305 49.6511 5.66797 49.6511 3.95898C49.6511 2.25049 50.9914 0.79541 52.7219 0.79541C53.4684 0.79541 54.249 1.1167 54.8256 1.62451C54.9445 1.74268 55.0292 1.74268 55.1142 1.64111L55.4196 1.33691C55.5043 1.25195 55.5043 1.1167 55.4025 1.03223C54.6562 0.38916 53.8417 0.0170898 52.739 0.0170898C50.5334 0.0170898 48.7519 1.79346 48.7519 3.99316C48.7519 6.19238 50.5334 7.93506 52.739 7.93506C53.7228 7.93506 54.673 7.59668 55.4196 6.86914C55.5043 6.78467 55.5214 6.63232 55.4365 6.56445L55.0971 6.25977ZM59.0673 7.07227H62.2399C62.3588 7.07227 62.4606 7.17383 62.4606 7.27539V7.59668C62.4606 7.69824 62.3757 7.7998 62.257 7.7998H58.4396C58.3207 7.7998 58.236 7.71484 58.236 7.59668V0.321777C58.236 0.220215 58.3207 0.118652 58.4396 0.118652H58.8637C58.9655 0.118652 59.0673 0.203125 59.0673 0.321777V7.07227ZM71.1811 7.52881C71.249 7.66406 71.1642 7.81641 70.9946 7.81641H70.5534C70.4516 7.81641 70.3837 7.74902 70.3666 7.69824L69.5524 5.8877H65.6332L64.8359 7.69824C64.8188 7.74902 64.7509 7.81641 64.6491 7.81641H64.2079C64.0383 7.81641 63.9536 7.68115 64.0214 7.52881L67.3808 0.135742C67.4147 0.0678711 67.4655 0.0170898 67.5673 0.0170898H67.6691C67.7709 0.0170898 67.8217 0.0678711 67.8557 0.135742L71.1811 7.52881ZM68.4579 3.39209L68.5002 3.48682C68.7534 4.05566 69.0068 4.625 69.2639 5.19385H65.9555L67.5673 1.59033H67.652C67.9091 2.15918 68.1625 2.72852 68.4157 3.29736L68.4579 3.39209ZM75.3207 3.50195C74.3876 3.11279 73.8276 2.68994 73.8276 1.9458C73.8276 1.48877 74.184 0.727539 75.3547 0.727539C76.0334 0.727539 76.7289 1.18408 76.7968 1.23486C76.9665 1.33643 77.0851 1.28564 77.187 1.1333C77.2126 1.09961 77.2341 1.06543 77.2553 1.03125C77.2763 0.997559 77.2975 0.964355 77.3227 0.930664C77.4584 0.727539 77.3227 0.592285 77.2548 0.558105C77.2548 0.558105 76.4575 0 75.3715 0C73.6242 0 73.0302 1.20117 73.0302 1.9624C73.0302 3.21436 73.7597 3.70508 74.9643 4.24658C76.2368 4.771 76.8986 5.22803 76.8986 5.98926C76.8986 6.63184 76.3217 7.20703 75.4225 7.20703C74.5685 7.20703 73.8552 6.62158 73.6262 6.43311L73.6147 6.42383C73.5859 6.40039 73.5663 6.38428 73.5563 6.37842C73.4035 6.24268 73.2849 6.32764 73.166 6.47998C73.1413 6.5127 73.1127 6.54541 73.0839 6.57812L73.0805 6.58203C73.051 6.61572 73.0217 6.64941 72.9963 6.68262C72.8605 6.88574 72.9794 6.9873 73.0641 7.05518C73.1999 7.19043 74.0822 7.95166 75.3886 7.95166C76.6779 7.95166 77.7639 7.12256 77.7639 5.97217C77.7639 4.66943 76.8137 4.11133 75.3207 3.50195ZM80.8007 1.9458C80.8007 2.68994 81.3608 3.11279 82.2939 3.50195C83.7868 4.11133 84.7538 4.66943 84.737 5.97217C84.737 7.12256 83.6511 7.95166 82.3618 7.95166C81.0554 7.95166 80.173 7.19043 80.0373 7.05518C79.9526 6.9873 79.8337 6.88574 79.9694 6.68262C79.9948 6.64941 80.0241 6.61572 80.0536 6.58203C80.0837 6.54785 80.1135 6.51416 80.1391 6.47998C80.258 6.32764 80.3766 6.24268 80.5295 6.37842C80.5407 6.38525 80.5644 6.40479 80.5993 6.43311C80.8283 6.62158 81.5417 7.20703 82.3957 7.20703C83.2949 7.20703 83.8718 6.63184 83.8718 5.98926C83.8718 5.22803 83.2099 4.771 81.9374 4.24658C80.7328 3.70508 80.0034 3.21436 80.0034 1.9624C80.0034 1.20117 80.5974 0 82.3447 0C83.4306 0 84.228 0.558105 84.228 0.558105C84.2958 0.592285 84.4316 0.727539 84.2958 0.930664C84.2707 0.964355 84.2495 0.997559 84.2285 1.03125C84.2072 1.06543 84.1857 1.09961 84.1601 1.1333C84.0583 1.28564 83.9396 1.33643 83.77 1.23486C83.7021 1.18408 83.0065 0.727539 82.3278 0.727539C81.1572 0.727539 80.8007 1.48877 80.8007 1.9458Z" transform="translate(0.127197 47.9468)" fill="#000000"/>
<path fill-rule="evenodd" clip-rule="evenodd" d="M6.2605 0.879883C6.31128 0.38916 6.80347 0 7.24438 0H7.49902L5.98901 2.50391L6.2605 0.879883ZM8.72046 0.203125C8.8562 0.287598 8.99194 0.40625 9.05981 0.541504L9.26343 0.913574L5.2085 7.05518L5.5647 4.99121L8.72046 0.203125ZM10.5527 24.498L1.32324 30.0303L1.50977 28.9985L10.7056 23.4829L10.5527 24.498ZM10.2476 26.6636L1.08594 31.4854L1.23853 30.521L10.3833 25.6992L10.2476 26.6636ZM26.2295 33.3462L26.6028 32.6523L21.8694 31.6543L17.1697 32.6523L17.543 33.3462L21.8862 32.4155L26.2295 33.3462ZM21.8862 37.4233L19.7314 37.5586L20.1047 38.2861L21.8862 38.1846L23.6675 38.269L24.0408 37.542L21.8862 37.4233ZM18.0349 34.2935L18.4082 35.0044L21.9031 34.4458L25.3982 35.0044L25.7715 34.2935L21.9202 33.6846L18.0349 34.2935ZM21.8862 39.8257C21.0718 39.8257 20.7664 39.4707 20.5798 39.166H23.1926C23.0061 39.4707 22.7007 39.8257 21.8862 39.8257ZM21.8862 35.5962L18.8833 35.9175L19.2566 36.6284L21.8862 36.3408L24.5161 36.6284L24.8894 35.9175L21.8862 35.5962ZM9.97607 28.6431L0.865234 32.8052L1.03491 31.8745L10.1118 27.7295L9.97607 28.6431ZM1.06885 38.9971H7.56689C8.07568 38.9971 8.5 38.6245 8.58472 38.2017L0.28833 38.6924L8.65259 37.7788L8.75439 37.0176L0 37.9648C0.0168457 38.2524 0.118652 38.5063 0.28833 38.6924C0.491943 38.8784 0.763428 38.9971 1.06885 38.9971ZM0.661621 34.0059L9.70459 30.4702L9.82324 29.5903L0.797363 33.1265L0.661621 34.0059ZM0.475098 35.106L9.46704 32.145L9.58594 31.2993L0.61084 34.2432L0.475098 35.106ZM0.0168457 37.9312V37.7788L0.135498 37.1528L8.95801 35.7485L8.83911 36.5269L0.0168457 37.9312ZM0.30542 36.1211L9.24658 33.7188L9.36523 32.8896L0.441162 35.292L0.30542 36.1211ZM9.04272 35.1738L0.152588 37.0684L0.28833 36.2734L9.16162 34.3784L9.04272 35.1738ZM13.2505 8.34082L3.22363 18.7793L2.98608 20.2178L13.6577 9.10205L13.2505 8.34082ZM3.71558 15.9541L12.1477 6.27686L12.5718 7.05518L3.44409 17.5278L3.71558 15.9541ZM14.3704 10.4048L2.79932 21.2832L2.57886 22.6201L14.7605 11.1494L14.3704 10.4048ZM4.24146 12.7734L11.0281 4.21289L11.469 5.0083L3.95312 14.4824L4.24146 12.7734ZM15.4731 12.4521L2.42627 23.5166L2.22266 24.752L15.8633 13.1797L15.4731 12.4521ZM9.92529 2.14844L4.85229 9.15283L4.53003 11.0308L10.3494 2.97754L9.92529 2.14844ZM2.08691 25.5298L16.5759 14.5161L16.9661 15.2266L1.8833 26.6973L2.08691 25.5298ZM21.0042 22.7217L13.7256 26.0547L14.0818 26.748L21.3772 23.4155L21.0042 22.7217ZM14.5908 27.7124L21.8862 24.853L29.1816 27.7124L28.8254 28.4058L21.8862 25.6987L14.947 28.4058L14.5908 27.7124ZM15.4561 29.3701L15.8123 30.064L21.8862 28.0674L27.96 30.064L28.3164 29.3701L21.8862 27.2554L15.4561 29.3701ZM1.78125 27.3569L17.6956 16.5801L18.0688 17.2905L1.59473 28.457L1.78125 27.3569ZM19.9011 20.6743L12.8433 24.3965L13.2166 25.0898L20.2744 21.3682L19.9011 20.6743ZM16.3044 31.0117L21.8862 29.5059L27.4341 31.0117L27.0779 31.7051L21.8694 30.3013L16.6606 31.7051L16.3044 31.0117ZM18.7983 18.627L11.978 22.7212L12.3513 23.4316L19.1716 19.3374L18.7983 18.627ZM33.3723 25.6821L42.5171 30.5039L42.6697 31.4683L33.5081 26.6465L33.3723 25.6821ZM42.2625 28.9985L33.0669 23.4829L33.2195 24.498L42.4492 30.0303L42.2625 28.9985ZM33.6777 27.7124L42.7546 31.8574L42.9243 32.7881L33.8135 28.626L33.6777 27.7124ZM36.2056 38.9971H42.7036C43.009 38.9971 43.2805 38.8784 43.467 38.6924C43.6536 38.5063 43.7554 38.2695 43.7385 37.9648L35.001 37.0176L35.1028 37.7788L43.467 38.6924L35.1707 38.2017C35.2725 38.6079 35.6965 38.9971 36.2056 38.9971ZM35.052 0.203125L38.2246 5.00781L38.564 7.05518L34.509 0.913574L34.7126 0.541504C34.7805 0.40625 34.9163 0.287598 35.052 0.203125ZM42.958 33.1094L33.9321 29.5732L34.0508 30.4531L43.0938 33.9888L42.958 33.1094ZM43.1445 34.2432L34.1865 31.2993L34.3052 32.145L43.2974 35.106L43.1445 34.2432ZM43.6536 37.1362L43.7554 37.7793C43.7554 37.8296 43.7554 37.8804 43.7725 37.9146L34.95 36.5103L34.8313 35.7319L43.6536 37.1362ZM43.3313 35.292L34.4072 32.8896L34.5259 33.7188L43.467 36.1211L43.3313 35.292ZM34.6108 34.3613L43.4841 36.2563L43.6199 37.0513L34.7295 35.1567L34.6108 34.3613ZM40.5488 18.7793L30.522 8.34082L30.1147 9.10205L40.7864 20.2178L40.5488 18.7793ZM31.6416 6.27686L40.0737 15.9541L40.3452 17.5278L31.2175 7.05518L31.6416 6.27686ZM40.9731 21.2832L29.4192 10.4048L29.012 11.1494L41.1936 22.6201L40.9731 21.2832ZM32.7444 4.21289L39.531 12.7734L39.8362 14.4824L32.3203 5.0083L32.7444 4.21289ZM41.3462 23.5166L28.2993 12.4521L27.9092 13.1797L41.5498 24.752L41.3462 23.5166ZM36.5449 0C36.969 0 37.478 0.38916 37.5288 0.879883L37.8174 2.50391L36.3074 0H36.5449ZM38.9202 9.15283L33.8474 2.14844L33.4062 2.97754L39.2256 11.0308L38.9202 9.15283ZM27.1965 14.5327L41.6855 25.5464L41.8892 26.7139L26.8064 15.2432L27.1965 14.5327ZM22.3953 23.4155L29.6907 26.748L30.0469 26.0547L22.7686 22.7217L22.3953 23.4155ZM26.0938 16.5801L41.991 27.3569L42.1946 28.457L25.7205 17.2905L26.0938 16.5801ZM23.498 21.3682L30.5559 25.0898L30.9292 24.3965L23.8713 20.6743L23.498 21.3682ZM31.4211 23.415L24.6008 19.3208L24.9741 18.6104L31.7944 22.7046L31.4211 23.415Z" transform="translate(20.6138 0.135254)" fill="#000000"/>
</svg>
