<svg width="380" height="80" viewBox="0 0 380 80" version="1.1" xmlns="http://www.w3.org/2000/svg" xmlns:xlink="http://www.w3.org/1999/xlink">
<g id="Canvas" fill="none">
<g id="Group 10.1">
<g id="Copyright &#194;&#169; 2016 Mas">
<path d="M 7.83104 11.076C 7.90037 11.076 7.96104 11.1042 8.01304 11.1605L 8.51354 11.7C 8.13221 12.142 7.66854 12.4865 7.12254 12.7335C 6.58087 12.9805 5.92437 13.104 5.15304 13.104C 4.48571 13.104 3.87904 12.9892 3.33304 12.7595C 2.78704 12.5255 2.32121 12.2005 1.93554 11.7845C 1.54987 11.3642 1.25087 10.8615 1.03854 10.2765C 0.826206 9.6915 0.720039 9.048 0.720039 8.346C 0.720039 7.644 0.830539 7.0005 1.05154 6.4155C 1.27254 5.8305 1.58237 5.32783 1.98104 4.9075C 2.38404 4.48717 2.86504 4.16217 3.42404 3.9325C 3.98304 3.6985 4.60054 3.5815 5.27654 3.5815C 5.93954 3.5815 6.52454 3.68767 7.03154 3.9C 7.53854 4.11233 7.98487 4.4005 8.37054 4.7645L 7.95454 5.343C 7.92854 5.38633 7.89387 5.42317 7.85054 5.4535C 7.81154 5.4795 7.75737 5.4925 7.68804 5.4925C 7.61004 5.4925 7.51471 5.45133 7.40204 5.369C 7.28937 5.28233 7.14204 5.187 6.96004 5.083C 6.77804 4.979 6.55054 4.88583 6.27754 4.8035C 6.00454 4.71683 5.66871 4.6735 5.27004 4.6735C 4.78904 4.6735 4.34921 4.758 3.95054 4.927C 3.55187 5.09167 3.20737 5.33217 2.91704 5.6485C 2.63104 5.96483 2.40787 6.3505 2.24754 6.8055C 2.08721 7.2605 2.00704 7.774 2.00704 8.346C 2.00704 8.92667 2.08937 9.4445 2.25404 9.8995C 2.42304 10.3545 2.65054 10.7402 2.93654 11.0565C 3.22687 11.3685 3.56704 11.6068 3.95704 11.7715C 4.35137 11.9362 4.77604 12.0185 5.23104 12.0185C 5.50837 12.0185 5.75754 12.0033 5.97854 11.973C 6.20387 11.9383 6.40971 11.8863 6.59604 11.817C 6.78671 11.7477 6.96221 11.661 7.12254 11.557C 7.28721 11.4487 7.44971 11.3208 7.61004 11.1735C 7.68371 11.1085 7.75737 11.076 7.83104 11.076ZM 12.3512 6.3115C 12.8322 6.3115 13.2655 6.39167 13.6512 6.552C 14.0368 6.71233 14.3662 6.93983 14.6392 7.2345C 14.9122 7.52917 15.1202 7.88667 15.2632 8.307C 15.4105 8.723 15.4842 9.18883 15.4842 9.7045C 15.4842 10.2245 15.4105 10.6925 15.2632 11.1085C 15.1202 11.5245 14.9122 11.8798 14.6392 12.1745C 14.3662 12.4692 14.0368 12.6967 13.6512 12.857C 13.2655 13.013 12.8322 13.091 12.3512 13.091C 11.8658 13.091 11.4282 13.013 11.0382 12.857C 10.6525 12.6967 10.3232 12.4692 10.0502 12.1745C 9.77718 11.8798 9.56701 11.5245 9.41968 11.1085C 9.27668 10.6925 9.20518 10.2245 9.20518 9.7045C 9.20518 9.18883 9.27668 8.723 9.41968 8.307C 9.56701 7.88667 9.77718 7.52917 10.0502 7.2345C 10.3232 6.93983 10.6525 6.71233 11.0382 6.552C 11.4282 6.39167 11.8658 6.3115 12.3512 6.3115ZM 12.3512 12.1875C 13.0012 12.1875 13.4865 11.9708 13.8072 11.5375C 14.1278 11.0998 14.2882 10.491 14.2882 9.711C 14.2882 8.92667 14.1278 8.31567 13.8072 7.878C 13.4865 7.44033 13.0012 7.2215 12.3512 7.2215C 12.0218 7.2215 11.7337 7.27783 11.4867 7.3905C 11.244 7.50317 11.0403 7.66567 10.8757 7.878C 10.7153 8.09033 10.594 8.3525 10.5117 8.6645C 10.4337 8.97217 10.3947 9.321 10.3947 9.711C 10.3947 10.491 10.555 11.0998 10.8757 11.5375C 11.2007 11.9708 11.6925 12.1875 12.3512 12.1875ZM 18.1152 11.414C 18.3275 11.7 18.5593 11.9015 18.8107 12.0185C 19.062 12.1355 19.3437 12.194 19.6557 12.194C 20.271 12.194 20.7433 11.9752 21.0727 11.5375C 21.402 11.0998 21.5667 10.4758 21.5667 9.6655C 21.5667 9.2365 21.5277 8.86817 21.4497 8.5605C 21.376 8.25283 21.2677 8.0015 21.1247 7.8065C 20.9817 7.60717 20.8062 7.462 20.5982 7.371C 20.3902 7.28 20.154 7.2345 19.8897 7.2345C 19.5127 7.2345 19.1812 7.32117 18.8952 7.4945C 18.6135 7.66783 18.3535 7.91267 18.1152 8.229L 18.1152 11.414ZM 18.0567 7.436C 18.334 7.09367 18.6547 6.8185 19.0187 6.6105C 19.3827 6.4025 19.7987 6.2985 20.2667 6.2985C 20.648 6.2985 20.9925 6.37217 21.3002 6.5195C 21.6078 6.6625 21.87 6.877 22.0867 7.163C 22.3033 7.44467 22.4702 7.79567 22.5872 8.216C 22.7042 8.63633 22.7627 9.1195 22.7627 9.6655C 22.7627 10.1508 22.6977 10.6037 22.5677 11.024C 22.4377 11.44 22.2492 11.8018 22.0022 12.1095C 21.7595 12.4128 21.4605 12.6533 21.1052 12.831C 20.7542 13.0043 20.3577 13.091 19.9157 13.091C 19.5127 13.091 19.166 13.0238 18.8757 12.8895C 18.5897 12.7508 18.3362 12.5602 18.1152 12.3175L 18.1152 15.2295L 16.9517 15.2295L 16.9517 6.4155L 17.6472 6.4155C 17.8118 6.4155 17.9137 6.49567 17.9527 6.656L 18.0567 7.436ZM 29.7547 6.4155L 26.0822 14.9435C 26.0432 15.0302 25.9934 15.0995 25.9327 15.1515C 25.8764 15.2035 25.7876 15.2295 25.6662 15.2295L 24.8082 15.2295L 26.0107 12.6165L 23.2937 6.4155L 24.2947 6.4155C 24.3944 6.4155 24.4724 6.4415 24.5287 6.4935C 24.5894 6.54117 24.6306 6.59533 24.6522 6.656L 26.4137 10.803C 26.4831 10.985 26.5416 11.1757 26.5892 11.375C 26.6499 11.1713 26.7149 10.9785 26.7842 10.7965L 28.4937 6.656C 28.5197 6.58667 28.5631 6.53033 28.6237 6.487C 28.6887 6.43933 28.7602 6.4155 28.8382 6.4155L 29.7547 6.4155ZM 31.8754 7.735C 32.0834 7.28433 32.339 6.93333 32.6424 6.682C 32.9457 6.42633 33.3162 6.2985 33.7539 6.2985C 33.8925 6.2985 34.0247 6.31367 34.1504 6.344C 34.2804 6.37433 34.3952 6.422 34.4949 6.487L 34.4104 7.3515C 34.3844 7.45983 34.3194 7.514 34.2154 7.514C 34.1547 7.514 34.0659 7.501 33.9489 7.475C 33.8319 7.449 33.6997 7.436 33.5524 7.436C 33.3444 7.436 33.158 7.46633 32.9934 7.527C 32.833 7.58767 32.6879 7.67867 32.5579 7.8C 32.4322 7.917 32.3174 8.06433 32.2134 8.242C 32.1137 8.41533 32.0227 8.61467 31.9404 8.84L 31.9404 13L 30.7769 13L 30.7769 6.4155L 31.4399 6.4155C 31.5655 6.4155 31.6522 6.43933 31.6999 6.487C 31.7475 6.53467 31.78 6.617 31.7974 6.734L 31.8754 7.735ZM 36.7342 6.4155L 36.7342 13L 35.5772 13L 35.5772 6.4155L 36.7342 6.4155ZM 36.9812 4.3485C 36.9812 4.46117 36.9574 4.56733 36.9097 4.667C 36.8664 4.76233 36.8057 4.849 36.7277 4.927C 36.654 5.00067 36.5652 5.05917 36.4612 5.1025C 36.3615 5.14583 36.2554 5.1675 36.1427 5.1675C 36.03 5.1675 35.9239 5.14583 35.8242 5.1025C 35.7289 5.05917 35.6444 5.00067 35.5707 4.927C 35.497 4.849 35.4385 4.76233 35.3952 4.667C 35.3519 4.56733 35.3302 4.46117 35.3302 4.3485C 35.3302 4.23583 35.3519 4.12967 35.3952 4.03C 35.4385 3.926 35.497 3.83717 35.5707 3.7635C 35.6444 3.6855 35.7289 3.62483 35.8242 3.5815C 35.9239 3.53817 36.03 3.5165 36.1427 3.5165C 36.2554 3.5165 36.3615 3.53817 36.4612 3.5815C 36.5652 3.62483 36.654 3.6855 36.7277 3.7635C 36.8057 3.83717 36.8664 3.926 36.9097 4.03C 36.9574 4.12967 36.9812 4.23583 36.9812 4.3485ZM 40.9297 9.7825C 41.1637 9.7825 41.3696 9.75 41.5472 9.685C 41.7249 9.62 41.8744 9.529 41.9957 9.412C 42.1171 9.295 42.2081 9.15633 42.2687 8.996C 42.3294 8.83133 42.3597 8.6515 42.3597 8.4565C 42.3597 8.0535 42.2362 7.73283 41.9893 7.4945C 41.7466 7.25617 41.3934 7.137 40.9297 7.137C 40.4618 7.137 40.1043 7.25617 39.8572 7.4945C 39.6146 7.73283 39.4933 8.0535 39.4933 8.4565C 39.4933 8.6515 39.5236 8.83133 39.5843 8.996C 39.6492 9.15633 39.7424 9.295 39.8638 9.412C 39.9851 9.529 40.1346 9.62 40.3122 9.685C 40.4899 9.75 40.6957 9.7825 40.9297 9.7825ZM 43.0162 13.3575C 43.0162 13.1972 42.9708 13.0672 42.8798 12.9675C 42.7888 12.8678 42.6652 12.7898 42.5092 12.7335C 42.3576 12.6772 42.1799 12.6382 41.9762 12.6165C 41.7726 12.5905 41.5559 12.571 41.3263 12.558C 41.1009 12.545 40.8713 12.532 40.6373 12.519C 40.4033 12.506 40.1779 12.4843 39.9612 12.454C 39.7186 12.5667 39.5193 12.7097 39.3632 12.883C 39.2116 13.052 39.1357 13.2513 39.1357 13.481C 39.1357 13.6283 39.1726 13.7648 39.2462 13.8905C 39.3242 14.0205 39.4412 14.131 39.5973 14.222C 39.7532 14.3173 39.9482 14.391 40.1823 14.443C 40.4206 14.4993 40.7001 14.5275 41.0208 14.5275C 41.3327 14.5275 41.6122 14.4993 41.8593 14.443C 42.1063 14.3867 42.3142 14.3065 42.4832 14.2025C 42.6566 14.0985 42.7888 13.975 42.8798 13.832C 42.9708 13.689 43.0162 13.5308 43.0162 13.3575ZM 44.1927 6.6755L 44.1927 7.1045C 44.1927 7.2475 44.1017 7.3385 43.9197 7.3775L 43.1722 7.475C 43.3196 7.761 43.3933 8.07733 43.3933 8.424C 43.3933 8.74467 43.3304 9.03717 43.2047 9.3015C 43.0834 9.5615 42.9144 9.78467 42.6977 9.971C 42.4811 10.1573 42.2211 10.3003 41.9178 10.4C 41.6144 10.4997 41.2851 10.5495 40.9297 10.5495C 40.6221 10.5495 40.3318 10.5127 40.0588 10.439C 39.9201 10.5257 39.8139 10.6188 39.7402 10.7185C 39.6666 10.8138 39.6297 10.9113 39.6297 11.011C 39.6297 11.167 39.6926 11.2862 39.8183 11.3685C 39.9482 11.4465 40.1172 11.5028 40.3252 11.5375C 40.5332 11.5722 40.7694 11.5938 41.0337 11.6025C 41.3024 11.6112 41.5754 11.6263 41.8527 11.648C 42.1344 11.6653 42.4074 11.6978 42.6718 11.7455C 42.9404 11.7932 43.1787 11.8712 43.3867 11.9795C 43.5948 12.0878 43.7616 12.2373 43.8873 12.428C 44.0172 12.6187 44.0822 12.8657 44.0822 13.169C 44.0822 13.4507 44.0107 13.7237 43.8677 13.988C 43.7291 14.2523 43.5276 14.4863 43.2632 14.69C 42.9989 14.898 42.6739 15.0627 42.2883 15.184C 41.9069 15.3097 41.4758 15.3725 40.9948 15.3725C 40.5138 15.3725 40.0934 15.3248 39.7338 15.2295C 39.3741 15.1342 39.0751 15.0063 38.8368 14.846C 38.5984 14.6857 38.4186 14.4993 38.2973 14.287C 38.1802 14.079 38.1217 13.8602 38.1217 13.6305C 38.1217 13.3055 38.2236 13.0303 38.4272 12.805C 38.6309 12.5797 38.9104 12.3998 39.2658 12.2655C 39.0708 12.1788 38.9148 12.064 38.7977 11.921C 38.6851 11.7737 38.6288 11.5765 38.6288 11.3295C 38.6288 11.2342 38.6461 11.1367 38.6808 11.037C 38.7154 10.933 38.7674 10.8312 38.8368 10.7315C 38.9104 10.6275 38.9992 10.53 39.1032 10.439C 39.2073 10.348 39.3286 10.2678 39.4672 10.1985C 39.1423 10.0165 38.8888 9.776 38.7067 9.477C 38.5247 9.17367 38.4337 8.82267 38.4337 8.424C 38.4337 8.10333 38.4944 7.813 38.6157 7.553C 38.7414 7.28867 38.9147 7.0655 39.1357 6.8835C 39.3567 6.69717 39.6189 6.55417 39.9222 6.4545C 40.2299 6.35483 40.5657 6.305 40.9297 6.305C 41.2157 6.305 41.4822 6.3375 41.7292 6.4025C 41.9763 6.46317 42.2016 6.55417 42.4053 6.6755L 44.1927 6.6755ZM 46.5527 7.293C 46.8343 6.994 47.1463 6.75567 47.4887 6.578C 47.831 6.40033 48.2253 6.3115 48.6717 6.3115C 49.0313 6.3115 49.3477 6.37217 49.6207 6.4935C 49.898 6.6105 50.1277 6.7795 50.3097 7.0005C 50.496 7.21717 50.6368 7.47933 50.7322 7.787C 50.8275 8.09467 50.8752 8.43483 50.8752 8.8075L 50.8752 13L 49.7117 13L 49.7117 8.8075C 49.7117 8.30917 49.5968 7.9235 49.3672 7.6505C 49.1418 7.37317 48.7973 7.2345 48.3337 7.2345C 47.9913 7.2345 47.6707 7.31683 47.3717 7.4815C 47.077 7.64617 46.804 7.86933 46.5527 8.151L 46.5527 13L 45.3892 13L 45.3892 3.4255L 46.5527 3.4255L 46.5527 7.293ZM 54.5708 13.104C 54.0508 13.104 53.65 12.9588 53.3683 12.6685C 53.091 12.3782 52.9523 11.96 52.9523 11.414L 52.9523 7.384L 52.1593 7.384C 52.09 7.384 52.0315 7.3645 51.9838 7.3255C 51.9361 7.28217 51.9123 7.21717 51.9123 7.1305L 51.9123 6.669L 52.9913 6.5325L 53.2578 4.498C 53.2708 4.433 53.299 4.381 53.3423 4.342C 53.39 4.29867 53.4506 4.277 53.5243 4.277L 54.1093 4.277L 54.1093 6.5455L 56.0138 6.5455L 56.0138 7.384L 54.1093 7.384L 54.1093 11.336C 54.1093 11.6133 54.1765 11.8192 54.3108 11.9535C 54.4451 12.0878 54.6185 12.155 54.8308 12.155C 54.9521 12.155 55.0561 12.1398 55.1428 12.1095C 55.2338 12.0748 55.3118 12.038 55.3768 11.999C 55.4418 11.96 55.496 11.9253 55.5393 11.895C 55.587 11.8603 55.6281 11.843 55.6628 11.843C 55.7235 11.843 55.7776 11.8798 55.8253 11.9535L 56.1633 12.506C 55.964 12.6923 55.7235 12.8397 55.4418 12.948C 55.1601 13.052 54.8698 13.104 54.5708 13.104ZM 66.6837 9.919C 66.7487 9.91467 66.8072 9.9385 66.8592 9.9905L 67.2492 10.4065C 67.0022 10.6925 66.6988 10.9157 66.3392 11.076C 65.9838 11.232 65.5548 11.31 65.0522 11.31C 64.6275 11.31 64.2397 11.2363 63.8887 11.089C 63.542 10.9417 63.243 10.7358 62.9917 10.4715C 62.7447 10.2072 62.5518 9.893 62.4132 9.529C 62.2788 9.165 62.2117 8.76633 62.2117 8.333C 62.2117 7.89533 62.2853 7.4945 62.4327 7.1305C 62.58 6.76217 62.7858 6.448 63.0502 6.188C 63.3145 5.92367 63.6265 5.72 63.9862 5.577C 64.3502 5.42967 64.7445 5.356 65.1692 5.356C 65.6415 5.356 66.0402 5.42967 66.3652 5.577C 66.6945 5.72 66.9827 5.91283 67.2297 6.1555L 66.9307 6.578C 66.909 6.604 66.8808 6.63 66.8462 6.656C 66.8115 6.682 66.7703 6.695 66.7227 6.695C 66.662 6.695 66.597 6.67117 66.5277 6.6235C 66.4627 6.57583 66.376 6.52383 66.2677 6.4675C 66.1593 6.40683 66.0207 6.35267 65.8517 6.305C 65.687 6.253 65.479 6.227 65.2277 6.227C 64.92 6.227 64.6448 6.27683 64.4022 6.3765C 64.1595 6.47183 63.9515 6.6105 63.7782 6.7925C 63.6048 6.9745 63.4727 7.1955 63.3817 7.4555C 63.2907 7.7155 63.2452 8.008 63.2452 8.333C 63.2452 8.66667 63.2907 8.96567 63.3817 9.23C 63.477 9.49 63.607 9.70883 63.7717 9.8865C 63.9363 10.0642 64.1313 10.2007 64.3567 10.296C 64.5863 10.387 64.8355 10.4325 65.1042 10.4325C 65.3295 10.4325 65.518 10.4152 65.6697 10.3805C 65.8213 10.3458 65.9535 10.3047 66.0662 10.257C 66.1832 10.205 66.2872 10.1487 66.3782 10.088C 66.4735 10.0273 66.5753 9.971 66.6837 9.919ZM 60.2747 8.346C 60.2747 7.90833 60.331 7.488 60.4437 7.085C 60.5563 6.67767 60.7167 6.2985 60.9247 5.9475C 61.1327 5.59217 61.3797 5.2715 61.6657 4.9855C 61.956 4.69517 62.2767 4.446 62.6277 4.238C 62.9787 4.03 63.3557 3.86967 63.7587 3.757C 64.1617 3.64433 64.582 3.588 65.0197 3.588C 65.4573 3.588 65.8777 3.64433 66.2807 3.757C 66.688 3.86967 67.0672 4.03 67.4182 4.238C 67.7692 4.446 68.0898 4.69517 68.3802 4.9855C 68.6705 5.2715 68.9175 5.59217 69.1212 5.9475C 69.3292 6.2985 69.4895 6.67767 69.6022 7.085C 69.7148 7.488 69.7712 7.90833 69.7712 8.346C 69.7712 8.77933 69.7148 9.19967 69.6022 9.607C 69.4895 10.01 69.3292 10.387 69.1212 10.738C 68.9175 11.089 68.6705 11.4097 68.3802 11.7C 68.0898 11.986 67.7692 12.233 67.4182 12.441C 67.0672 12.649 66.688 12.8093 66.2807 12.922C 65.8777 13.0347 65.4573 13.091 65.0197 13.091C 64.582 13.091 64.1617 13.0347 63.7587 12.922C 63.3557 12.8093 62.9787 12.649 62.6277 12.441C 62.2767 12.233 61.956 11.986 61.6657 11.7C 61.3797 11.4097 61.1327 11.089 60.9247 10.738C 60.7167 10.387 60.5563 10.01 60.4437 9.607C 60.331 9.204 60.2747 8.78367 60.2747 8.346ZM 60.9312 8.346C 60.9312 8.73167 60.9788 9.10217 61.0742 9.4575C 61.1695 9.81283 61.3038 10.1465 61.4772 10.4585C 61.6548 10.7662 61.8672 11.0457 62.1142 11.297C 62.3655 11.5483 62.6407 11.765 62.9397 11.947C 63.243 12.1247 63.5702 12.2633 63.9212 12.363C 64.2722 12.4583 64.6383 12.506 65.0197 12.506C 65.401 12.506 65.7672 12.4583 66.1182 12.363C 66.4735 12.2633 66.8028 12.1247 67.1062 11.947C 67.4138 11.765 67.6912 11.5483 67.9382 11.297C 68.1895 11.0457 68.404 10.7662 68.5817 10.4585C 68.7593 10.1465 68.8958 9.81283 68.9912 9.4575C 69.0908 9.10217 69.1407 8.73167 69.1407 8.346C 69.1407 7.76533 69.0323 7.2215 68.8157 6.7145C 68.6033 6.20317 68.3108 5.759 67.9382 5.382C 67.5698 5.00067 67.1343 4.70167 66.6317 4.485C 66.129 4.264 65.5917 4.1535 65.0197 4.1535C 64.6383 4.1535 64.2722 4.20333 63.9212 4.303C 63.5702 4.40267 63.243 4.5435 62.9397 4.7255C 62.6407 4.90317 62.3655 5.11983 62.1142 5.3755C 61.8672 5.63117 61.6548 5.915 61.4772 6.227C 61.3038 6.53467 61.1695 6.86833 61.0742 7.228C 60.9788 7.58767 60.9312 7.96033 60.9312 8.346ZM 80.1635 11.9015C 80.2892 11.9015 80.3889 11.9383 80.4625 12.012C 80.5362 12.0857 80.573 12.181 80.573 12.298L 80.573 13L 74.359 13L 74.359 12.6035C 74.359 12.5212 74.3764 12.4367 74.411 12.35C 74.4457 12.2633 74.4999 12.1832 74.5735 12.1095L 77.557 9.113C 77.804 8.86167 78.0294 8.62117 78.233 8.3915C 78.4367 8.1575 78.61 7.9235 78.753 7.6895C 78.896 7.4555 79.0065 7.21933 79.0845 6.981C 79.1625 6.73833 79.2015 6.4805 79.2015 6.2075C 79.2015 5.9345 79.1582 5.69617 79.0715 5.4925C 78.9849 5.2845 78.8657 5.11333 78.714 4.979C 78.5667 4.84467 78.3912 4.745 78.1875 4.68C 77.9839 4.61067 77.765 4.576 77.531 4.576C 77.2927 4.576 77.0739 4.61067 76.8745 4.68C 76.6752 4.74933 76.4975 4.84683 76.3415 4.9725C 76.1899 5.09383 76.062 5.239 75.958 5.408C 75.854 5.577 75.7804 5.76333 75.737 5.967C 75.685 6.11867 75.6135 6.2205 75.5225 6.2725C 75.4359 6.32017 75.3124 6.33317 75.152 6.3115L 74.5475 6.2075C 74.6082 5.78283 74.7252 5.408 74.8985 5.083C 75.0762 4.75367 75.2972 4.4785 75.5615 4.2575C 75.8302 4.0365 76.1357 3.86967 76.478 3.757C 76.8204 3.64 77.1909 3.5815 77.5895 3.5815C 77.9839 3.5815 78.3522 3.64 78.6945 3.757C 79.0369 3.874 79.3337 4.04517 79.585 4.2705C 79.8364 4.4915 80.0335 4.76233 80.1765 5.083C 80.3195 5.40367 80.391 5.76767 80.391 6.175C 80.391 6.52167 80.339 6.8445 80.235 7.1435C 80.131 7.43817 79.9902 7.71983 79.8125 7.9885C 79.6349 8.25717 79.429 8.51933 79.195 8.775C 78.9654 9.03067 78.7205 9.2885 78.4605 9.5485L 76.0035 12.0575C 76.1769 12.0098 76.3524 11.973 76.53 11.947C 76.7077 11.9167 76.8789 11.9015 77.0435 11.9015L 80.1635 11.9015ZM 88.4391 8.346C 88.4391 9.16067 88.3502 9.867 88.1726 10.465C 87.9992 11.0587 87.7609 11.5505 87.4576 11.9405C 87.1542 12.3305 86.7946 12.6208 86.3786 12.8115C 85.9669 13.0022 85.5249 13.0975 85.0526 13.0975C 84.5759 13.0975 84.1317 13.0022 83.7201 12.8115C 83.3127 12.6208 82.9574 12.3305 82.6541 11.9405C 82.3507 11.5505 82.1124 11.0587 81.9391 10.465C 81.7657 9.867 81.6791 9.16067 81.6791 8.346C 81.6791 7.53133 81.7657 6.825 81.9391 6.227C 82.1124 5.629 82.3507 5.135 82.6541 4.745C 82.9574 4.35067 83.3127 4.05817 83.7201 3.8675C 84.1317 3.67683 84.5759 3.5815 85.0526 3.5815C 85.5249 3.5815 85.9669 3.67683 86.3786 3.8675C 86.7946 4.05817 87.1542 4.35067 87.4576 4.745C 87.7609 5.135 87.9992 5.629 88.1726 6.227C 88.3502 6.825 88.4391 7.53133 88.4391 8.346ZM 87.2366 8.346C 87.2366 7.63533 87.1759 7.0395 87.0546 6.5585C 86.9376 6.07317 86.7772 5.68317 86.5736 5.3885C 86.3742 5.09383 86.1424 4.88367 85.8781 4.758C 85.6137 4.628 85.3386 4.563 85.0526 4.563C 84.7666 4.563 84.4914 4.628 84.2271 4.758C 83.9627 4.88367 83.7309 5.09383 83.5316 5.3885C 83.3322 5.68317 83.1719 6.07317 83.0506 6.5585C 82.9336 7.0395 82.8751 7.63533 82.8751 8.346C 82.8751 9.05667 82.9336 9.6525 83.0506 10.1335C 83.1719 10.6145 83.3322 11.0023 83.5316 11.297C 83.7309 11.5917 83.9627 11.804 84.2271 11.934C 84.4914 12.0597 84.7666 12.1225 85.0526 12.1225C 85.3386 12.1225 85.6137 12.0597 85.8781 11.934C 86.1424 11.804 86.3742 11.5917 86.5736 11.297C 86.7772 11.0023 86.9376 10.6145 87.0546 10.1335C 87.1759 9.6525 87.2366 9.05667 87.2366 8.346ZM 95.4471 12.116L 95.4471 13L 90.4551 13L 90.4551 12.116L 92.4506 12.116L 92.4506 5.7655C 92.4506 5.57483 92.4571 5.382 92.4701 5.187L 90.8126 6.6105C 90.7562 6.65817 90.6999 6.6885 90.6436 6.7015C 90.5872 6.71017 90.5352 6.71017 90.4876 6.7015C 90.4399 6.69283 90.3944 6.6755 90.3511 6.6495C 90.3121 6.6235 90.2817 6.59533 90.2601 6.565L 89.8961 6.0645L 92.6716 3.666L 93.6141 3.666L 93.6141 12.116L 95.4471 12.116ZM 100.141 12.181C 100.444 12.181 100.715 12.1398 100.954 12.0575C 101.196 11.9708 101.4 11.8517 101.565 11.7C 101.734 11.544 101.861 11.3598 101.948 11.1475C 102.039 10.9308 102.085 10.6925 102.085 10.4325C 102.085 10.1118 102.03 9.83883 101.922 9.6135C 101.818 9.38383 101.675 9.1975 101.493 9.0545C 101.315 8.9115 101.11 8.8075 100.876 8.7425C 100.642 8.67317 100.397 8.6385 100.141 8.6385C 99.8854 8.6385 99.6406 8.67317 99.4066 8.7425C 99.1726 8.8075 98.9646 8.9115 98.7826 9.0545C 98.6049 9.1975 98.4619 9.38383 98.3536 9.6135C 98.2496 9.83883 98.1976 10.1118 98.1976 10.4325C 98.1976 10.6925 98.2409 10.9308 98.3276 11.1475C 98.4186 11.3598 98.5464 11.544 98.7111 11.7C 98.8801 11.8517 99.0838 11.9708 99.3221 12.0575C 99.5648 12.1398 99.8378 12.181 100.141 12.181ZM 100.141 4.4785C 99.8638 4.4785 99.6189 4.51967 99.4066 4.602C 99.1986 4.68433 99.0231 4.797 98.8801 4.94C 98.7414 5.083 98.6353 5.24983 98.5616 5.4405C 98.4923 5.63117 98.4576 5.83483 98.4576 6.0515C 98.4576 6.26383 98.4879 6.46967 98.5486 6.669C 98.6093 6.86833 98.7068 7.046 98.8411 7.202C 98.9754 7.35367 99.1488 7.47717 99.3611 7.5725C 99.5778 7.6635 99.8378 7.709 100.141 7.709C 100.444 7.709 100.702 7.6635 100.915 7.5725C 101.131 7.47717 101.307 7.35367 101.441 7.202C 101.575 7.046 101.673 6.86833 101.734 6.669C 101.794 6.46967 101.825 6.26383 101.825 6.0515C 101.825 5.83483 101.788 5.63117 101.714 5.4405C 101.645 5.24983 101.539 5.083 101.396 4.94C 101.257 4.797 101.081 4.68433 100.869 4.602C 100.661 4.51967 100.418 4.4785 100.141 4.4785ZM 101.474 8.1445C 102.054 8.30917 102.501 8.58433 102.813 8.97C 103.125 9.35567 103.281 9.84967 103.281 10.452C 103.281 10.8593 103.203 11.2277 103.047 11.557C 102.895 11.882 102.68 12.1593 102.403 12.389C 102.13 12.6187 101.801 12.7963 101.415 12.922C 101.029 13.0433 100.605 13.104 100.141 13.104C 99.6774 13.104 99.2528 13.0433 98.8671 12.922C 98.4814 12.7963 98.1499 12.6187 97.8726 12.389C 97.5953 12.1593 97.3808 11.882 97.2291 11.557C 97.0774 11.2277 97.0016 10.8593 97.0016 10.452C 97.0016 9.84967 97.1576 9.35567 97.4696 8.97C 97.7816 8.58433 98.2279 8.30917 98.8086 8.1445C 98.3189 7.9625 97.9484 7.69167 97.6971 7.332C 97.4501 6.968 97.3266 6.53467 97.3266 6.032C 97.3266 5.68967 97.3938 5.369 97.5281 5.07C 97.6624 4.771 97.8531 4.511 98.1001 4.29C 98.3471 4.069 98.6418 3.89567 98.9841 3.77C 99.3308 3.64433 99.7164 3.5815 100.141 3.5815C 100.561 3.5815 100.945 3.64433 101.292 3.77C 101.638 3.89567 101.935 4.069 102.182 4.29C 102.429 4.511 102.62 4.771 102.754 5.07C 102.888 5.369 102.956 5.68967 102.956 6.032C 102.956 6.53467 102.83 6.968 102.579 7.332C 102.332 7.69167 101.963 7.9625 101.474 8.1445ZM 118.119 3.6855L 118.119 13L 117.014 13L 117.014 6.1555C 117.014 6.0645 117.016 5.967 117.021 5.863C 117.029 5.759 117.038 5.65283 117.047 5.5445L 113.849 11.3685C 113.749 11.5635 113.597 11.661 113.394 11.661L 113.212 11.661C 113.008 11.661 112.856 11.5635 112.757 11.3685L 109.494 5.5185C 109.52 5.74817 109.533 5.9605 109.533 6.1555L 109.533 13L 108.428 13L 108.428 3.6855L 109.357 3.6855C 109.47 3.6855 109.557 3.69633 109.617 3.718C 109.678 3.73967 109.736 3.80033 109.793 3.9L 113.01 9.633C 113.062 9.737 113.112 9.84533 113.16 9.958C 113.212 10.0707 113.259 10.1855 113.303 10.3025C 113.346 10.1855 113.392 10.0707 113.439 9.958C 113.487 9.841 113.539 9.7305 113.595 9.6265L 116.754 3.9C 116.806 3.80033 116.863 3.73967 116.923 3.718C 116.988 3.69633 117.077 3.6855 117.19 3.6855L 118.119 3.6855ZM 123.606 10.036C 123.073 10.0533 122.618 10.0967 122.241 10.166C 121.868 10.231 121.563 10.3177 121.325 10.426C 121.091 10.5343 120.919 10.6622 120.811 10.8095C 120.707 10.9568 120.655 11.1215 120.655 11.3035C 120.655 11.4768 120.683 11.6263 120.74 11.752C 120.796 11.8777 120.872 11.9817 120.967 12.064C 121.067 12.142 121.182 12.2005 121.312 12.2395C 121.446 12.2742 121.589 12.2915 121.741 12.2915C 121.944 12.2915 122.131 12.272 122.3 12.233C 122.469 12.1897 122.627 12.129 122.774 12.051C 122.926 11.973 123.069 11.8798 123.203 11.7715C 123.342 11.6632 123.476 11.5397 123.606 11.401L 123.606 10.036ZM 119.869 7.345C 120.233 6.994 120.625 6.73183 121.045 6.5585C 121.465 6.38517 121.931 6.2985 122.443 6.2985C 122.811 6.2985 123.138 6.35917 123.424 6.4805C 123.71 6.60183 123.951 6.77083 124.146 6.9875C 124.341 7.20417 124.488 7.46633 124.588 7.774C 124.687 8.08167 124.737 8.41967 124.737 8.788L 124.737 13L 124.224 13C 124.111 13 124.024 12.9827 123.964 12.948C 123.903 12.909 123.855 12.8353 123.821 12.727L 123.691 12.103C 123.517 12.2633 123.348 12.4063 123.184 12.532C 123.019 12.6533 122.846 12.7573 122.664 12.844C 122.482 12.9263 122.287 12.9892 122.079 13.0325C 121.875 13.0802 121.647 13.104 121.396 13.104C 121.14 13.104 120.9 13.0693 120.675 13C 120.449 12.9263 120.252 12.818 120.083 12.675C 119.918 12.532 119.786 12.3522 119.687 12.1355C 119.591 11.9145 119.544 11.6545 119.544 11.3555C 119.544 11.0955 119.615 10.8463 119.758 10.608C 119.901 10.3653 120.133 10.1508 120.454 9.9645C 120.774 9.77817 121.192 9.6265 121.708 9.5095C 122.224 9.38817 122.856 9.31883 123.606 9.3015L 123.606 8.788C 123.606 8.27667 123.496 7.891 123.275 7.631C 123.054 7.36667 122.731 7.2345 122.306 7.2345C 122.02 7.2345 121.78 7.27133 121.585 7.345C 121.394 7.41433 121.227 7.4945 121.084 7.5855C 120.945 7.67217 120.824 7.75233 120.72 7.826C 120.62 7.89533 120.521 7.93 120.421 7.93C 120.343 7.93 120.276 7.9105 120.22 7.8715C 120.163 7.82817 120.116 7.77617 120.077 7.7155L 119.869 7.345ZM 130.335 7.501C 130.283 7.59633 130.202 7.644 130.094 7.644C 130.029 7.644 129.955 7.62017 129.873 7.5725C 129.791 7.52483 129.689 7.47283 129.568 7.4165C 129.451 7.35583 129.31 7.30167 129.145 7.254C 128.98 7.202 128.785 7.176 128.56 7.176C 128.365 7.176 128.19 7.202 128.034 7.254C 127.878 7.30167 127.743 7.36883 127.631 7.4555C 127.522 7.54217 127.438 7.644 127.377 7.761C 127.321 7.87367 127.293 7.99717 127.293 8.1315C 127.293 8.3005 127.34 8.44133 127.436 8.554C 127.535 8.66667 127.665 8.76417 127.826 8.8465C 127.986 8.92883 128.168 9.0025 128.372 9.0675C 128.575 9.12817 128.783 9.19533 128.996 9.269C 129.212 9.33833 129.422 9.41633 129.626 9.503C 129.83 9.58967 130.012 9.698 130.172 9.828C 130.332 9.958 130.46 10.1183 130.556 10.309C 130.655 10.4953 130.705 10.7207 130.705 10.985C 130.705 11.2883 130.651 11.57 130.543 11.83C 130.434 12.0857 130.274 12.3088 130.062 12.4995C 129.849 12.6858 129.589 12.8332 129.282 12.9415C 128.974 13.0498 128.619 13.104 128.216 13.104C 127.756 13.104 127.34 13.0303 126.968 12.883C 126.595 12.7313 126.279 12.5385 126.019 12.3045L 126.292 11.8625C 126.326 11.8062 126.367 11.7628 126.415 11.7325C 126.463 11.7022 126.523 11.687 126.597 11.687C 126.675 11.687 126.757 11.7173 126.844 11.778C 126.931 11.8387 127.035 11.9058 127.156 11.9795C 127.282 12.0532 127.433 12.1203 127.611 12.181C 127.789 12.2417 128.01 12.272 128.274 12.272C 128.499 12.272 128.697 12.2438 128.866 12.1875C 129.035 12.1268 129.175 12.0467 129.288 11.947C 129.401 11.8473 129.483 11.7325 129.535 11.6025C 129.591 11.4725 129.62 11.3338 129.62 11.1865C 129.62 11.0045 129.57 10.855 129.47 10.738C 129.375 10.6167 129.247 10.5148 129.087 10.4325C 128.926 10.3458 128.742 10.2722 128.534 10.2115C 128.33 10.1465 128.12 10.0793 127.904 10.01C 127.691 9.94067 127.481 9.86267 127.273 9.776C 127.069 9.685 126.887 9.57233 126.727 9.438C 126.567 9.30367 126.437 9.139 126.337 8.944C 126.242 8.74467 126.194 8.50417 126.194 8.2225C 126.194 7.97117 126.246 7.73067 126.35 7.501C 126.454 7.267 126.606 7.06333 126.805 6.89C 127.004 6.71233 127.249 6.5715 127.54 6.4675C 127.83 6.3635 128.161 6.3115 128.534 6.3115C 128.967 6.3115 129.355 6.38083 129.698 6.5195C 130.044 6.65383 130.343 6.84017 130.595 7.0785L 130.335 7.501ZM 134.145 13.104C 133.625 13.104 133.224 12.9588 132.943 12.6685C 132.665 12.3782 132.527 11.96 132.527 11.414L 132.527 7.384L 131.734 7.384C 131.664 7.384 131.606 7.3645 131.558 7.3255C 131.51 7.28217 131.487 7.21717 131.487 7.1305L 131.487 6.669L 132.566 6.5325L 132.832 4.498C 132.845 4.433 132.873 4.381 132.917 4.342C 132.964 4.29867 133.025 4.277 133.099 4.277L 133.684 4.277L 133.684 6.5455L 135.588 6.5455L 135.588 7.384L 133.684 7.384L 133.684 11.336C 133.684 11.6133 133.751 11.8192 133.885 11.9535C 134.019 12.0878 134.193 12.155 134.405 12.155C 134.526 12.155 134.63 12.1398 134.717 12.1095C 134.808 12.0748 134.886 12.038 134.951 11.999C 135.016 11.96 135.07 11.9253 135.114 11.895C 135.161 11.8603 135.202 11.843 135.237 11.843C 135.298 11.843 135.352 11.8798 135.4 11.9535L 135.738 12.506C 135.538 12.6923 135.298 12.8397 135.016 12.948C 134.734 13.052 134.444 13.104 134.145 13.104ZM 141.152 8.9895C 141.152 8.72083 141.113 8.476 141.035 8.255C 140.961 8.02967 140.85 7.83683 140.703 7.6765C 140.56 7.51183 140.385 7.38617 140.177 7.2995C 139.969 7.2085 139.732 7.163 139.468 7.163C 138.913 7.163 138.474 7.3255 138.149 7.6505C 137.828 7.97117 137.629 8.4175 137.551 8.9895L 141.152 8.9895ZM 142.088 12.077C 141.945 12.2503 141.773 12.402 141.574 12.532C 141.375 12.6577 141.16 12.7617 140.931 12.844C 140.705 12.9263 140.471 12.987 140.229 13.026C 139.986 13.0693 139.745 13.091 139.507 13.091C 139.052 13.091 138.632 13.0152 138.246 12.8635C 137.865 12.7075 137.533 12.4822 137.252 12.1875C 136.974 11.8885 136.758 11.5202 136.602 11.0825C 136.446 10.6448 136.368 10.1422 136.368 9.5745C 136.368 9.11517 136.437 8.68617 136.576 8.2875C 136.719 7.88883 136.922 7.54433 137.187 7.254C 137.451 6.95933 137.774 6.72967 138.155 6.565C 138.536 6.396 138.965 6.3115 139.442 6.3115C 139.836 6.3115 140.2 6.37867 140.534 6.513C 140.872 6.643 141.162 6.83367 141.405 7.085C 141.652 7.332 141.845 7.63967 141.984 8.008C 142.122 8.372 142.192 8.788 142.192 9.256C 142.192 9.438 142.172 9.55933 142.133 9.62C 142.094 9.68067 142.02 9.711 141.912 9.711L 137.512 9.711C 137.525 10.127 137.581 10.4888 137.681 10.7965C 137.785 11.1042 137.928 11.362 138.11 11.57C 138.292 11.7737 138.508 11.9275 138.76 12.0315C 139.011 12.1312 139.293 12.181 139.605 12.181C 139.895 12.181 140.144 12.1485 140.352 12.0835C 140.564 12.0142 140.746 11.9405 140.898 11.8625C 141.05 11.7845 141.175 11.713 141.275 11.648C 141.379 11.5787 141.468 11.544 141.542 11.544C 141.637 11.544 141.711 11.5808 141.763 11.6545L 142.088 12.077ZM 144.711 7.735C 144.919 7.28433 145.175 6.93333 145.478 6.682C 145.782 6.42633 146.152 6.2985 146.59 6.2985C 146.728 6.2985 146.861 6.31367 146.986 6.344C 147.116 6.37433 147.231 6.422 147.331 6.487L 147.246 7.3515C 147.22 7.45983 147.155 7.514 147.051 7.514C 146.991 7.514 146.902 7.501 146.785 7.475C 146.668 7.449 146.536 7.436 146.388 7.436C 146.18 7.436 145.994 7.46633 145.829 7.527C 145.669 7.58767 145.524 7.67867 145.394 7.8C 145.268 7.917 145.153 8.06433 145.049 8.242C 144.95 8.41533 144.859 8.61467 144.776 8.84L 144.776 13L 143.613 13L 143.613 6.4155L 144.276 6.4155C 144.401 6.4155 144.488 6.43933 144.536 6.487C 144.583 6.53467 144.616 6.617 144.633 6.734L 144.711 7.735ZM 155.16 11.076C 155.229 11.076 155.29 11.1042 155.342 11.1605L 155.843 11.7C 155.461 12.142 154.998 12.4865 154.452 12.7335C 153.91 12.9805 153.253 13.104 152.482 13.104C 151.815 13.104 151.208 12.9892 150.662 12.7595C 150.116 12.5255 149.65 12.2005 149.265 11.7845C 148.879 11.3642 148.58 10.8615 148.368 10.2765C 148.155 9.6915 148.049 9.048 148.049 8.346C 148.049 7.644 148.16 7.0005 148.381 6.4155C 148.602 5.8305 148.911 5.32783 149.31 4.9075C 149.713 4.48717 150.194 4.16217 150.753 3.9325C 151.312 3.6985 151.93 3.5815 152.606 3.5815C 153.269 3.5815 153.854 3.68767 154.361 3.9C 154.868 4.11233 155.314 4.4005 155.7 4.7645L 155.284 5.343C 155.258 5.38633 155.223 5.42317 155.18 5.4535C 155.141 5.4795 155.086 5.4925 155.017 5.4925C 154.939 5.4925 154.844 5.45133 154.731 5.369C 154.618 5.28233 154.471 5.187 154.289 5.083C 154.107 4.979 153.88 4.88583 153.607 4.8035C 153.334 4.71683 152.998 4.6735 152.599 4.6735C 152.118 4.6735 151.678 4.758 151.28 4.927C 150.881 5.09167 150.536 5.33217 150.246 5.6485C 149.96 5.96483 149.737 6.3505 149.577 6.8055C 149.416 7.2605 149.336 7.774 149.336 8.346C 149.336 8.92667 149.418 9.4445 149.583 9.8995C 149.752 10.3545 149.98 10.7402 150.266 11.0565C 150.556 11.3685 150.896 11.6068 151.286 11.7715C 151.68 11.9362 152.105 12.0185 152.56 12.0185C 152.837 12.0185 153.087 12.0033 153.308 11.973C 153.533 11.9383 153.739 11.8863 153.925 11.817C 154.116 11.7477 154.291 11.661 154.452 11.557C 154.616 11.4487 154.779 11.3208 154.939 11.1735C 155.013 11.1085 155.086 11.076 155.16 11.076ZM 158.228 3.4255L 158.228 13L 157.071 13L 157.071 3.4255L 158.228 3.4255ZM 163.672 10.036C 163.139 10.0533 162.684 10.0967 162.307 10.166C 161.935 10.231 161.629 10.3177 161.391 10.426C 161.157 10.5343 160.986 10.6622 160.877 10.8095C 160.773 10.9568 160.722 11.1215 160.722 11.3035C 160.722 11.4768 160.75 11.6263 160.806 11.752C 160.862 11.8777 160.938 11.9817 161.034 12.064C 161.133 12.142 161.248 12.2005 161.378 12.2395C 161.512 12.2742 161.655 12.2915 161.807 12.2915C 162.011 12.2915 162.197 12.272 162.366 12.233C 162.535 12.1897 162.693 12.129 162.84 12.051C 162.992 11.973 163.135 11.8798 163.27 11.7715C 163.408 11.6632 163.543 11.5397 163.672 11.401L 163.672 10.036ZM 159.935 7.345C 160.299 6.994 160.691 6.73183 161.112 6.5585C 161.532 6.38517 161.998 6.2985 162.509 6.2985C 162.877 6.2985 163.205 6.35917 163.491 6.4805C 163.776 6.60183 164.017 6.77083 164.212 6.9875C 164.407 7.20417 164.554 7.46633 164.654 7.774C 164.754 8.08167 164.804 8.41967 164.804 8.788L 164.804 13L 164.29 13C 164.177 13 164.091 12.9827 164.03 12.948C 163.969 12.909 163.922 12.8353 163.887 12.727L 163.757 12.103C 163.584 12.2633 163.415 12.4063 163.25 12.532C 163.085 12.6533 162.912 12.7573 162.73 12.844C 162.548 12.9263 162.353 12.9892 162.145 13.0325C 161.941 13.0802 161.714 13.104 161.462 13.104C 161.207 13.104 160.966 13.0693 160.741 13C 160.516 12.9263 160.319 12.818 160.15 12.675C 159.985 12.532 159.853 12.3522 159.753 12.1355C 159.658 11.9145 159.61 11.6545 159.61 11.3555C 159.61 11.0955 159.681 10.8463 159.824 10.608C 159.967 10.3653 160.199 10.1508 160.52 9.9645C 160.841 9.77817 161.259 9.6265 161.775 9.5095C 162.29 9.38817 162.923 9.31883 163.672 9.3015L 163.672 8.788C 163.672 8.27667 163.562 7.891 163.341 7.631C 163.12 7.36667 162.797 7.2345 162.373 7.2345C 162.086 7.2345 161.846 7.27133 161.651 7.345C 161.46 7.41433 161.294 7.4945 161.15 7.5855C 161.012 7.67217 160.891 7.75233 160.787 7.826C 160.687 7.89533 160.587 7.93 160.488 7.93C 160.409 7.93 160.342 7.9105 160.286 7.8715C 160.23 7.82817 160.182 7.77617 160.143 7.7155L 159.935 7.345ZM 170.401 7.501C 170.349 7.59633 170.269 7.644 170.16 7.644C 170.095 7.644 170.022 7.62017 169.939 7.5725C 169.857 7.52483 169.755 7.47283 169.634 7.4165C 169.517 7.35583 169.376 7.30167 169.211 7.254C 169.047 7.202 168.852 7.176 168.626 7.176C 168.431 7.176 168.256 7.202 168.1 7.254C 167.944 7.30167 167.81 7.36883 167.697 7.4555C 167.589 7.54217 167.504 7.644 167.443 7.761C 167.387 7.87367 167.359 7.99717 167.359 8.1315C 167.359 8.3005 167.407 8.44133 167.502 8.554C 167.602 8.66667 167.732 8.76417 167.892 8.8465C 168.052 8.92883 168.234 9.0025 168.438 9.0675C 168.642 9.12817 168.85 9.19533 169.062 9.269C 169.279 9.33833 169.489 9.41633 169.692 9.503C 169.896 9.58967 170.078 9.698 170.238 9.828C 170.399 9.958 170.527 10.1183 170.622 10.309C 170.722 10.4953 170.771 10.7207 170.771 10.985C 170.771 11.2883 170.717 11.57 170.609 11.83C 170.501 12.0857 170.34 12.3088 170.128 12.4995C 169.916 12.6858 169.656 12.8332 169.348 12.9415C 169.04 13.0498 168.685 13.104 168.282 13.104C 167.823 13.104 167.407 13.0303 167.034 12.883C 166.661 12.7313 166.345 12.5385 166.085 12.3045L 166.358 11.8625C 166.393 11.8062 166.434 11.7628 166.481 11.7325C 166.529 11.7022 166.59 11.687 166.663 11.687C 166.741 11.687 166.824 11.7173 166.91 11.778C 166.997 11.8387 167.101 11.9058 167.222 11.9795C 167.348 12.0532 167.5 12.1203 167.677 12.181C 167.855 12.2417 168.076 12.272 168.34 12.272C 168.566 12.272 168.763 12.2438 168.932 12.1875C 169.101 12.1268 169.242 12.0467 169.354 11.947C 169.467 11.8473 169.549 11.7325 169.601 11.6025C 169.658 11.4725 169.686 11.3338 169.686 11.1865C 169.686 11.0045 169.636 10.855 169.536 10.738C 169.441 10.6167 169.313 10.5148 169.153 10.4325C 168.993 10.3458 168.808 10.2722 168.6 10.2115C 168.397 10.1465 168.187 10.0793 167.97 10.01C 167.758 9.94067 167.547 9.86267 167.339 9.776C 167.136 9.685 166.954 9.57233 166.793 9.438C 166.633 9.30367 166.503 9.139 166.403 8.944C 166.308 8.74467 166.26 8.50417 166.26 8.2225C 166.26 7.97117 166.312 7.73067 166.416 7.501C 166.52 7.267 166.672 7.06333 166.871 6.89C 167.071 6.71233 167.316 6.5715 167.606 6.4675C 167.896 6.3635 168.228 6.3115 168.6 6.3115C 169.034 6.3115 169.422 6.38083 169.764 6.5195C 170.111 6.65383 170.41 6.84017 170.661 7.0785L 170.401 7.501ZM 176.025 7.501C 175.973 7.59633 175.893 7.644 175.784 7.644C 175.719 7.644 175.646 7.62017 175.563 7.5725C 175.481 7.52483 175.379 7.47283 175.258 7.4165C 175.141 7.35583 175 7.30167 174.835 7.254C 174.671 7.202 174.476 7.176 174.25 7.176C 174.055 7.176 173.88 7.202 173.724 7.254C 173.568 7.30167 173.434 7.36883 173.321 7.4555C 173.213 7.54217 173.128 7.644 173.067 7.761C 173.011 7.87367 172.983 7.99717 172.983 8.1315C 172.983 8.3005 173.031 8.44133 173.126 8.554C 173.226 8.66667 173.356 8.76417 173.516 8.8465C 173.676 8.92883 173.858 9.0025 174.062 9.0675C 174.266 9.12817 174.474 9.19533 174.686 9.269C 174.903 9.33833 175.113 9.41633 175.316 9.503C 175.52 9.58967 175.702 9.698 175.862 9.828C 176.023 9.958 176.151 10.1183 176.246 10.309C 176.346 10.4953 176.395 10.7207 176.395 10.985C 176.395 11.2883 176.341 11.57 176.233 11.83C 176.125 12.0857 175.964 12.3088 175.752 12.4995C 175.54 12.6858 175.28 12.8332 174.972 12.9415C 174.664 13.0498 174.309 13.104 173.906 13.104C 173.447 13.104 173.031 13.0303 172.658 12.883C 172.285 12.7313 171.969 12.5385 171.709 12.3045L 171.982 11.8625C 172.017 11.8062 172.058 11.7628 172.105 11.7325C 172.153 11.7022 172.214 11.687 172.287 11.687C 172.365 11.687 172.448 11.7173 172.534 11.778C 172.621 11.8387 172.725 11.9058 172.846 11.9795C 172.972 12.0532 173.124 12.1203 173.301 12.181C 173.479 12.2417 173.7 12.272 173.964 12.272C 174.19 12.272 174.387 12.2438 174.556 12.1875C 174.725 12.1268 174.866 12.0467 174.978 11.947C 175.091 11.8473 175.173 11.7325 175.225 11.6025C 175.282 11.4725 175.31 11.3338 175.31 11.1865C 175.31 11.0045 175.26 10.855 175.16 10.738C 175.065 10.6167 174.937 10.5148 174.777 10.4325C 174.617 10.3458 174.432 10.2722 174.224 10.2115C 174.021 10.1465 173.811 10.0793 173.594 10.01C 173.382 9.94067 173.171 9.86267 172.963 9.776C 172.76 9.685 172.578 9.57233 172.417 9.438C 172.257 9.30367 172.127 9.139 172.027 8.944C 171.932 8.74467 171.884 8.50417 171.884 8.2225C 171.884 7.97117 171.936 7.73067 172.04 7.501C 172.144 7.267 172.296 7.06333 172.495 6.89C 172.695 6.71233 172.94 6.5715 173.23 6.4675C 173.52 6.3635 173.852 6.3115 174.224 6.3115C 174.658 6.3115 175.046 6.38083 175.388 6.5195C 175.735 6.65383 176.034 6.84017 176.285 7.0785L 176.025 7.501Z" transform="translate(102 64)" fill="#4A4A4A"/>
</g>
<g id="Shape">
<path fill-rule="evenodd" clip-rule="evenodd" d="M 21.8059 26.7735L 21.5 27.3423L 17.9398 26.5793L 14.3797 27.3423L 14.0737 26.7735L 17.9259 25.9551L 21.8059 26.7735ZM 0.890137 25.8166L 8.39982 21.863L 8.51107 21.0723L 1.0153 25.0259L 0.890137 25.8166ZM 17.9398 30.6855L 16.1736 30.7965L 16.4795 31.393L 17.9398 31.3098L 19.4 31.3792L 19.7059 30.7827L 17.9398 30.6855ZM 1.08472 24.6235L 8.65003 20.0872L 8.77519 19.2549L 1.23769 23.7773L 1.08472 24.6235ZM 14.783 28.1195L 15.0889 28.7022L 17.9537 28.2444L 20.8185 28.7022L 21.1245 28.1195L 17.9676 27.6201L 14.783 28.1195ZM 16.8689 32.1147C 17.0219 32.3644 17.2722 32.6558 17.9397 32.6558C 18.6072 32.6558 18.8576 32.3644 19.0105 32.1147L 16.8689 32.1147ZM 17.9398 29.1875L 15.4783 29.4511L 15.7842 30.0337L 17.9398 29.7979L 20.0953 30.0337L 20.4013 29.4511L 17.9398 29.1875ZM 0.709229 26.8985L 8.17719 23.4859L 8.28845 22.7368L 0.848297 26.1355L 0.709229 26.8985ZM 0.876042 31.9757L 6.20235 31.9757C 6.61956 31.9757 6.96723 31.6705 7.03676 31.3237L 0.236328 31.726C 0.40321 31.8786 0.625719 31.9757 0.876042 31.9757ZM 7.42614 0.443952C 7.37051 0.332973 7.25925 0.235866 7.148 0.166504L 4.56133 4.09239L 4.26929 5.78482L 7.59302 0.749144L 7.42614 0.443952ZM 0.54248 27.8834L 7.95482 24.9841L 8.05216 24.2627L 0.653735 27.162L 0.54248 27.8834ZM 0.236416 31.7259L 7.09248 30.9768L 7.17592 30.3525L 0 31.1294C 0.0139068 31.3652 0.0973478 31.5733 0.236416 31.7259ZM 0.389404 28.7853L 7.76002 26.3577L 7.85737 25.6641L 0.500659 28.0779L 0.389404 28.7853ZM 0.013916 30.9772C 0.013916 31.0188 0.013916 31.0604 0.013916 31.102L 7.24546 29.9506L 7.34281 29.3125L 0.111264 30.4639L 0.013916 30.9772ZM 0.250244 29.6174L 7.57914 27.6475L 7.67649 26.9678L 0.361499 28.9377L 0.250244 29.6174ZM 0.125244 30.3942L 7.41242 28.8405L 7.50977 28.1885L 0.236499 29.7422L 0.125244 30.3942ZM 10.8611 6.83887L 2.64221 15.3981L 2.44751 16.5773L 11.1949 7.46312L 10.8611 6.83887ZM 9.9572 5.14648L 3.04551 13.0815L 2.823 14.3716L 10.3049 5.78461L 9.9572 5.14648ZM 11.779 8.53125L 2.29456 17.4512L 2.11377 18.5471L 12.0989 9.14163L 11.779 8.53125ZM 9.03938 3.4541L 3.47665 10.4735L 3.24023 11.8746L 9.40096 4.1061L 9.03938 3.4541ZM 12.683 10.21L 1.98866 19.2825L 1.82178 20.2952L 13.0029 10.8065L 12.683 10.21ZM 5.93828 0C 5.57671 0 5.17341 0.319065 5.13169 0.721364L 4.90918 2.05311L 6.14689 0L 5.93828 0ZM 8.1355 1.76172L 3.97736 7.50489L 3.71313 9.04472L 8.48317 2.44147L 8.1355 1.76172ZM 13.587 11.9023L 1.71058 20.9333L 1.5437 21.8905L 13.9069 12.485L 13.587 11.9023ZM 17.2168 18.6309L 11.2507 21.3637L 11.5428 21.9325L 17.5227 19.1996L 17.2168 18.6309ZM 17.9399 20.3784L 11.96 22.7229L 12.252 23.2916L 17.9399 21.072L 23.6278 23.2916L 23.9198 22.7229L 17.9399 20.3784ZM 12.6692 24.0827L 12.9612 24.6514L 17.9399 23.0145L 22.9185 24.6514L 23.2106 24.0827L 17.9399 22.3486L 12.6692 24.0827ZM 14.5047 13.5947L 1.4601 22.4314L 1.30713 23.3331L 14.8107 14.1774L 14.5047 13.5947ZM 16.3126 16.9521L 10.5273 20.0041L 10.8333 20.5728L 16.6185 17.5209L 16.3126 16.9521ZM 17.9398 24.1934L 13.3645 25.428L 13.6565 25.9968L 17.9259 24.8454L 22.1953 25.9968L 22.4874 25.428L 17.9398 24.1934ZM 15.4087 15.2734L 9.81812 18.6306L 10.1241 19.2132L 15.7146 15.8561L 15.4087 15.2734ZM 34.8505 25.0117L 27.3547 21.0581L 27.466 21.8488L 34.9757 25.8025L 34.8505 25.0117ZM 34.642 23.7773L 27.1045 19.2549L 27.2297 20.0872L 34.795 24.6235L 34.642 23.7773ZM 35.0451 26.1214L 27.605 22.7227L 27.7162 23.4718L 35.1842 26.8844L 35.0451 26.1214ZM 29.6772 31.9757L 35.0035 31.9757C 35.2538 31.9757 35.4763 31.8786 35.6293 31.726L 28.8289 31.3237C 28.9123 31.6567 29.26 31.9757 29.6772 31.9757ZM 31.332 4.10626L 28.7314 0.166504C 28.6201 0.235866 28.5089 0.332973 28.4533 0.443952L 28.2864 0.749144L 31.6101 5.78482L 31.332 4.10626ZM 35.2122 27.1484L 27.8137 24.249L 27.9111 24.9704L 35.3234 27.8697L 35.2122 27.1484ZM 28.6897 30.3525L 28.7731 30.9768L 35.6292 31.7259C 35.7822 31.5733 35.8656 31.3791 35.8517 31.1294L 28.6897 30.3525ZM 35.365 28.0779L 28.0222 25.6641L 28.1196 26.3577L 35.4902 28.7853L 35.365 28.0779ZM 35.8658 30.9769L 35.7823 30.4497L 28.5508 29.2983L 28.6481 29.9365L 35.8797 31.0879C 35.8658 31.0601 35.8658 31.0185 35.8658 30.9769ZM 35.5181 28.9377L 28.2031 26.9678L 28.3005 27.6475L 35.6294 29.6174L 35.5181 28.9377ZM 35.6431 29.7285L 28.3699 28.1748L 28.4672 28.8268L 35.7544 30.3805L 35.6431 29.7285ZM 33.2373 15.3981L 25.0183 6.83887L 24.6846 7.46312L 33.432 16.5773L 33.2373 15.3981ZM 32.848 13.0815L 25.9363 5.14648L 25.5886 5.78461L 33.0705 14.3716L 32.848 13.0815ZM 33.5851 17.4512L 24.1145 8.53125L 23.7808 9.14163L 33.7659 18.5471L 33.5851 17.4512ZM 32.4028 10.4735L 26.8401 3.4541L 26.4924 4.1061L 32.6532 11.8746L 32.4028 10.4735ZM 33.8909 19.2825L 23.1966 10.21L 22.8767 10.8065L 34.0578 20.2952L 33.8909 19.2825ZM 30.7618 0.721364C 30.7201 0.319065 30.3029 0 29.9552 0L 29.7605 0L 30.9982 2.05311L 30.7618 0.721364ZM 31.9023 7.50489L 27.7441 1.76172L 27.3826 2.44147L 32.1526 9.04472L 31.9023 7.50489ZM 34.1689 20.9474L 22.2925 11.9165L 21.9727 12.4991L 34.3358 21.9046L 34.1689 20.9474ZM 18.3569 19.1996L 24.3369 21.9325L 24.6289 21.3637L 18.6629 18.6309L 18.3569 19.1996ZM 34.4194 22.4314L 21.3887 13.5947L 21.0828 14.1774L 34.5863 23.3331L 34.4194 22.4314ZM 19.261 17.5209L 25.0462 20.5728L 25.3522 20.0041L 19.5669 16.9521L 19.261 17.5209ZM 20.1648 15.8424L 25.7553 19.1995L 26.0613 18.6169L 20.4707 15.2598L 20.1648 15.8424Z" transform="translate(172 21)" fill="white"/>
</g>
<g id="Line">
<line y1="-0.5" x2="380" y2="-0.5" transform="translate(0 1)" stroke="url(#paint0_linear)"/>
</g>
</g>
</g>
<defs>

<linearGradient id="paint0_linear" x2="1" gradientUnits="userSpaceOnUse" gradientTransform="translate(380 18077.5) scale(-380 -36100)">
<stop stop-color="#404040" stop-opacity="0.05"/>
<stop offset="0.535912" stop-color="#404040"/>
<stop offset="1" stop-color="#404040" stop-opacity="0.05"/>
</linearGradient>

</defs>
</svg>

