<svg width="20" height="18" viewBox="0 0 20 18" fill="none" xmlns="http://www.w3.org/2000/svg">
<path fill-rule="evenodd" clip-rule="evenodd" d="M9.41786 0.0915015C9.77266 0.254687 10 0.609485 10 1.00001V17C10 17.3905 9.77266 17.7453 9.41786 17.9085C9.06306 18.0717 8.64572 18.0134 8.34921 17.7593L4.63008 14.5714H1C0.447715 14.5714 0 14.1237 0 13.5714V4.42859C0 3.8763 0.447715 3.42859 1 3.42859H4.63008L8.34921 0.240758C8.64572 -0.0133956 9.06306 -0.071684 9.41786 0.0915015ZM8 3.17423L5.65079 5.18784C5.46955 5.34319 5.23871 5.42859 5 5.42859H2V12.5714H5C5.23871 12.5714 5.46955 12.6568 5.65079 12.8122L8 14.8258V3.17423Z" fill="white"/>
<path fill-rule="evenodd" clip-rule="evenodd" d="M0.292893 0.292893C0.683417 -0.0976311 1.31658 -0.0976311 1.70711 0.292893L3.5 2.08579L5.29289 0.292893C5.68342 -0.0976311 6.31658 -0.0976311 6.70711 0.292893C7.09763 0.683417 7.09763 1.31658 6.70711 1.70711L4.91421 3.5L6.70711 5.29289C7.09763 5.68342 7.09763 6.31658 6.70711 6.70711C6.31658 7.09763 5.68342 7.09763 5.29289 6.70711L3.5 4.91421L1.70711 6.70711C1.31658 7.09763 0.683417 7.09763 0.292893 6.70711C-0.0976311 6.31658 -0.0976311 5.68342 0.292893 5.29289L2.08579 3.5L0.292893 1.70711C-0.0976311 1.31658 -0.0976311 0.683417 0.292893 0.292893Z" transform="translate(13 5.5)" fill="white"/>
</svg>
