<svg width="131" height="132" viewBox="0 0 131 132" fill="none" xmlns="http://www.w3.org/2000/svg">
  <path fill-rule="evenodd" clip-rule="evenodd" d="M32.0383 63.9164C49.7326 63.9164 64.0766 49.6082 64.0766 31.9582C64.0766 14.3082 49.7326 0 32.0383 0C14.344 0 0 14.3082 0 31.9582C0 49.6082 14.344 63.9164 32.0383 63.9164Z" transform="translate(33.4639 30.3455)" stroke="white" stroke-width="2.73155"/>
  <path fill-rule="evenodd" clip-rule="evenodd" d="M18.4051 9.74727L2.45712 0.246193C2.00033 -0.0264586 1.3776 -0.0768431 0.854734 0.116058C0.331869 0.30867 0 0.710882 0 1.15167V20.1538C0 20.5946 0.331869 20.9968 0.854734 21.1897C1.06585 21.2675 1.29292 21.3055 1.51885 21.3055C1.85262 21.3055 2.18449 21.222 2.45712 21.0593L18.4051 11.5585C18.7719 11.34 18.9857 11.0063 18.9857 10.6527C18.9857 10.2995 18.7719 9.96551 18.4051 9.74727Z" transform="translate(59.5693 51.651)" fill="white"/>
</svg>
