<svg width="12" height="21" viewBox="0 0 12 21" fill="none" xmlns="http://www.w3.org/2000/svg">
<path d="M-0.688882 17.3876C-1.08922 17.7681 -1.10533 18.401 -0.724874 18.8014C-0.344415 19.2017 0.288545 19.2178 0.688882 18.8374L-0.688882 17.3876ZM9.52941 9.05625L10.2183 9.78112C10.4169 9.59234 10.5294 9.3303 10.5294 9.05625C10.5294 8.7822 10.4169 8.52016 10.2183 8.33138L9.52941 9.05625ZM0.688882 -0.724874C0.288545 -1.10533 -0.344415 -1.08922 -0.724874 -0.688882C-1.10533 -0.288545 -1.08922 0.344415 -0.688882 0.724874L0.688882 -0.724874ZM0.688882 18.8374L10.2183 9.78112L8.84053 8.33138L-0.688882 17.3876L0.688882 18.8374ZM10.2183 8.33138L0.688882 -0.724874L-0.688882 0.724874L8.84053 9.78112L10.2183 8.33138Z" transform="translate(1.23584 1.38135)" fill="white"/>
</svg>
